<svg width="100" height="100" viewBox="0 0 100 100" fill="none" xmlns="http://www.w3.org/2000/svg">
<g clip-path="url(#clip0_5602_25820)">
<rect width="100" height="100" fill="#F6DDAF"/>
<path d="M48.42 79.72C48.1 79.72 47.76 79.66 47.39 79.66C47.06 79.66 46.72 79.57 46.36 79.58C46.03 79.58 45.69 79.73 45.33 79.74C45 79.74 44.65 79.71 44.3 79.73C43.95 79.75 43.62 79.72 43.27 79.73C42.92 79.74 42.59 79.73 42.24 79.76C41.89 79.79 41.56 79.86 41.22 79.9C40.88 79.94 40.56 80.09 40.21 80.14C39.86 80.19 39.53 80.17 39.18 80.23C38.83 80.29 38.5 80.29 38.15 80.35C37.8 80.41 37.47 80.46 37.13 80.54C36.79 80.62 36.44 80.63 36.11 80.71C35.78 80.79 35.44 80.87 35.11 80.97C34.78 81.07 34.49 81.3 34.17 81.42C33.85 81.54 33.5 81.58 33.17 81.7C32.84 81.82 32.55 82 32.23 82.14C31.91 82.28 31.64 82.49 31.32 82.64C31 82.79 30.73 82.99 30.43 83.16C30.13 83.33 29.72 83.3 29.42 83.48C29.12 83.66 28.84 83.85 28.55 84.04C28.26 84.23 27.94 84.38 27.66 84.58C27.38 84.78 27.14 85.04 26.87 85.26C26.6 85.48 26.47 85.85 26.2 86.07C25.93 86.29 25.67 86.5 25.42 86.74C25.17 86.98 24.75 87.04 24.51 87.29C24.27 87.54 24.09 87.84 23.85 88.1C23.61 88.36 23.4 88.62 23.18 88.89C22.96 89.16 22.91 89.54 22.7 89.82C22.49 90.1 22.1 90.23 21.9 90.52C21.7 90.81 21.54 91.11 21.35 91.4C21.16 91.69 21.05 92.02 20.87 92.32C20.69 92.62 20.6 92.95 20.43 93.26C20.26 93.57 20.01 93.81 19.85 94.12C19.69 94.43 19.46 94.7 19.31 95.01C19.16 95.32 19.2 95.71 19.07 96.03C18.94 96.35 18.67 96.61 18.55 96.93C18.43 97.25 18.44 97.62 18.32 97.95C18.2 98.28 18.18 98.62 18.08 98.96C17.98 99.3 17.7 99.56 17.6 99.9C17.5 100.24 17.45 100.69 17.36 101.03C17.85 101.2 17.92 100.94 18.43 100.94C18.94 100.94 18.95 100.87 19.47 100.87C19.99 100.87 19.99 101.07 20.5 101.07C21.01 101.07 21.02 100.94 21.53 100.94C22.04 100.94 22.05 100.92 22.56 100.92C23.07 100.92 23.08 101.03 23.59 101.03C24.1 101.03 24.11 101.05 24.62 101.05C25.13 101.05 25.14 100.97 25.65 100.97C26.16 100.97 26.17 100.98 26.68 100.98C27.19 100.98 27.2 101.01 27.72 101.01C28.24 101.01 28.24 100.78 28.76 100.78C29.28 100.78 29.27 100.82 29.79 100.82C30.31 100.82 30.3 101.01 30.82 101.01C31.34 101.01 31.34 100.84 31.85 100.84C32.36 100.84 32.37 101.05 32.88 101.05C33.39 101.05 33.4 100.78 33.91 100.78C34.42 100.78 34.43 100.96 34.94 100.96C35.45 100.96 35.46 100.87 35.98 100.87C36.5 100.87 36.5 100.97 37.02 100.97C37.54 100.97 37.54 100.8 38.05 100.8C38.56 100.8 38.57 100.84 39.08 100.84C39.59 100.84 39.6 101.07 40.11 101.07C40.62 101.07 40.63 100.89 41.14 100.89C41.65 100.89 41.66 100.89 42.17 100.89C42.68 100.89 42.69 100.89 43.2 100.89C43.71 100.89 43.72 100.89 44.23 100.89C44.74 100.89 44.75 101.06 45.26 101.06C45.77 101.06 45.78 100.98 46.3 100.98C46.82 100.98 46.82 100.98 47.34 100.98C47.86 100.98 47.86 101.07 48.38 101.07C48.9 101.07 48.9 100.96 49.42 100.96C49.94 100.96 49.94 101 50.45 101C50.96 101 50.97 101.04 51.48 101.04C51.99 101.04 52 101.06 52.52 101.06C53.04 101.06 53.04 101.08 53.56 101.08C54.08 101.08 54.08 100.88 54.6 100.88C55.12 100.88 55.12 101.01 55.64 101.01C56.16 101.01 56.16 101.03 56.68 101.03C57.2 101.03 57.2 100.83 57.72 100.83C58.24 100.83 58.24 101.02 58.76 101.02C59.28 101.02 59.28 100.95 59.8 100.95C60.32 100.95 60.32 101.04 60.84 101.04C61.36 101.04 61.36 100.98 61.88 100.98C62.4 100.98 62.4 101.05 62.92 101.05C63.44 101.05 63.44 100.97 63.95 100.97C64.46 100.97 64.47 100.97 64.98 100.97C65.49 100.97 65.5 101.04 66.02 101.04C66.54 101.04 66.54 100.91 67.06 100.91C67.58 100.91 67.58 100.98 68.1 100.98C68.62 100.98 68.62 100.96 69.14 100.96C69.66 100.96 69.66 101.02 70.18 101.02C70.7 101.02 70.7 101.02 71.22 101.02C71.74 101.02 71.74 100.95 72.26 100.95C72.78 100.95 72.78 100.91 73.3 100.91C73.82 100.91 73.82 100.78 74.34 100.78C74.86 100.78 74.86 100.87 75.38 100.87C75.9 100.87 75.9 100.94 76.43 100.94C76.96 100.94 76.99 101.1 77.48 100.92C77.97 100.74 77.4 100.55 77.21 99.92C77.12 99.65 77.08 99.3 76.95 98.93C76.85 98.64 76.52 98.4 76.39 98.05C76.27 97.75 76.19 97.42 76.05 97.09C75.92 96.79 75.93 96.41 75.78 96.09C75.64 95.79 75.32 95.57 75.15 95.26C75 94.97 74.97 94.6 74.79 94.29C74.61 93.98 74.54 93.65 74.36 93.36C74.18 93.07 74.01 92.78 73.82 92.49C73.63 92.2 73.4 91.96 73.2 91.67C73 91.38 72.7 91.2 72.49 90.92C72.28 90.64 72.07 90.39 71.85 90.13C71.63 89.87 71.46 89.57 71.23 89.31C71 89.05 70.9 88.69 70.66 88.44C70.42 88.19 70.07 88.06 69.82 87.82C69.57 87.58 69.36 87.32 69.11 87.08C68.86 86.84 68.64 86.58 68.38 86.36C68.12 86.14 67.9 85.86 67.63 85.65C67.36 85.44 67.03 85.32 66.75 85.11C66.47 84.9 66.16 84.76 65.88 84.57C65.6 84.38 65.38 84.09 65.09 83.91C64.8 83.73 64.47 83.62 64.17 83.45C63.87 83.28 63.56 83.15 63.25 82.99C62.94 82.83 62.61 82.75 62.3 82.6C61.99 82.45 61.7 82.29 61.38 82.15C61.06 82.01 60.83 81.7 60.51 81.57C60.19 81.44 59.78 81.6 59.45 81.48C59.12 81.36 58.87 81.09 58.54 80.98C58.21 80.87 57.91 80.72 57.57 80.63C57.23 80.54 56.86 80.67 56.52 80.59C56.18 80.51 55.85 80.48 55.51 80.41C55.17 80.34 54.89 80.03 54.55 79.97C54.21 79.91 53.84 80.12 53.5 80.07C53.16 80.02 52.85 79.83 52.5 79.8C52.15 79.77 51.82 79.73 51.48 79.71C51.14 79.69 50.8 79.74 50.45 79.72C50.1 79.7 49.77 79.75 49.42 79.75C49.07 79.75 48.74 79.7 48.39 79.7L48.42 79.72Z" fill="white"/>
<path d="M48.42 79.72C48.1 79.72 47.76 79.66 47.39 79.66C47.06 79.66 46.72 79.57 46.36 79.58C46.03 79.58 45.69 79.73 45.33 79.74C45 79.74 44.65 79.71 44.3 79.73C43.95 79.75 43.62 79.72 43.27 79.73C42.92 79.74 42.59 79.73 42.24 79.76C41.89 79.79 41.56 79.86 41.22 79.9C40.88 79.94 40.56 80.09 40.21 80.14C39.86 80.19 39.53 80.17 39.18 80.23C38.83 80.29 38.5 80.29 38.15 80.35C37.8 80.41 37.47 80.46 37.13 80.54C36.79 80.62 36.44 80.63 36.11 80.71C35.78 80.79 35.44 80.87 35.11 80.97C34.78 81.07 34.49 81.3 34.17 81.42C33.85 81.54 33.5 81.58 33.17 81.7C32.84 81.82 32.55 82 32.23 82.14C31.91 82.28 31.64 82.49 31.32 82.64C31 82.79 30.73 82.99 30.43 83.16C30.13 83.33 29.72 83.3 29.42 83.48C29.12 83.66 28.84 83.85 28.55 84.04C28.26 84.23 27.94 84.38 27.66 84.58C27.38 84.78 27.14 85.04 26.87 85.26C26.6 85.48 26.47 85.85 26.2 86.07C25.93 86.29 25.67 86.5 25.42 86.74C25.17 86.98 24.75 87.04 24.51 87.29C24.27 87.54 24.09 87.84 23.85 88.1C23.61 88.36 23.4 88.62 23.18 88.89C22.96 89.16 22.91 89.54 22.7 89.82C22.49 90.1 22.1 90.23 21.9 90.52C21.7 90.81 21.54 91.11 21.35 91.4C21.16 91.69 21.05 92.02 20.87 92.32C20.69 92.62 20.6 92.95 20.43 93.26C20.26 93.57 20.01 93.81 19.85 94.12C19.69 94.43 19.46 94.7 19.31 95.01C19.16 95.32 19.2 95.71 19.07 96.03C18.94 96.35 18.67 96.61 18.55 96.93C18.43 97.25 18.44 97.62 18.32 97.95C18.2 98.28 18.18 98.62 18.08 98.96C17.98 99.3 17.7 99.56 17.6 99.9C17.5 100.24 17.45 100.69 17.36 101.03C17.85 101.2 17.92 100.94 18.43 100.94C18.94 100.94 18.95 100.87 19.47 100.87C19.99 100.87 19.99 101.07 20.5 101.07C21.01 101.07 21.02 100.94 21.53 100.94C22.04 100.94 22.05 100.92 22.56 100.92C23.07 100.92 23.08 101.03 23.59 101.03C24.1 101.03 24.11 101.05 24.62 101.05C25.13 101.05 25.14 100.97 25.65 100.97C26.16 100.97 26.17 100.98 26.68 100.98C27.19 100.98 27.2 101.01 27.72 101.01C28.24 101.01 28.24 100.78 28.76 100.78C29.28 100.78 29.27 100.82 29.79 100.82C30.31 100.82 30.3 101.01 30.82 101.01C31.34 101.01 31.34 100.84 31.85 100.84C32.36 100.84 32.37 101.05 32.88 101.05C33.39 101.05 33.4 100.78 33.91 100.78C34.42 100.78 34.43 100.96 34.94 100.96C35.45 100.96 35.46 100.87 35.98 100.87C36.5 100.87 36.5 100.97 37.02 100.97C37.54 100.97 37.54 100.8 38.05 100.8C38.56 100.8 38.57 100.84 39.08 100.84C39.59 100.84 39.6 101.07 40.11 101.07C40.62 101.07 40.63 100.89 41.14 100.89C41.65 100.89 41.66 100.89 42.17 100.89C42.68 100.89 42.69 100.89 43.2 100.89C43.71 100.89 43.72 100.89 44.23 100.89C44.74 100.89 44.75 101.06 45.26 101.06C45.77 101.06 45.78 100.98 46.3 100.98C46.82 100.98 46.82 100.98 47.34 100.98C47.86 100.98 47.86 101.07 48.38 101.07C48.9 101.07 48.9 100.96 49.42 100.96C49.94 100.96 49.94 101 50.45 101C50.96 101 50.97 101.04 51.48 101.04C51.99 101.04 52 101.06 52.52 101.06C53.04 101.06 53.04 101.08 53.56 101.08C54.08 101.08 54.08 100.88 54.6 100.88C55.12 100.88 55.12 101.01 55.64 101.01C56.16 101.01 56.16 101.03 56.68 101.03C57.2 101.03 57.2 100.83 57.72 100.83C58.24 100.83 58.24 101.02 58.76 101.02C59.28 101.02 59.28 100.95 59.8 100.95C60.32 100.95 60.32 101.04 60.84 101.04C61.36 101.04 61.36 100.98 61.88 100.98C62.4 100.98 62.4 101.05 62.92 101.05C63.44 101.05 63.44 100.97 63.95 100.97C64.46 100.97 64.47 100.97 64.98 100.97C65.49 100.97 65.5 101.04 66.02 101.04C66.54 101.04 66.54 100.91 67.06 100.91C67.58 100.91 67.58 100.98 68.1 100.98C68.62 100.98 68.62 100.96 69.14 100.96C69.66 100.96 69.66 101.02 70.18 101.02C70.7 101.02 70.7 101.02 71.22 101.02C71.74 101.02 71.74 100.95 72.26 100.95C72.78 100.95 72.78 100.91 73.3 100.91C73.82 100.91 73.82 100.78 74.34 100.78C74.86 100.78 74.86 100.87 75.38 100.87C75.9 100.87 75.9 100.94 76.43 100.94C76.96 100.94 76.99 101.1 77.48 100.92C77.97 100.74 77.4 100.55 77.21 99.92C77.12 99.65 77.08 99.3 76.95 98.93C76.85 98.64 76.52 98.4 76.39 98.05C76.27 97.75 76.19 97.42 76.05 97.09C75.92 96.79 75.93 96.41 75.78 96.09C75.64 95.79 75.32 95.57 75.15 95.26C75 94.97 74.97 94.6 74.79 94.29C74.61 93.98 74.54 93.65 74.36 93.36C74.18 93.07 74.01 92.78 73.82 92.49C73.63 92.2 73.4 91.96 73.2 91.67C73 91.38 72.7 91.2 72.49 90.92C72.28 90.64 72.07 90.39 71.85 90.13C71.63 89.87 71.46 89.57 71.23 89.31C71 89.05 70.9 88.69 70.66 88.44C70.42 88.19 70.07 88.06 69.82 87.82C69.57 87.58 69.36 87.32 69.11 87.08C68.86 86.84 68.64 86.58 68.38 86.36C68.12 86.14 67.9 85.86 67.63 85.65C67.36 85.44 67.03 85.32 66.75 85.11C66.47 84.9 66.16 84.76 65.88 84.57C65.6 84.38 65.38 84.09 65.09 83.91C64.8 83.73 64.47 83.62 64.17 83.45C63.87 83.28 63.56 83.15 63.25 82.99C62.94 82.83 62.61 82.75 62.3 82.6C61.99 82.45 61.7 82.29 61.38 82.15C61.06 82.01 60.83 81.7 60.51 81.57C60.19 81.44 59.78 81.6 59.45 81.48C59.12 81.36 58.87 81.09 58.54 80.98C58.21 80.87 57.91 80.72 57.57 80.63C57.23 80.54 56.86 80.67 56.52 80.59C56.18 80.51 55.85 80.48 55.51 80.41C55.17 80.34 54.89 80.03 54.55 79.97C54.21 79.91 53.84 80.12 53.5 80.07C53.16 80.02 52.85 79.83 52.5 79.8C52.15 79.77 51.82 79.73 51.48 79.71C51.14 79.69 50.8 79.74 50.45 79.72C50.1 79.7 49.77 79.75 49.42 79.75C49.07 79.75 48.74 79.7 48.39 79.7L48.42 79.72Z" stroke="#E1E3E5" stroke-width="1.5" stroke-linecap="round" stroke-linejoin="round"/>
<path d="M39.51 78.19C39.54 78.55 39.48 78.95 39.57 79.27C39.66 79.61 39.88 79.92 40.02 80.22C40.16 80.52 40.4 80.8 40.61 81.07C40.82 81.34 40.93 81.73 41.18 81.96C41.43 82.19 41.86 82.2 42.15 82.4C42.44 82.6 42.69 82.81 43.01 82.97C43.33 83.13 43.58 83.4 43.9 83.52C44.22 83.64 44.63 83.51 44.96 83.6C45.29 83.69 45.58 83.95 45.92 84.02C46.26 84.09 46.61 84.1 46.95 84.15C47.29 84.2 47.63 84.3 47.97 84.34C48.31 84.38 48.67 84.34 49.03 84.34C49.39 84.34 49.73 84.3 50.08 84.25C50.43 84.2 50.77 84.13 51.12 84.04C51.47 83.95 51.78 83.8 52.12 83.68C52.46 83.56 52.85 83.58 53.17 83.43C53.49 83.28 53.75 83 54.04 82.81C54.33 82.62 54.67 82.46 54.94 82.23C55.21 82 55.42 81.7 55.66 81.43C55.9 81.16 55.97 80.79 56.17 80.49C56.37 80.19 56.49 79.89 56.63 79.56C56.77 79.23 57.01 78.96 57.1 78.61C57.19 78.26 57.28 77.85 57.32 77.49C56.82 77.33 56.78 77.71 56.25 77.73C55.72 77.75 55.73 77.75 55.21 77.77C54.69 77.79 54.68 77.68 54.16 77.7C53.64 77.72 53.64 77.82 53.12 77.84C52.6 77.86 52.6 77.85 52.08 77.87C51.56 77.89 51.55 77.73 51.03 77.75C50.51 77.77 50.51 77.93 49.99 77.95C49.47 77.97 49.46 77.82 48.94 77.84C48.42 77.86 48.42 78.02 47.9 78.04C47.38 78.06 47.37 77.88 46.84 77.9C46.31 77.92 46.32 77.94 45.79 77.96C45.26 77.98 45.27 78.04 44.74 78.06C44.21 78.08 44.22 78.01 43.69 78.02C43.16 78.03 43.17 78.06 42.64 78.08C42.11 78.1 42.12 78.28 41.6 78.3C41.08 78.32 41.07 78.21 40.55 78.17C40.03 78.13 39.97 78.05 39.48 78.24L39.51 78.19Z" fill="#F3B06D"/>
<path d="M39.51 78.19C39.54 78.55 39.48 78.95 39.57 79.27C39.66 79.61 39.88 79.92 40.02 80.22C40.16 80.52 40.4 80.8 40.61 81.07C40.82 81.34 40.93 81.73 41.18 81.96C41.43 82.19 41.86 82.2 42.15 82.4C42.44 82.6 42.69 82.81 43.01 82.97C43.33 83.13 43.58 83.4 43.9 83.52C44.22 83.64 44.63 83.51 44.96 83.6C45.29 83.69 45.58 83.95 45.92 84.02C46.26 84.09 46.61 84.1 46.95 84.15C47.29 84.2 47.63 84.3 47.97 84.34C48.31 84.38 48.67 84.34 49.03 84.34C49.39 84.34 49.73 84.3 50.08 84.25C50.43 84.2 50.77 84.13 51.12 84.04C51.47 83.95 51.78 83.8 52.12 83.68C52.46 83.56 52.85 83.58 53.17 83.43C53.49 83.28 53.75 83 54.04 82.81C54.33 82.62 54.67 82.46 54.94 82.23C55.21 82 55.42 81.7 55.66 81.43C55.9 81.16 55.97 80.79 56.17 80.49C56.37 80.19 56.49 79.89 56.63 79.56C56.77 79.23 57.01 78.96 57.1 78.61C57.19 78.26 57.28 77.85 57.32 77.49C56.82 77.33 56.78 77.71 56.25 77.73C55.72 77.75 55.73 77.75 55.21 77.77C54.69 77.79 54.68 77.68 54.16 77.7C53.64 77.72 53.64 77.82 53.12 77.84C52.6 77.86 52.6 77.85 52.08 77.87C51.56 77.89 51.55 77.73 51.03 77.75C50.51 77.77 50.51 77.93 49.99 77.95C49.47 77.97 49.46 77.82 48.94 77.84C48.42 77.86 48.42 78.02 47.9 78.04C47.38 78.06 47.37 77.88 46.84 77.9C46.31 77.92 46.32 77.94 45.79 77.96C45.26 77.98 45.27 78.04 44.74 78.06C44.21 78.08 44.22 78.01 43.69 78.02C43.16 78.03 43.17 78.06 42.64 78.08C42.11 78.1 42.12 78.28 41.6 78.3C41.08 78.32 41.07 78.21 40.55 78.17C40.03 78.13 39.97 78.05 39.48 78.24L39.51 78.19Z" stroke="#E69F5E" stroke-width="1.5" stroke-linecap="round" stroke-linejoin="round"/>
<path d="M38.8699 30.71C38.3899 30.55 38.4299 30.78 37.8599 30.52C37.5999 30.4 37.2799 30.24 36.9499 30.06C36.6699 29.91 36.4599 29.59 36.1599 29.4C35.8899 29.23 35.6499 28.99 35.3599 28.79C35.0999 28.6 34.8599 28.36 34.5999 28.14C34.3399 27.92 33.9899 27.82 33.7599 27.57C33.5299 27.32 33.1999 27.16 32.9899 26.89C32.7799 26.62 32.8199 26.19 32.6399 25.9C32.4599 25.61 32.2999 25.34 32.1499 25.03C31.9999 24.72 31.8099 24.45 31.7199 24.12C31.6299 23.79 31.6499 23.46 31.5899 23.12C31.5299 22.78 31.4999 22.47 31.4899 22.13C31.4899 21.8 31.3499 21.47 31.3799 21.12C31.4099 20.8 31.6099 20.49 31.6799 20.14C31.7399 19.82 31.8199 19.5 31.9199 19.17C32.0099 18.86 32.1299 18.55 32.2499 18.23C32.3699 17.93 32.4899 17.62 32.6399 17.3C32.7799 17 32.7899 16.63 32.9599 16.32C33.1299 16.01 33.3499 15.73 33.5299 15.45C33.7299 15.15 33.8699 14.82 34.0899 14.56C34.3199 14.29 34.7199 14.19 34.9599 13.95C35.1999 13.71 35.3899 13.39 35.6599 13.18C35.9299 12.97 36.2599 12.83 36.5499 12.65C36.8399 12.47 37.1099 12.24 37.4199 12.09C37.7299 11.94 37.9999 11.67 38.3299 11.55C38.6599 11.43 39.0499 11.52 39.3799 11.43C39.7099 11.34 40.0399 11.2 40.3799 11.15C40.7199 11.1 41.0699 11.11 41.4199 11.08C41.7699 11.05 42.1099 11.06 42.4499 11.06C42.7899 11.06 43.1399 10.98 43.4899 10.99C43.8399 11 44.1799 11.05 44.5199 11.09C44.8599 11.13 45.1999 11.21 45.5399 11.26C45.8799 11.31 46.2299 11.36 46.5699 11.42C46.9099 11.48 47.2299 11.63 47.5699 11.71C47.9099 11.79 48.2699 11.78 48.5999 11.87C48.9299 11.96 49.3099 11.95 49.6399 12.05C49.9799 12.16 50.3299 12.23 50.6399 12.35C50.9799 12.47 51.2399 12.77 51.5499 12.89C51.8999 13.02 52.2799 13.02 52.5699 13.14C52.9299 13.3 53.2199 13.52 53.49 13.64C54.08 13.91 53.9299 13.92 54.4099 14.1C54.8899 14.28 54.8899 14.26 55.3799 14.41C55.8699 14.56 55.8299 14.7 56.3199 14.85C56.8099 15 56.84 14.91 57.33 15.06C57.82 15.21 57.82 15.2 58.3099 15.34C58.7999 15.48 58.8499 15.34 59.3399 15.49C59.8299 15.64 59.7599 15.86 60.2499 16C60.7399 16.14 60.7299 16.19 61.2199 16.34C61.7099 16.49 61.7899 16.22 62.2799 16.37C62.7699 16.52 62.7599 16.55 63.2499 16.7C63.7399 16.85 63.7299 16.87 64.2199 17.02C64.7099 17.17 64.6499 17.38 65.1399 17.53C65.6299 17.68 65.6999 17.45 66.1899 17.59C66.68 17.73 66.6499 17.83 67.1399 17.98C67.6299 18.13 67.5899 18.26 68.0799 18.41C68.57 18.56 68.6299 18.36 69.1199 18.51C69.61 18.66 69.6099 18.65 70.1099 18.8C70.6099 18.95 70.5999 18.94 71.0899 19.09C71.5799 19.24 71.5799 19.24 72.0699 19.39C72.5599 19.54 72.5199 19.68 73.0099 19.83C73.5 19.98 73.5399 19.87 74.0299 20.02C74.5199 20.17 74.4599 20.46 74.9699 20.54C75.4799 20.62 75.36 20.26 75.9799 20.16C76.27 20.12 76.6199 20.19 77.0099 20.16C77.32 20.13 77.6599 19.99 78.0199 19.98C78.3399 19.98 78.6899 20 79.0399 20.01C79.3699 20.02 79.6899 20.22 80.0399 20.25C80.3899 20.28 80.7499 20.05 81.0899 20.12C81.4299 20.19 81.7599 20.29 82.0899 20.38C82.4199 20.47 82.6999 20.71 83.0199 20.83C83.3399 20.95 83.6799 21.02 83.9899 21.18C84.2999 21.34 84.5599 21.56 84.8399 21.75C85.1199 21.94 85.47 22.06 85.7299 22.29C85.9899 22.52 86.2099 22.78 86.4399 23.05C86.6699 23.32 86.7799 23.64 86.9799 23.94C87.16 24.21 87.3599 24.5 87.5199 24.81C87.6699 25.1 87.6799 25.46 87.8099 25.79C87.9299 26.1 88.1099 26.39 88.2099 26.72C88.2999 27.04 88.3999 27.36 88.4699 27.71C88.5399 28.03 88.6199 28.37 88.6699 28.72C88.7099 29.05 88.7899 29.38 88.8199 29.74C88.8499 30.07 88.8199 30.42 88.8399 30.77C88.8399 31.1 88.7899 31.45 88.7799 31.8C88.7699 32.15 88.8099 32.49 88.7899 32.81C88.7699 33.16 88.7 33.49 88.66 33.81C88.6199 34.16 88.4899 34.47 88.4299 34.79C88.3699 35.13 88.3199 35.46 88.2399 35.78C88.1499 36.12 88.2499 36.5 88.1499 36.81C88.0399 37.14 87.79 37.41 87.66 37.71C87.52 38.03 87.32 38.3 87.16 38.59C86.9799 38.89 86.8699 39.22 86.6699 39.48C86.4599 39.76 86.2699 40.05 86.0399 40.28C85.8099 40.51 85.4899 40.7 85.2299 40.9C84.97 41.1 84.6199 41.2 84.3399 41.37C84.0599 41.54 83.7899 41.77 83.4899 41.9C83.1899 42.03 82.8599 42.14 82.5399 42.24C82.2199 42.34 81.91 42.5 81.5799 42.57C81.2499 42.64 80.8999 42.56 80.5599 42.59C80.2199 42.62 79.8999 42.84 79.5599 42.85C79.2199 42.86 78.88 42.78 78.5499 42.76C78.2199 42.74 77.8899 42.58 77.5599 42.54C77.2299 42.5 76.8899 42.43 76.5699 42.37C76.2499 42.31 75.9099 42.22 75.5899 42.14C75.2499 42.05 74.8999 42.04 74.5999 41.94C74.2699 41.82 73.91 41.78 73.6199 41.65C73.2899 41.5 73.0599 41.19 72.7999 41.04C72.4599 40.83 72.1399 40.69 71.9599 40.49" fill="white"/>
<path d="M38.8699 30.71C38.3899 30.55 38.4299 30.78 37.8599 30.52C37.5999 30.4 37.2799 30.24 36.9499 30.06C36.6699 29.91 36.4599 29.59 36.1599 29.4C35.8899 29.23 35.6499 28.99 35.3599 28.79C35.0999 28.6 34.8599 28.36 34.5999 28.14C34.3399 27.92 33.9899 27.82 33.7599 27.57C33.5299 27.32 33.1999 27.16 32.9899 26.89C32.7799 26.62 32.8199 26.19 32.6399 25.9C32.4599 25.61 32.2999 25.34 32.1499 25.03C31.9999 24.72 31.8099 24.45 31.7199 24.12C31.6299 23.79 31.6499 23.46 31.5899 23.12C31.5299 22.78 31.4999 22.47 31.4899 22.13C31.4899 21.8 31.3499 21.47 31.3799 21.12C31.4099 20.8 31.6099 20.49 31.6799 20.14C31.7399 19.82 31.8199 19.5 31.9199 19.17C32.0099 18.86 32.1299 18.55 32.2499 18.23C32.3699 17.93 32.4899 17.62 32.6399 17.3C32.7799 17 32.7899 16.63 32.9599 16.32C33.1299 16.01 33.3499 15.73 33.5299 15.45C33.7299 15.15 33.8699 14.82 34.0899 14.56C34.3199 14.29 34.7199 14.19 34.9599 13.95C35.1999 13.71 35.3899 13.39 35.6599 13.18C35.9299 12.97 36.2599 12.83 36.5499 12.65C36.8399 12.47 37.1099 12.24 37.4199 12.09C37.7299 11.94 37.9999 11.67 38.3299 11.55C38.6599 11.43 39.0499 11.52 39.3799 11.43C39.7099 11.34 40.0399 11.2 40.3799 11.15C40.7199 11.1 41.0699 11.11 41.4199 11.08C41.7699 11.05 42.1099 11.06 42.4499 11.06C42.7899 11.06 43.1399 10.98 43.4899 10.99C43.8399 11 44.1799 11.05 44.5199 11.09C44.8599 11.13 45.1999 11.21 45.5399 11.26C45.8799 11.31 46.2299 11.36 46.5699 11.42C46.9099 11.48 47.2299 11.63 47.5699 11.71C47.9099 11.79 48.2699 11.78 48.5999 11.87C48.9299 11.96 49.3099 11.95 49.6399 12.05C49.9799 12.16 50.3299 12.23 50.6399 12.35C50.9799 12.47 51.2399 12.77 51.5499 12.89C51.8999 13.02 52.2799 13.02 52.5699 13.14C52.9299 13.3 53.22 13.52 53.49 13.64C54.08 13.91 53.9299 13.92 54.4099 14.1C54.8899 14.28 54.8899 14.26 55.3799 14.41C55.8699 14.56 55.8299 14.7 56.3199 14.85C56.8099 15 56.84 14.91 57.33 15.06C57.82 15.21 57.8199 15.2 58.3099 15.34C58.7999 15.48 58.8499 15.34 59.3399 15.49C59.8299 15.64 59.7599 15.86 60.2499 16C60.7399 16.14 60.7299 16.19 61.2199 16.34C61.7099 16.49 61.7899 16.22 62.2799 16.37C62.7699 16.52 62.7599 16.55 63.2499 16.7C63.7399 16.85 63.7299 16.87 64.2199 17.02C64.7099 17.17 64.6499 17.38 65.1399 17.53C65.6299 17.68 65.6999 17.45 66.1899 17.59C66.6799 17.73 66.6499 17.83 67.1399 17.98C67.6299 18.13 67.5899 18.26 68.0799 18.41C68.5699 18.56 68.6299 18.36 69.1199 18.51C69.6099 18.66 69.6099 18.65 70.1099 18.8C70.6099 18.95 70.5999 18.94 71.0899 19.09C71.5799 19.24 71.5799 19.24 72.0699 19.39C72.5599 19.54 72.5199 19.68 73.0099 19.83C73.4999 19.98 73.5399 19.87 74.0299 20.02C74.5199 20.17 74.4599 20.46 74.9699 20.54C75.4799 20.62 75.3599 20.26 75.9799 20.16C76.2699 20.12 76.6199 20.19 77.0099 20.16C77.3199 20.13 77.6599 19.99 78.0199 19.98C78.3399 19.98 78.6899 20 79.0399 20.01C79.3699 20.02 79.6899 20.22 80.0399 20.25C80.3899 20.28 80.7499 20.05 81.0899 20.12C81.4299 20.19 81.7599 20.29 82.0899 20.38C82.4199 20.47 82.6999 20.71 83.0199 20.83C83.3399 20.95 83.6799 21.02 83.9899 21.18C84.2999 21.34 84.5599 21.56 84.8399 21.75C85.1199 21.94 85.4699 22.06 85.7299 22.29C85.9899 22.52 86.2099 22.78 86.4399 23.05C86.6699 23.32 86.7799 23.64 86.9799 23.94C87.1599 24.21 87.3599 24.5 87.5199 24.81C87.6699 25.1 87.6799 25.46 87.8099 25.79C87.9299 26.1 88.1099 26.39 88.2099 26.72C88.2999 27.04 88.3999 27.36 88.4699 27.71C88.5399 28.03 88.6199 28.37 88.6699 28.72C88.7099 29.05 88.7899 29.38 88.8199 29.74C88.8499 30.07 88.8199 30.42 88.8399 30.77C88.8399 31.1 88.7899 31.45 88.7799 31.8C88.7699 32.15 88.8099 32.49 88.7899 32.81C88.7699 33.16 88.7 33.49 88.66 33.81C88.62 34.16 88.4899 34.47 88.4299 34.79C88.3699 35.13 88.3199 35.46 88.2399 35.78C88.1499 36.12 88.2499 36.5 88.1499 36.81C88.0399 37.14 87.79 37.41 87.66 37.71C87.52 38.03 87.32 38.3 87.16 38.59C86.98 38.89 86.8699 39.22 86.6699 39.48C86.4599 39.76 86.2699 40.05 86.0399 40.28C85.8099 40.51 85.4899 40.7 85.2299 40.9C84.9699 41.1 84.6199 41.2 84.3399 41.37C84.0599 41.54 83.7899 41.77 83.4899 41.9C83.1899 42.03 82.8599 42.14 82.5399 42.24C82.2199 42.34 81.9099 42.5 81.5799 42.57C81.2499 42.64 80.8999 42.56 80.5599 42.59C80.2199 42.62 79.8999 42.84 79.5599 42.85C79.2199 42.86 78.8799 42.78 78.5499 42.76C78.2199 42.74 77.8899 42.58 77.5599 42.54C77.2299 42.5 76.8899 42.43 76.5699 42.37C76.2499 42.31 75.9099 42.22 75.5899 42.14C75.2499 42.05 74.8999 42.04 74.5999 41.94C74.2699 41.82 73.9099 41.78 73.6199 41.65C73.2899 41.5 73.0599 41.19 72.7999 41.04C72.4599 40.83 72.1399 40.69 71.9599 40.49" stroke="#E1E3E5" stroke-width="1.5" stroke-linecap="round" stroke-linejoin="round"/>
<path d="M47.76 15.67C47.72 15.17 47.65 15.28 47.67 14.65C47.68 14.36 47.74 14.02 47.78 13.64C47.81 13.33 47.86 12.99 47.92 12.64C47.98 12.33 48.2 12.03 48.29 11.69C48.37 11.38 48.41 11.04 48.53 10.71C48.64 10.4 48.68 10.05 48.82 9.73999C48.96 9.42999 49.09 9.11999 49.26 8.81999C49.43 8.51999 49.78 8.36999 49.98 8.08999C50.18 7.80999 50.27 7.46999 50.5 7.21999C50.73 6.96999 51.02 6.80999 51.28 6.57999C51.54 6.34999 51.8 6.17999 52.08 5.97999C52.36 5.77999 52.51 5.41999 52.81 5.24999C53.09 5.08999 53.45 5.03999 53.77 4.88999C54.07 4.75999 54.4 4.69999 54.73 4.57999C55.04 4.46999 55.37 4.43999 55.71 4.35999C56.03 4.27999 56.35 4.20999 56.69 4.14999C57.01 4.08999 57.32 3.93999 57.67 3.89999C57.99 3.85999 58.33 3.87999 58.68 3.85999C59.01 3.83999 59.34 3.61999 59.68 3.60999C60.01 3.60999 60.35 3.71999 60.69 3.72999C61.03 3.73999 61.35 3.77999 61.7 3.79999C62.05 3.81999 62.35 3.98999 62.69 4.02999C63.03 4.06999 63.38 3.85999 63.73 3.90999C64.08 3.95999 64.34 4.28999 64.68 4.34999C65.02 4.40999 65.38 4.22999 65.72 4.29999C66.06 4.36999 66.33 4.62999 66.67 4.70999C67.01 4.78999 67.41 4.63999 67.74 4.72999C68.08 4.81999 68.38 5.04999 68.71 5.13999C69.05 5.23999 69.38 5.35999 69.7 5.46999C70.04 5.57999 70.38 5.65999 70.7 5.77999C71.03 5.90999 71.39 5.96999 71.7 6.09999C72.03 6.23999 72.31 6.46999 72.61 6.62999C72.93 6.78999 73.3 6.84999 73.59 7.01999C73.9 7.19999 74.08 7.57999 74.35 7.75999C74.65 7.95999 74.94 8.12999 75.21 8.33999C75.49 8.55999 75.87 8.65999 76.12 8.88999C76.38 9.13999 76.5 9.50999 76.72 9.75999C76.95 10.03 77.2 10.27 77.39 10.55C77.59 10.84 77.65 11.21 77.81 11.51C77.97 11.81 78.29 12.06 78.41 12.38C78.53 12.7 78.48 13.09 78.56 13.42C78.64 13.75 78.89 14.07 78.93 14.41C78.97 14.75 78.84 15.11 78.85 15.46C78.86 15.81 78.91 16.16 78.88 16.5C78.85 16.84 78.9 17.21 78.84 17.55C78.78 17.89 78.73 18.25 78.65 18.58C78.57 18.91 78.41 19.25 78.3 19.57C78.19 19.89 77.92 20.18 77.79 20.49C77.66 20.83 77.57 21.17 77.43 21.47C77.27 21.81 77.15 22.13 77 22.42C76.81 22.77 76.75 23.14 76.6 23.4C76.27 23.95 76.31 23.83 76 24.25" fill="white"/>
<path d="M47.2501 15.71C47.0101 14.59 47.2501 13.49 47.3901 12.38C47.4901 12.03 47.6701 11.77 47.7401 11.4C47.9501 10.42 48.2001 9.32001 48.7301 8.42001C48.9301 8.10001 49.2101 7.95001 49.4001 7.74001C49.6201 7.44001 49.6801 7.06001 50.0901 6.66001C50.5701 6.20001 51.0201 5.93001 51.4701 5.55001L51.6501 5.41001C51.6801 5.38001 51.6801 5.39001 51.7101 5.36001C51.9701 4.96001 52.4701 4.51001 52.9701 4.39001C54.4501 3.79001 56.1401 3.49001 57.5701 3.14001C57.8201 3.12001 58.6101 3.11001 58.7101 3.07001C58.8701 3.04001 59.2301 2.83001 59.7501 2.84001C60.1601 2.86001 60.4401 2.94001 60.6301 2.95001C61.1601 3.01001 61.9401 2.98001 62.4501 3.18001C62.8201 3.32001 62.9401 3.20001 63.3701 3.14001C63.5601 3.11001 63.9201 3.12001 64.1701 3.23001C64.6101 3.44001 64.8101 3.60001 64.8201 3.58001C64.7601 3.59001 65.0001 3.55001 65.4201 3.50001C65.6201 3.48001 65.9701 3.52001 66.1601 3.61001C66.4401 3.71001 66.64 3.88001 66.84 3.94001C67 3.98001 67.2201 3.91001 67.4701 3.92001C67.9201 3.86001 68.6501 4.29001 68.9001 4.39001L70.5101 4.92001C71.3101 5.16001 72.2101 5.43001 72.9101 5.94001C73.3701 6.12001 74.2501 6.39001 74.5701 6.94001C74.7401 7.16001 74.8801 7.23001 75.0701 7.36001L75.7201 7.81001C75.8601 7.91001 76.1501 7.99001 76.5301 8.29001C76.9101 8.63001 77.0401 8.97001 77.1601 9.16001C77.2701 9.34001 77.7301 9.86001 77.9201 10.11C78.1601 10.37 78.3101 11.08 78.4401 11.26C78.5201 11.41 78.7701 11.6 78.9901 12.05C79.2201 12.65 79.09 12.93 79.2001 13.33C79.39 13.72 79.6401 14.36 79.5301 14.82C79.3701 15.62 79.5001 16.44 79.4301 17.3C79.3101 18.47 78.8901 19.71 78.2501 20.63C77.9701 21.38 77.5901 22.19 77.2401 22.91C77.1401 23.16 77.01 23.53 76.84 23.75C76.72 23.98 76.4501 24.24 76.3001 24.46C75.9801 24.85 75.3701 24.38 75.6701 23.97C76.2101 23.35 76.3101 22.87 76.6001 22.16C76.8701 21.58 77.1301 20.84 77.3301 20.23C77.4901 19.87 77.6801 19.65 77.7501 19.48L77.9801 18.77C78.3301 17.74 78.2901 16.68 78.2301 15.59C78.2101 15.38 78.2501 14.93 78.2901 14.68C78.3001 14.44 78.3001 14.46 78.1901 14.2C78.0501 13.95 77.8701 13.49 77.8601 13.19C77.7901 12.42 77.8801 12.71 77.3301 12.01C76.9801 11.51 77.0301 11.22 76.7801 10.88C76.4601 10.51 76.2901 10.38 75.9501 9.88001C75.5601 9.19001 75.6801 9.43001 74.9701 9.02001L74.2301 8.52001C73.9701 8.38001 73.59 8.04001 73.4501 7.86001C73.26 7.66001 73.32 7.66001 73.09 7.56001C72.34 7.41001 71.6301 6.74001 70.8501 6.59001C70.3301 6.42001 68.9501 6.00001 68.4101 5.82001C67.9201 5.66001 67.7801 5.47001 67.4901 5.45001C67.1301 5.48001 66.8601 5.53001 66.4501 5.43001C66.0601 5.34001 65.8201 5.09001 65.5301 5.04001C65.3901 5.02001 65.0801 5.19001 64.4601 5.07001C63.9101 4.90001 63.6901 4.66001 63.6101 4.65001C63.6801 4.65001 63.5801 4.64001 63.2301 4.73001C62.6401 4.93001 61.9601 4.53001 61.3701 4.52001C60.9801 4.52001 60.0001 4.38001 59.7301 4.35001C59.6801 4.33001 59.5201 4.40001 59.1501 4.52001C58.4501 4.66001 58.3201 4.59001 57.7701 4.63001C56.3401 5.05001 55.1301 5.12001 53.8601 5.63001C53.7601 5.68001 53.2701 5.79001 53.1901 5.85001C52.9801 6.05001 52.6601 6.48001 52.3501 6.66001C51.9901 6.91001 51.3701 7.39001 51.0801 7.62001C50.9001 7.79001 50.6901 8.37001 50.4101 8.65001C50.2101 8.85001 50.0001 8.99001 49.8701 9.13001C49.7401 9.41001 49.4801 9.87001 49.3901 10.11C49.2101 10.65 49.0101 11.57 48.7801 12.17L48.6001 12.55L48.5501 12.68C48.5501 12.68 48.5301 12.74 48.5201 12.82L48.4501 13.22C48.3201 14.01 48.1501 14.81 48.3101 15.6C48.3601 16.25 47.3601 16.33 47.2901 15.69L47.2501 15.71Z" fill="#E1E3E5"/>
<path d="M43.0501 24.26C42.6801 24.6 42.7901 24.49 42.3401 24.96C42.1501 25.17 41.8901 25.38 41.6301 25.67C41.4301 25.9 41.2301 26.16 41.0001 26.44C40.8001 26.68 40.5401 26.9 40.3201 27.18C40.1201 27.43 40.0101 27.76 39.8001 28.04C39.6101 28.3 39.4101 28.57 39.2101 28.85C39.0201 29.12 38.6801 29.29 38.4901 29.58C38.3101 29.85 38.1601 30.16 37.9801 30.45C37.8001 30.74 37.6901 31.05 37.5101 31.35C37.3301 31.65 37.0201 31.84 36.8601 32.14C36.7001 32.44 36.6301 32.77 36.4701 33.08C36.3101 33.39 36.1901 33.68 36.0301 33.99C35.8701 34.3 35.7601 34.6 35.6201 34.91C35.4801 35.22 35.3701 35.53 35.2301 35.84C35.0901 36.15 35.0001 36.47 34.8701 36.78C34.7401 37.09 34.5701 37.38 34.4401 37.7C34.3101 38.02 34.1701 38.28 34.0601 38.6C34.3501 39.02 34.3801 38.7 35.0401 38.76C35.3201 38.79 35.6601 38.84 36.0501 38.87C36.3601 38.9 36.6901 39 37.0601 39.04C37.3801 39.07 37.7201 39.11 38.0701 39.14C38.3901 39.17 38.7401 39.16 39.0901 39.2C39.4201 39.23 39.7501 39.31 40.1001 39.35C40.4301 39.39 40.7901 39.23 41.1301 39.27C41.4601 39.31 41.7801 39.51 42.1201 39.55C42.4601 39.59 42.8001 39.5 43.1501 39.55C43.5001 39.6 43.8101 39.7 44.1601 39.74C44.5101 39.78 44.8301 39.81 45.1801 39.85C45.5301 39.89 45.8401 39.98 46.1901 40.03C46.5401 40.08 46.8801 40.01 47.2201 40.06C47.5601 40.11 47.8701 40.28 48.2101 40.33C48.5501 40.38 48.8901 40.36 49.2301 40.41C49.5701 40.46 49.9001 40.48 50.2401 40.53C50.5801 40.58 50.9101 40.61 51.2501 40.66C51.5901 40.71 51.8901 40.93 52.2301 40.99C52.5701 41.05 52.9401 40.86 53.2801 40.92C53.6201 40.98 53.9601 40.99 54.3001 41.05C54.6401 41.11 54.9701 41.19 55.3001 41.25C55.6301 41.31 55.9201 41.64 56.2601 41.7C56.6001 41.76 56.9701 41.59 57.3101 41.65C57.6501 41.71 57.9801 41.8 58.3101 41.86C58.6401 41.92 58.9901 41.94 59.3301 42C59.6701 42.06 59.9901 42.17 60.3301 42.24C60.6701 42.31 60.9501 42.6 61.2901 42.67C61.6301 42.74 62.0001 42.61 62.3401 42.69C62.6801 42.77 62.9601 43.07 63.2901 43.14C63.6201 43.21 64.0001 43.13 64.3301 43.21C64.6601 43.29 64.9801 43.45 65.3101 43.53C65.6401 43.61 66.0001 43.62 66.3301 43.7C66.6601 43.78 66.9401 44.06 67.2701 44.15C67.6001 44.24 67.9901 44.12 68.3201 44.21C68.6501 44.3 68.9301 44.56 69.2501 44.66C69.5701 44.76 69.9801 44.64 70.3001 44.74C70.6201 44.84 70.9101 45.07 71.2301 45.18C71.5501 45.29 71.8401 45.51 72.1601 45.63C72.4801 45.75 72.8801 45.67 73.1901 45.79C73.5001 45.91 73.7901 46.15 74.1001 46.28C74.4101 46.41 74.7201 46.58 75.0201 46.72C75.3201 46.86 75.6301 46.96 75.9301 47.11C76.3501 46.84 75.9301 46.78 75.9901 46.14C76.0101 45.86 76.0601 45.52 76.0901 45.14C76.1101 44.83 76.0201 44.49 76.0401 44.13C76.0601 43.81 76.1501 43.48 76.1701 43.13C76.1901 42.81 76.1401 42.47 76.1501 42.12C76.1601 41.79 76.1801 41.46 76.1901 41.11C76.2001 40.76 76.3501 40.45 76.3601 40.11C76.3701 39.77 76.3201 39.44 76.3301 39.1C76.3401 38.76 76.4401 38.43 76.4401 38.09C76.4401 37.75 76.4701 37.42 76.4701 37.08C76.4701 36.74 76.4701 36.41 76.4701 36.07C76.4701 35.73 76.3001 35.4 76.2901 35.06C76.2801 34.72 76.3501 34.38 76.3301 34.04C76.3101 33.7 76.3301 33.36 76.3001 33.02C76.2701 32.68 76.1901 32.35 76.1601 32.02C76.1301 31.69 76.0501 31.35 76.0101 31.02" fill="white"/>
<path d="M43.39 24.63C42.43 25.55 41.47 26.68 40.66 27.7C40.44 28.19 40.06 28.68 39.77 29.1C39.6 29.39 39.2 29.69 39.02 29.9C38.68 30.47 38.34 31.12 38.03 31.73C37.8 32.08 37.55 32.23 37.4 32.51C37.29 32.78 37.15 33.23 36.99 33.52C36.16 35.26 35.52 37.09 34.75 38.86L34.66 38.18C34.69 38.26 34.78 38.2 34.43 38.08C34.13 38.08 34.37 38.06 34.51 38.02C34.76 37.97 35.11 38 35.37 38.02C36.96 38.23 38.6 38.31 40.19 38.47C40.5 38.43 40.69 38.36 41.04 38.36C41.74 38.36 41.97 38.72 42.61 38.6C43.87 38.59 45.15 38.9 46.4 39.02C46.8 39.02 47.12 38.96 47.63 39.08C48.32 39.29 48.26 39.27 48.85 39.3C49.62 39.33 50.45 39.46 51.22 39.54C51.56 39.54 52.24 39.84 52.38 39.88H52.33C52.61 39.81 53.27 39.74 53.54 39.82C54.07 39.87 54.71 39.96 55.23 40.07C55.37 40.1 55.36 40.08 55.72 40.18C56.22 40.37 56.41 40.56 56.49 40.58C56.53 40.6 56.47 40.57 56.4 40.56C56.36 40.56 56.39 40.56 56.46 40.56C56.6 40.56 56.96 40.44 57.5 40.53L58.17 40.68C59.19 40.89 60.7 41.01 61.5 41.6C61.41 41.6 61.53 41.61 61.81 41.59C62.12 41.55 62.75 41.65 63.02 41.82C63.34 42 63.51 42.12 63.51 42.12C63.44 42.11 63.54 42.14 63.78 42.13C63.97 42.13 64.33 42.14 64.56 42.21C64.78 42.27 65.21 42.44 65.41 42.51C65.87 42.66 66.21 42.59 66.82 42.85C67.19 43.03 67.37 43.16 67.47 43.22C67.8 43.24 68.34 43.19 68.7 43.37C69.06 43.52 69.26 43.68 69.38 43.74C69.52 43.8 69.38 43.78 69.6 43.8C69.77 43.81 70.13 43.76 70.59 43.92C70.93 44.05 71.15 44.2 71.3 44.29C71.65 44.43 72.15 44.72 72.4 44.85C72.4 44.87 72.58 44.89 72.86 44.91C73 44.93 73.19 44.95 73.4 45.03C73.98 45.29 74.41 45.63 74.94 45.86C75.35 46.08 75.78 46.25 76.2 46.45L75.46 46.49C75.46 46.49 75.48 46.43 75.36 46.66C75.3 46.8 75.32 46.96 75.33 46.99C75.33 47.02 75.33 46.99 75.32 46.95C75.08 46.52 75.27 45.61 75.32 45.14C75.28 44.53 75.29 43.77 75.44 43.13C75.44 42.27 75.46 40.85 75.69 40.12L75.68 39.12C75.81 38.32 75.82 37.81 75.85 37.11L75.86 36.1C75.87 35.91 75.73 35.59 75.7 35.11C75.77 34.36 75.74 33.77 75.74 33.09L75.48 31.1C75.4 30.52 76.3 30.4 76.37 30.99L76.71 33.02C76.76 33.56 76.77 34.62 76.75 35.06C76.75 35.26 76.91 35.57 76.95 36.07L76.97 37.09C77 37.61 76.92 38.75 76.87 39.13L76.92 40.16C76.65 41.6 76.86 42.86 76.68 44.21C76.67 44.42 76.77 44.75 76.74 45.25L76.66 46.24C76.7 46.55 76.92 46.83 76.74 47.23C76.54 47.62 76.38 47.66 76.28 47.75C76.06 47.95 75.77 47.91 75.54 47.79C74.68 47.47 73.62 46.99 72.84 46.57C72.57 46.54 72.35 46.59 71.84 46.45C71.17 46.17 70.55 45.86 69.99 45.61C69.66 45.61 69.47 45.66 69.1 45.59C68.71 45.55 68.19 45.15 67.99 45.13C67.72 45.13 67.57 45.17 67.24 45.13C66.88 45.13 66.21 44.73 66.05 44.66C65.79 44.59 65.21 44.59 64.81 44.45C64.7 44.41 64.14 44.23 64.06 44.21C63.67 44.19 63.41 44.3 62.76 44.09C62.34 43.92 62.15 43.76 62.06 43.73C62.01 43.71 62.06 43.73 62.08 43.73C62.08 43.73 62.04 43.73 61.96 43.74C61.79 43.74 61.45 43.83 60.92 43.7C60.43 43.55 60.21 43.37 60.09 43.32C60.03 43.29 60.04 43.3 60.06 43.3L59.73 43.22C58.88 42.99 57.93 42.94 57.08 42.73C57.17 42.73 57.08 42.73 56.77 42.78C56.62 42.8 56.42 42.83 56.15 42.8C55.82 42.82 55 42.34 55 42.33C55.14 42.36 54.9 42.31 54.83 42.3C54.51 42.24 54.16 42.15 53.84 42.11L53.17 42.02C52.98 42 53.15 42.02 53.1 42.01C52.82 42.05 52.33 42.15 51.98 42.06C51.7 42.03 51.12 41.76 51.06 41.74C50.02 41.57 48.8 41.48 47.76 41.31C47.04 41.08 47.03 41.04 46.32 41.05C45.26 40.88 44.27 40.74 43.22 40.51C42.94 40.45 42.98 40.45 42.73 40.46C42.53 40.46 42.2 40.51 41.79 40.41C41.43 40.32 41.2 40.2 41.07 40.16C41.01 40.14 41 40.14 40.98 40.13C40.96 40.13 40.89 40.13 40.8 40.13L40.42 40.18C40.34 40.18 40.25 40.19 40.15 40.18C38.39 39.95 36.65 39.73 34.9 39.45C34.54 39.41 34.83 39.51 34.14 39.48C33.55 39.33 33.13 38.77 33.33 38.26C34.18 36.45 34.89 34.58 35.8 32.81C35.86 32.72 35.94 32.51 35.99 32.41C36.12 31.87 36.59 31.31 36.94 30.97C37.42 30.09 37.89 29.06 38.71 28.45C39.07 27.98 39.37 27.59 39.66 27.06C40.39 26.11 41.07 25.42 41.89 24.58C42.11 24.35 42.46 24 42.69 23.81C43.19 23.37 43.85 24.1 43.37 24.56L43.39 24.63Z" fill="#E1E3E5"/>
<path d="M39.03 29.3C39.54 29.25 39.4 29.36 40.06 29.33C40.35 29.32 40.68 29.19 41.08 29.18C41.39 29.18 41.73 29.24 42.1 29.24C42.42 29.24 42.76 29.14 43.12 29.14C43.44 29.14 43.78 29.43 44.13 29.44C44.46 29.44 44.8 29.2 45.16 29.22C45.49 29.23 45.83 29.22 46.18 29.25C46.51 29.27 46.84 29.42 47.19 29.44C47.54 29.46 47.86 29.52 48.21 29.55C48.56 29.58 48.87 29.69 49.22 29.73C49.57 29.77 49.89 29.81 50.23 29.85C50.57 29.89 50.91 29.86 51.25 29.91C51.59 29.96 51.94 29.83 52.28 29.88C52.62 29.93 52.94 30.06 53.28 30.11C53.62 30.16 53.97 30.08 54.31 30.13C54.65 30.18 54.93 30.54 55.26 30.6C55.59 30.66 55.93 30.72 56.26 30.79C56.59 30.86 56.96 30.75 57.3 30.82C57.64 30.89 57.96 30.99 58.29 31.07C58.62 31.15 58.96 31.19 59.3 31.27C59.64 31.35 59.93 31.57 60.26 31.65C60.59 31.73 60.98 31.62 61.31 31.71C61.64 31.8 61.93 32.02 62.26 32.12C62.59 32.22 62.95 32.22 63.27 32.32C63.59 32.42 63.92 32.53 64.24 32.64C64.56 32.75 64.89 32.84 65.22 32.96C65.55 33.08 65.76 33.46 66.08 33.59C66.4 33.72 66.71 33.84 67.03 33.97C67.35 34.1 67.71 34.1 68.03 34.23C68.35 34.36 68.66 34.5 68.97 34.64C69.28 34.78 69.63 34.83 69.95 34.98C70.27 35.13 70.53 35.34 70.84 35.5C71.15 35.66 71.39 35.92 71.69 36.08C71.99 36.24 72.4 36.2 72.7 36.37C73 36.54 73.23 36.82 73.53 36.99C73.83 37.16 74.19 37.22 74.48 37.4C74.77 37.58 75.02 37.83 75.31 38.02C75.6 38.21 75.83 38.47 76.12 38.66" stroke="#E1E3E5" stroke-width="1.5" stroke-linecap="round" stroke-linejoin="round"/>
<path d="M37.16 80.58C37.51 80.97 36.94 80.92 36.79 81.58C36.73 81.86 36.65 82.2 36.57 82.59C36.5 82.9 36.45 83.24 36.37 83.61C36.3 83.93 36.31 84.28 36.24 84.64C36.18 84.96 36.02 85.28 35.95 85.64C35.89 85.97 35.92 86.33 35.85 86.68C35.79 87.01 35.78 87.36 35.72 87.71C35.66 88.04 35.42 88.35 35.35 88.7C35.28 89.05 35.48 89.42 35.41 89.77C35.34 90.12 35.23 90.44 35.17 90.79C35.11 91.14 34.98 91.58 34.93 91.93C35.41 92.1 35.49 91.69 36 91.69C36.51 91.69 36.51 91.87 37.03 91.87C37.55 91.87 37.55 91.82 38.06 91.82C38.57 91.82 38.58 91.88 39.09 91.88C39.6 91.88 39.6 91.84 40.12 91.84C40.64 91.84 40.64 91.84 41.15 91.84C41.66 91.84 41.67 91.84 42.18 91.84C42.69 91.84 42.69 91.79 43.21 91.79C43.73 91.79 43.72 91.98 44.24 91.98C44.76 91.98 44.75 91.87 45.27 91.87C45.79 91.87 45.79 91.95 46.3 91.95C46.81 91.95 46.82 91.88 47.33 91.88C47.84 91.88 47.85 91.72 48.36 91.72C48.87 91.72 48.88 91.69 49.39 91.69C49.9 91.69 49.91 91.82 50.42 91.82C50.93 91.82 50.94 91.91 51.45 91.91C51.96 91.91 51.96 91.71 52.48 91.71C53 91.71 53 91.71 53.51 91.71C54.02 91.71 54.03 91.82 54.55 91.82C55.07 91.82 55.07 91.72 55.59 91.72C56.11 91.72 56.11 91.91 56.6 91.73C57.09 91.55 56.71 91.44 56.78 90.76C56.81 90.46 56.69 90.09 56.74 89.68C56.78 89.36 56.99 89.02 57.05 88.65C57.1 88.32 57 87.94 57.07 87.57C57.13 87.23 57.39 86.92 57.47 86.56C57.54 86.22 57.61 85.87 57.7 85.52C57.79 85.17 57.82 84.82 57.92 84.47C58.02 84.12 58.19 83.81 58.31 83.47C58.43 83.13 58.52 82.79 58.65 82.45C58.78 82.11 58.76 81.68 58.9 81.35C59.28 80.94 59.29 81.35 60.07 81.49C60.36 81.54 60.7 81.64 61.13 81.8C61.43 81.91 61.78 82.03 62.16 82.21C62.46 82.36 62.78 82.55 63.13 82.75C63.43 82.92 63.84 82.96 64.18 83.17C64.48 83.36 64.8 83.63 65.13 83.86C65.33 84.32 64.83 84.18 64.7 84.85C64.65 85.12 64.71 85.47 64.65 85.86C64.6 86.16 64.59 86.49 64.54 86.86C64.5 87.17 64.34 87.48 64.29 87.84C64.25 88.15 64.21 88.48 64.17 88.84C64.14 89.16 64.15 89.5 64.12 89.85C64.09 90.17 64.05 90.5 64.02 90.85C64 91.17 64.09 91.51 64.07 91.86C64.05 92.18 63.85 92.51 63.83 92.85C63.81 93.17 63.84 93.51 63.83 93.86C63.82 94.19 64.02 94.53 64.01 94.87C64 95.21 63.93 95.53 63.92 95.87C63.91 96.21 63.95 96.53 63.95 96.88C63.95 97.23 63.82 97.54 63.82 97.89C63.82 98.24 63.77 98.55 63.77 98.9C63.77 99.25 63.8 99.57 63.8 99.91C63.8 100.25 63.84 100.68 63.84 101.03C63.35 101.19 63.29 100.98 62.77 100.98C62.25 100.98 62.25 100.98 61.74 100.98C61.23 100.98 61.22 101.02 60.71 101.02C60.2 101.02 60.19 100.95 59.68 100.95C59.17 100.95 59.16 100.82 58.64 100.82C58.12 100.82 58.12 100.82 57.6 100.82C57.08 100.82 57.08 100.8 56.56 100.8C56.04 100.8 56.04 100.86 55.52 100.86C55 100.86 55 101.03 54.48 101.03C53.96 101.03 53.96 100.78 53.44 100.78C52.92 100.78 52.92 100.96 52.4 100.96C51.88 100.96 51.88 100.94 51.36 100.94C50.84 100.94 50.84 100.82 50.32 100.82C49.8 100.82 49.8 101.04 49.28 101.04C48.76 101.04 48.76 100.95 48.24 100.95C47.72 100.95 47.72 100.9 47.2 100.9C46.68 100.9 46.68 101.05 46.16 101.05C45.64 101.05 45.64 100.82 45.12 100.82C44.6 100.82 44.6 100.79 44.08 100.79C43.56 100.79 43.56 100.92 43.04 100.92C42.52 100.92 42.52 100.92 42 100.92C41.48 100.92 41.48 100.92 40.96 100.92C40.44 100.92 40.44 101.05 39.92 101.05C39.4 101.05 39.4 100.88 38.89 100.88C38.38 100.88 38.37 100.78 37.85 100.78C37.33 100.78 37.33 100.91 36.81 100.91C36.29 100.91 36.29 100.85 35.77 100.85C35.25 100.85 35.25 100.81 34.73 100.81C34.21 100.81 34.21 101.03 33.69 101.03C33.17 101.03 33.17 100.98 32.65 100.98C32.13 100.98 32.13 101.02 31.61 101.02C31.09 101.02 31.09 100.83 30.57 100.83C30.05 100.83 30.05 101.05 29.53 101.05C29.01 101.05 29.01 101 28.49 101C27.97 101 27.97 100.82 27.44 100.82C26.91 100.82 26.91 101.03 26.41 100.86C25.91 100.69 26.53 100.57 26.58 99.92C26.6 99.64 26.53 99.29 26.57 98.9C26.6 98.59 26.61 98.25 26.65 97.89C26.69 97.57 26.6 97.22 26.65 96.87C26.69 96.55 26.95 96.24 27 95.89C27.05 95.57 26.88 95.2 26.94 94.85C26.99 94.52 27.24 94.22 27.3 93.88C27.36 93.54 27.23 93.18 27.3 92.84C27.37 92.5 27.67 92.23 27.74 91.89C27.81 91.55 27.83 91.22 27.91 90.88C27.99 90.54 27.88 90.18 27.96 89.84C28.04 89.5 28.19 89.2 28.28 88.87C28.37 88.54 28.63 88.27 28.73 87.94C28.83 87.61 28.89 87.28 29 86.96C29.11 86.64 29.12 86.29 29.23 85.96C29.34 85.63 29.46 85.32 29.58 85C29.7 84.68 29.71 84.32 29.83 84C29.95 83.68 30.21 83.42 30.34 83.11C30.7 82.73 30.61 82.78 31.19 82.5C31.46 82.37 31.86 82.4 32.22 82.25C32.51 82.12 32.85 82.03 33.2 81.9C33.51 81.78 33.8 81.58 34.14 81.46C34.46 81.35 34.78 81.22 35.12 81.11C35.46 81 35.8 80.98 36.14 80.89C36.48 80.8 36.82 80.65 37.16 80.59V80.58Z" fill="#F27C7C"/>
<path d="M37.16 80.58C37.51 80.97 36.94 80.92 36.79 81.58C36.73 81.86 36.65 82.2 36.57 82.59C36.5 82.9 36.45 83.24 36.37 83.61C36.3 83.93 36.31 84.28 36.24 84.64C36.18 84.96 36.02 85.28 35.95 85.64C35.89 85.97 35.92 86.33 35.85 86.68C35.79 87.01 35.78 87.36 35.72 87.71C35.66 88.04 35.42 88.35 35.35 88.7C35.28 89.05 35.48 89.42 35.41 89.77C35.34 90.12 35.23 90.44 35.17 90.79C35.11 91.14 34.98 91.58 34.93 91.93C35.41 92.1 35.49 91.69 36 91.69C36.51 91.69 36.51 91.87 37.03 91.87C37.55 91.87 37.55 91.82 38.06 91.82C38.57 91.82 38.58 91.88 39.09 91.88C39.6 91.88 39.6 91.84 40.12 91.84C40.64 91.84 40.64 91.84 41.15 91.84C41.66 91.84 41.67 91.84 42.18 91.84C42.69 91.84 42.69 91.79 43.21 91.79C43.73 91.79 43.72 91.98 44.24 91.98C44.76 91.98 44.75 91.87 45.27 91.87C45.79 91.87 45.79 91.95 46.3 91.95C46.81 91.95 46.82 91.88 47.33 91.88C47.84 91.88 47.85 91.72 48.36 91.72C48.87 91.72 48.88 91.69 49.39 91.69C49.9 91.69 49.91 91.82 50.42 91.82C50.93 91.82 50.94 91.91 51.45 91.91C51.96 91.91 51.96 91.71 52.48 91.71C53 91.71 53 91.71 53.51 91.71C54.02 91.71 54.03 91.82 54.55 91.82C55.07 91.82 55.07 91.72 55.59 91.72C56.11 91.72 56.11 91.91 56.6 91.73C57.09 91.55 56.71 91.44 56.78 90.76C56.81 90.46 56.69 90.09 56.74 89.68C56.78 89.36 56.99 89.02 57.05 88.65C57.1 88.32 57 87.94 57.07 87.57C57.13 87.23 57.39 86.92 57.47 86.56C57.54 86.22 57.61 85.87 57.7 85.52C57.79 85.17 57.82 84.82 57.92 84.47C58.02 84.12 58.19 83.81 58.31 83.47C58.43 83.13 58.52 82.79 58.65 82.45C58.78 82.11 58.76 81.68 58.9 81.35C59.28 80.94 59.29 81.35 60.07 81.49C60.36 81.54 60.7 81.64 61.13 81.8C61.43 81.91 61.78 82.03 62.16 82.21C62.46 82.36 62.78 82.55 63.13 82.75C63.43 82.92 63.84 82.96 64.18 83.17C64.48 83.36 64.8 83.63 65.13 83.86C65.33 84.32 64.83 84.18 64.7 84.85C64.65 85.12 64.71 85.47 64.65 85.86C64.6 86.16 64.59 86.49 64.54 86.86C64.5 87.17 64.34 87.48 64.29 87.84C64.25 88.15 64.21 88.48 64.17 88.84C64.14 89.16 64.15 89.5 64.12 89.85C64.09 90.17 64.05 90.5 64.02 90.85C64 91.17 64.09 91.51 64.07 91.86C64.05 92.18 63.85 92.51 63.83 92.85C63.81 93.17 63.84 93.51 63.83 93.86C63.82 94.19 64.02 94.53 64.01 94.87C64 95.21 63.93 95.53 63.92 95.87C63.91 96.21 63.95 96.53 63.95 96.88C63.95 97.23 63.82 97.54 63.82 97.89C63.82 98.24 63.77 98.55 63.77 98.9C63.77 99.25 63.8 99.57 63.8 99.91C63.8 100.25 63.84 100.68 63.84 101.03C63.35 101.19 63.29 100.98 62.77 100.98C62.25 100.98 62.25 100.98 61.74 100.98C61.23 100.98 61.22 101.02 60.71 101.02C60.2 101.02 60.19 100.95 59.68 100.95C59.17 100.95 59.16 100.82 58.64 100.82C58.12 100.82 58.12 100.82 57.6 100.82C57.08 100.82 57.08 100.8 56.56 100.8C56.04 100.8 56.04 100.86 55.52 100.86C55 100.86 55 101.03 54.48 101.03C53.96 101.03 53.96 100.78 53.44 100.78C52.92 100.78 52.92 100.96 52.4 100.96C51.88 100.96 51.88 100.94 51.36 100.94C50.84 100.94 50.84 100.82 50.32 100.82C49.8 100.82 49.8 101.04 49.28 101.04C48.76 101.04 48.76 100.95 48.24 100.95C47.72 100.95 47.72 100.9 47.2 100.9C46.68 100.9 46.68 101.05 46.16 101.05C45.64 101.05 45.64 100.82 45.12 100.82C44.6 100.82 44.6 100.79 44.08 100.79C43.56 100.79 43.56 100.92 43.04 100.92C42.52 100.92 42.52 100.92 42 100.92C41.48 100.92 41.48 100.92 40.96 100.92C40.44 100.92 40.44 101.05 39.92 101.05C39.4 101.05 39.4 100.88 38.89 100.88C38.38 100.88 38.37 100.78 37.85 100.78C37.33 100.78 37.33 100.91 36.81 100.91C36.29 100.91 36.29 100.85 35.77 100.85C35.25 100.85 35.25 100.81 34.73 100.81C34.21 100.81 34.21 101.03 33.69 101.03C33.17 101.03 33.17 100.98 32.65 100.98C32.13 100.98 32.13 101.02 31.61 101.02C31.09 101.02 31.09 100.83 30.57 100.83C30.05 100.83 30.05 101.05 29.53 101.05C29.01 101.05 29.01 101 28.49 101C27.97 101 27.97 100.82 27.44 100.82C26.91 100.82 26.91 101.03 26.41 100.86C25.91 100.69 26.53 100.57 26.58 99.92C26.6 99.64 26.53 99.29 26.57 98.9C26.6 98.59 26.61 98.25 26.65 97.89C26.69 97.57 26.6 97.22 26.65 96.87C26.69 96.55 26.95 96.24 27 95.89C27.05 95.57 26.88 95.2 26.94 94.85C26.99 94.52 27.24 94.22 27.3 93.88C27.36 93.54 27.23 93.18 27.3 92.84C27.37 92.5 27.67 92.23 27.74 91.89C27.81 91.55 27.83 91.22 27.91 90.88C27.99 90.54 27.88 90.18 27.96 89.84C28.04 89.5 28.19 89.2 28.28 88.87C28.37 88.54 28.63 88.27 28.73 87.94C28.83 87.61 28.89 87.28 29 86.96C29.11 86.64 29.12 86.29 29.23 85.96C29.34 85.63 29.46 85.32 29.58 85C29.7 84.68 29.71 84.32 29.83 84C29.95 83.68 30.21 83.42 30.34 83.11C30.7 82.73 30.61 82.78 31.19 82.5C31.46 82.37 31.86 82.4 32.22 82.25C32.51 82.12 32.85 82.03 33.2 81.9C33.51 81.78 33.8 81.58 34.14 81.46C34.46 81.35 34.78 81.22 35.12 81.11C35.46 81 35.8 80.98 36.14 80.89C36.48 80.8 36.82 80.65 37.16 80.59V80.58Z" stroke="#F27C7C" stroke-width="1.5" stroke-linecap="round" stroke-linejoin="round"/>
<path d="M43.5799 80.51C43.2399 80.5 42.8999 80.58 42.5799 80.57C42.2399 80.55 41.8999 80.57 41.5799 80.54C41.2399 80.51 40.9199 80.3 40.5999 80.26C40.2599 80.22 39.9299 80.18 39.6099 80.14C39.2699 80.09 38.9399 80.05 38.6199 79.99C38.2799 79.93 37.8999 80.11 37.5899 80.04C37.2499 79.96 36.9299 79.85 36.6199 79.76C36.2799 79.66 35.9499 79.59 35.6499 79.48C35.3199 79.36 35.0299 79.16 34.7499 79.03C34.4199 78.88 34.1899 78.61 33.9199 78.46C33.6099 78.28 33.3299 78.1 33.0899 77.92C32.7999 77.69 32.5999 77.44 32.3999 77.22C32.1299 76.93 31.9299 76.7 31.7899 76.46C31.4799 75.92 31.7699 75.89 31.3799 75.57C30.9899 75.25 30.9899 75.52 30.3599 75.52C30.0699 75.52 29.7199 75.71 29.3399 75.69C29.0299 75.67 28.7099 75.42 28.3499 75.38C28.0299 75.34 27.7099 75.26 27.3599 75.2C27.0399 75.14 26.6999 75.14 26.3599 75.06C26.0199 74.98 25.7299 74.84 25.4099 74.73C25.0899 74.62 24.7699 74.53 24.4599 74.39C24.1499 74.25 23.8099 74.19 23.5199 74.02C23.2299 73.85 22.9399 73.67 22.6599 73.48C22.3799 73.29 22.1899 73.01 21.9299 72.78C21.6699 72.55 21.3499 72.41 21.1299 72.15C20.9099 71.89 20.7499 71.6 20.5599 71.31C20.3699 71.02 20.2699 70.71 20.1099 70.4C19.9599 70.1 19.6999 69.89 19.5899 69.56C19.1899 69.22 19.2699 69.38 18.6799 69.12C18.4099 69 18.0799 68.88 17.7399 68.68C17.4599 68.52 17.0899 68.43 16.7899 68.21C16.5299 68.01 16.3499 67.66 16.0899 67.42C15.8499 67.19 15.6799 66.88 15.4399 66.61C15.2199 66.36 14.7999 66.24 14.5999 65.94C14.4099 65.66 14.4699 65.22 14.2999 64.9C14.1399 64.6 13.9299 64.33 13.7999 64C13.6699 63.69 13.5399 63.37 13.4399 63.03C13.3399 62.71 13.1099 62.41 13.0399 62.05C12.9699 61.72 13.0399 61.36 13.0099 61C12.9699 60.66 12.7899 60.32 12.7799 59.96C12.7699 59.62 12.8799 59.27 12.8899 58.91C12.8999 58.55 13.0499 58.24 13.0699 57.92C13.0999 57.57 13.1599 57.25 13.1999 56.93C13.2499 56.59 13.2799 56.26 13.3399 55.95C13.4099 55.61 13.3599 55.26 13.4499 54.95C13.5399 54.61 13.6499 54.3 13.7599 54C13.8799 53.67 14.0299 53.37 14.1599 53.09C14.3099 52.77 14.3699 52.43 14.5399 52.16C14.7199 51.86 14.8799 51.55 15.0799 51.3C15.2999 51.02 15.7199 50.95 15.9399 50.74C16.1999 50.49 16.3099 50.09 16.5499 49.92C16.8599 49.7 17.2199 49.62 17.4799 49.49C18.0299 49.23 18.0199 49.48 18.3799 49.14C18.7399 48.8 18.4699 48.8 18.6799 48.2C18.7699 47.93 18.8799 47.6 19.0199 47.25C19.1399 46.96 19.3399 46.68 19.4999 46.35C19.6399 46.06 19.8999 45.82 20.0699 45.52C20.2299 45.24 20.2399 44.85 20.4299 44.56C20.6099 44.28 20.8999 44.07 21.0999 43.8C21.2999 43.53 21.4599 43.24 21.6899 42.98C21.9199 42.72 22.1099 42.46 22.3599 42.22C22.6099 41.98 22.8499 41.76 23.1099 41.54C23.3699 41.32 23.5999 41.07 23.8699 40.86C24.1399 40.65 24.4799 40.56 24.7799 40.39C25.0799 40.22 25.4099 40.16 25.7199 40C26.0299 39.84 26.2399 39.54 26.5699 39.41C26.8999 39.28 27.2199 39.24 27.5499 39.14C27.8799 39.04 28.2099 39.02 28.5499 38.95C28.8899 38.88 29.1899 38.71 29.5299 38.67C29.8699 38.63 30.1999 38.6 30.5399 38.58C30.8799 38.56 31.2099 38.56 31.5599 38.56C31.9099 38.56 32.1499 38.54 32.4999 38.56C32.8999 38.26 32.6699 38.29 32.9999 37.75C33.1499 37.51 33.4599 37.33 33.7099 37.04C33.9099 36.81 34.0899 36.54 34.3599 36.3C34.5899 36.09 34.6999 35.68 34.9899 35.48C35.2499 35.3 35.6599 35.32 35.9699 35.15C36.2499 34.99 36.4999 34.77 36.8299 34.63C37.1199 34.5 37.4099 34.32 37.7399 34.2C38.0399 34.09 38.3699 34.02 38.7099 33.93C39.0199 33.85 39.3799 33.92 39.7199 33.85C40.0399 33.79 40.3299 33.53 40.6699 33.48C40.9899 33.43 41.3199 33.36 41.6699 33.33C41.9899 33.3 42.3299 33.24 42.6799 33.22C43.0099 33.2 43.3499 33.34 43.6899 33.33C44.0199 33.33 44.3499 33.38 44.6999 33.39C45.0299 33.39 45.3699 33.24 45.7199 33.26C46.0699 33.28 46.4199 33.42 46.7599 33.45C47.1199 33.48 47.4699 33.47 47.8099 33.5C48.1699 33.54 48.4999 33.75 48.8299 33.8C49.1899 33.85 49.5499 33.8 49.8799 33.85C50.2399 33.91 50.5999 33.88 50.9299 33.94C51.2899 34.01 51.6499 33.98 51.9799 34.05C52.3399 34.13 52.6299 34.4 52.9499 34.49C53.2999 34.59 53.6699 34.59 53.9899 34.69C54.3399 34.8 54.6299 35.05 54.9299 35.16C55.2799 35.29 55.6299 35.35 55.9299 35.49C56.2699 35.65 56.5999 35.78 56.8799 35.94C57.2199 36.13 57.5399 36.28 57.7899 36.46C58.1299 36.69 58.4399 36.88 58.6499 37.08C59.1599 37.55 58.7099 37.86 59.1899 38.08C59.6699 38.3 59.6299 37.83 60.2799 37.8C60.5699 37.79 60.9299 37.72 61.3299 37.73C61.6499 37.73 61.9899 37.93 62.3599 37.97C62.6899 38 63.0099 38.14 63.3699 38.19C63.6999 38.24 64.0599 38.17 64.4099 38.25C64.7399 38.32 65.0799 38.38 65.4199 38.47C65.7499 38.56 66.0599 38.7 66.3999 38.81C66.7399 38.92 67.0499 39.04 67.3699 39.17C67.6899 39.3 67.9599 39.53 68.2799 39.68C68.5999 39.83 69.0199 39.75 69.3299 39.93C69.6399 40.11 69.8199 40.45 70.1199 40.65C70.4199 40.85 70.7099 41 70.9899 41.22C71.2699 41.44 71.5699 41.6 71.8399 41.83C72.1099 42.06 72.3799 42.26 72.6399 42.51C72.8999 42.76 72.9699 43.14 73.2099 43.41C73.4499 43.68 73.7399 43.86 73.9599 44.13C74.1799 44.4 74.5199 44.57 74.7199 44.86C74.9199 45.15 75.1199 45.43 75.3099 45.73C75.4999 46.03 75.4299 46.46 75.6099 46.77C75.7899 47.08 76.1799 47.25 76.3399 47.56C76.4999 47.87 76.4899 48.26 76.6399 48.58C76.7899 48.9 76.8699 49.29 76.9999 49.62C77.3899 49.94 77.4399 49.64 78.0199 49.89C78.2899 50.01 78.5699 50.19 78.8999 50.38C79.1699 50.54 79.4599 50.71 79.7499 50.93C80.0099 51.12 80.3899 51.2 80.6599 51.44C80.8999 51.66 81.1199 51.94 81.3499 52.21C81.5599 52.46 81.6299 52.83 81.8299 53.13C82.0199 53.4 82.1999 53.68 82.3699 53.99C82.5299 54.28 82.8299 54.51 82.9699 54.83C83.0999 55.13 83.2399 55.45 83.3499 55.79C83.4499 56.1 83.3299 56.49 83.4099 56.83C83.4899 57.15 83.6999 57.45 83.7499 57.8C83.7999 58.13 83.8999 58.46 83.9299 58.81C83.9599 59.14 83.8899 59.49 83.8999 59.84C83.8999 60.17 83.7899 60.51 83.7799 60.86C83.7699 61.21 83.7299 61.55 83.6999 61.89C83.6699 62.25 83.8599 62.62 83.7999 62.95C83.7399 63.3 83.4599 63.6 83.3799 63.92C83.2899 64.27 83.2899 64.62 83.1799 64.93C83.0599 65.27 82.9599 65.6 82.8199 65.9C82.6699 66.22 82.5299 66.55 82.3499 66.83C82.1599 67.13 81.9699 67.43 81.7599 67.69C81.5399 67.96 81.2799 68.21 81.0299 68.44C80.7799 68.67 80.4799 68.88 80.1999 69.07C79.9199 69.26 79.5899 69.41 79.2999 69.58C79.0099 69.75 78.6499 69.82 78.3399 69.95C78.0299 70.08 77.7499 70.35 77.4299 70.46C77.0899 70.57 76.7699 70.73 76.4499 70.8C76.0999 70.88 75.7399 70.87 75.4199 70.92C75.0499 70.98 74.6899 70.85 74.3799 70.89C73.9699 70.93 73.6799 71.15 73.4299 71.17C73.0399 71.52 73.1499 71.4 72.7899 71.97C72.6299 72.22 72.5099 72.55 72.2599 72.87C72.0699 73.12 71.8499 73.39 71.5899 73.68C71.3699 73.92 71.1399 74.19 70.8799 74.45C70.6499 74.68 70.4099 74.94 70.1399 75.18C69.8899 75.4 69.5399 75.53 69.2599 75.76C68.9999 75.97 68.6799 76.12 68.3799 76.33C68.1099 76.53 67.9599 76.92 67.6499 77.12C67.3699 77.31 67.0299 77.44 66.7199 77.62C66.4299 77.79 66.0399 77.82 65.7199 77.99C65.3999 78.16 65.1699 78.5 64.8599 78.64C64.5199 78.79 64.1599 78.83 63.8299 78.94C63.4799 79.07 63.1899 79.34 62.8599 79.43C62.4999 79.52 62.1299 79.52 61.7899 79.58C61.4199 79.64 61.0699 79.69 60.7299 79.71C60.3599 79.73 59.9999 79.78 59.6599 79.77C59.2799 79.75 58.9199 79.69 58.5899 79.64C58.2099 79.58 57.8999 79.33 57.5899 79.24C57.1999 79.13 56.7999 79.19 56.5199 79.07C55.9099 78.82 56.0999 78.31 55.5899 78.44C55.0799 78.57 55.4899 78.76 54.8399 79.16C54.6099 79.3 54.3199 79.44 53.9099 79.58C53.6299 79.68 53.2999 79.77 52.9199 79.87C52.6099 79.95 52.3099 80.19 51.9299 80.26C51.6099 80.32 51.2699 80.41 50.8999 80.46C50.5699 80.5 50.2199 80.5 49.8499 80.54C49.5199 80.57 49.1699 80.64 48.8099 80.66C48.4799 80.68 48.1199 80.63 47.7599 80.65C47.4199 80.66 47.0699 80.72 46.7099 80.73C46.3699 80.73 46.0199 80.73 45.6599 80.73C45.3199 80.73 44.9699 80.52 44.6099 80.52C44.2699 80.52 43.9199 80.55 43.5499 80.54L43.5799 80.51Z" fill="url(#paint0_linear_5602_25820)"/>
<path d="M43.5799 80.51C43.2399 80.5 42.8999 80.58 42.5799 80.57C42.2399 80.55 41.8999 80.57 41.5799 80.54C41.2399 80.51 40.9199 80.3 40.5999 80.26C40.2599 80.22 39.9299 80.18 39.6099 80.14C39.2699 80.09 38.9399 80.05 38.6199 79.99C38.2799 79.93 37.8999 80.11 37.5899 80.04C37.2499 79.96 36.9299 79.85 36.6199 79.76C36.2799 79.66 35.9499 79.59 35.6499 79.48C35.3199 79.36 35.0299 79.16 34.7499 79.03C34.4199 78.88 34.1899 78.61 33.9199 78.46C33.6099 78.28 33.3299 78.1 33.0899 77.92C32.7999 77.69 32.5999 77.44 32.3999 77.22C32.1299 76.93 31.9299 76.7 31.7899 76.46C31.4799 75.92 31.7699 75.89 31.3799 75.57C30.9899 75.25 30.9899 75.52 30.3599 75.52C30.0699 75.52 29.7199 75.71 29.3399 75.69C29.0299 75.67 28.7099 75.42 28.3499 75.38C28.0299 75.34 27.7099 75.26 27.3599 75.2C27.0399 75.14 26.6999 75.14 26.3599 75.06C26.0199 74.98 25.7299 74.84 25.4099 74.73C25.0899 74.62 24.7699 74.53 24.4599 74.39C24.1499 74.25 23.8099 74.19 23.5199 74.02C23.2299 73.85 22.9399 73.67 22.6599 73.48C22.3799 73.29 22.1899 73.01 21.9299 72.78C21.6699 72.55 21.3499 72.41 21.1299 72.15C20.9099 71.89 20.7499 71.6 20.5599 71.31C20.3699 71.02 20.2699 70.71 20.1099 70.4C19.9599 70.1 19.6999 69.89 19.5899 69.56C19.1899 69.22 19.2699 69.38 18.6799 69.12C18.4099 69 18.0799 68.88 17.7399 68.68C17.4599 68.52 17.0899 68.43 16.7899 68.21C16.5299 68.01 16.3499 67.66 16.0899 67.42C15.8499 67.19 15.6799 66.88 15.4399 66.61C15.2199 66.36 14.7999 66.24 14.5999 65.94C14.4099 65.66 14.4699 65.22 14.2999 64.9C14.1399 64.6 13.9299 64.33 13.7999 64C13.6699 63.69 13.5399 63.37 13.4399 63.03C13.3399 62.71 13.1099 62.41 13.0399 62.05C12.9699 61.72 13.0399 61.36 13.0099 61C12.9699 60.66 12.7899 60.32 12.7799 59.96C12.7699 59.62 12.8799 59.27 12.8899 58.91C12.8999 58.55 13.0499 58.24 13.0699 57.92C13.0999 57.57 13.1599 57.25 13.1999 56.93C13.2499 56.59 13.2799 56.26 13.3399 55.95C13.4099 55.61 13.3599 55.26 13.4499 54.95C13.5399 54.61 13.6499 54.3 13.7599 54C13.8799 53.67 14.0299 53.37 14.1599 53.09C14.3099 52.77 14.3699 52.43 14.5399 52.16C14.7199 51.86 14.8799 51.55 15.0799 51.3C15.2999 51.02 15.7199 50.95 15.9399 50.74C16.1999 50.49 16.3099 50.09 16.5499 49.92C16.8599 49.7 17.2199 49.62 17.4799 49.49C18.0299 49.23 18.0199 49.48 18.3799 49.14C18.7399 48.8 18.4699 48.8 18.6799 48.2C18.7699 47.93 18.8799 47.6 19.0199 47.25C19.1399 46.96 19.3399 46.68 19.4999 46.35C19.6399 46.06 19.8999 45.82 20.0699 45.52C20.2299 45.24 20.2399 44.85 20.4299 44.56C20.6099 44.28 20.8999 44.07 21.0999 43.8C21.2999 43.53 21.4599 43.24 21.6899 42.98C21.9199 42.72 22.1099 42.46 22.3599 42.22C22.6099 41.98 22.8499 41.76 23.1099 41.54C23.3699 41.32 23.5999 41.07 23.8699 40.86C24.1399 40.65 24.4799 40.56 24.7799 40.39C25.0799 40.22 25.4099 40.16 25.7199 40C26.0299 39.84 26.2399 39.54 26.5699 39.41C26.8999 39.28 27.2199 39.24 27.5499 39.14C27.8799 39.04 28.2099 39.02 28.5499 38.95C28.8899 38.88 29.1899 38.71 29.5299 38.67C29.8699 38.63 30.1999 38.6 30.5399 38.58C30.8799 38.56 31.2099 38.56 31.5599 38.56C31.9099 38.56 32.1499 38.54 32.4999 38.56C32.8999 38.26 32.6699 38.29 32.9999 37.75C33.1499 37.51 33.4599 37.33 33.7099 37.04C33.9099 36.81 34.0899 36.54 34.3599 36.3C34.5899 36.09 34.6999 35.68 34.9899 35.48C35.2499 35.3 35.6599 35.32 35.9699 35.15C36.2499 34.99 36.4999 34.77 36.8299 34.63C37.1199 34.5 37.4099 34.32 37.7399 34.2C38.0399 34.09 38.3699 34.02 38.7099 33.93C39.0199 33.85 39.3799 33.92 39.7199 33.85C40.0399 33.79 40.3299 33.53 40.6699 33.48C40.9899 33.43 41.3199 33.36 41.6699 33.33C41.9899 33.3 42.3299 33.24 42.6799 33.22C43.0099 33.2 43.3499 33.34 43.6899 33.33C44.0199 33.33 44.3499 33.38 44.6999 33.39C45.0299 33.39 45.3699 33.24 45.7199 33.26C46.0699 33.28 46.4199 33.42 46.7599 33.45C47.1199 33.48 47.4699 33.47 47.8099 33.5C48.1699 33.54 48.4999 33.75 48.8299 33.8C49.1899 33.85 49.5499 33.8 49.8799 33.85C50.2399 33.91 50.5999 33.88 50.9299 33.94C51.2899 34.01 51.6499 33.98 51.9799 34.05C52.3399 34.13 52.6299 34.4 52.9499 34.49C53.2999 34.59 53.6699 34.59 53.9899 34.69C54.3399 34.8 54.6299 35.05 54.9299 35.16C55.2799 35.29 55.6299 35.35 55.9299 35.49C56.2699 35.65 56.5999 35.78 56.8799 35.94C57.2199 36.13 57.5399 36.28 57.7899 36.46C58.1299 36.69 58.4399 36.88 58.6499 37.08C59.1599 37.55 58.7099 37.86 59.1899 38.08C59.6699 38.3 59.6299 37.83 60.2799 37.8C60.5699 37.79 60.9299 37.72 61.3299 37.73C61.6499 37.73 61.9899 37.93 62.3599 37.97C62.6899 38 63.0099 38.14 63.3699 38.19C63.6999 38.24 64.0599 38.17 64.4099 38.25C64.7399 38.32 65.0799 38.38 65.4199 38.47C65.7499 38.56 66.0599 38.7 66.3999 38.81C66.7399 38.92 67.0499 39.04 67.3699 39.17C67.6899 39.3 67.9599 39.53 68.2799 39.68C68.5999 39.83 69.0199 39.75 69.3299 39.93C69.6399 40.11 69.8199 40.45 70.1199 40.65C70.4199 40.85 70.7099 41 70.9899 41.22C71.2699 41.44 71.5699 41.6 71.8399 41.83C72.1099 42.06 72.3799 42.26 72.6399 42.51C72.8999 42.76 72.9699 43.14 73.2099 43.41C73.4499 43.68 73.7399 43.86 73.9599 44.13C74.1799 44.4 74.5199 44.57 74.7199 44.86C74.9199 45.15 75.1199 45.43 75.3099 45.73C75.4999 46.03 75.4299 46.46 75.6099 46.77C75.7899 47.08 76.1799 47.25 76.3399 47.56C76.4999 47.87 76.4899 48.26 76.6399 48.58C76.7899 48.9 76.8699 49.29 76.9999 49.62C77.3899 49.94 77.4399 49.64 78.0199 49.89C78.2899 50.01 78.5699 50.19 78.8999 50.38C79.1699 50.54 79.4599 50.71 79.7499 50.93C80.0099 51.12 80.3899 51.2 80.6599 51.44C80.8999 51.66 81.1199 51.94 81.3499 52.21C81.5599 52.46 81.6299 52.83 81.8299 53.13C82.0199 53.4 82.1999 53.68 82.3699 53.99C82.5299 54.28 82.8299 54.51 82.9699 54.83C83.0999 55.13 83.2399 55.45 83.3499 55.79C83.4499 56.1 83.3299 56.49 83.4099 56.83C83.4899 57.15 83.6999 57.45 83.7499 57.8C83.7999 58.13 83.8999 58.46 83.9299 58.81C83.9599 59.14 83.8899 59.49 83.8999 59.84C83.8999 60.17 83.7899 60.51 83.7799 60.86C83.7699 61.21 83.7299 61.55 83.6999 61.89C83.6699 62.25 83.8599 62.62 83.7999 62.95C83.7399 63.3 83.4599 63.6 83.3799 63.92C83.2899 64.27 83.2899 64.62 83.1799 64.93C83.0599 65.27 82.9599 65.6 82.8199 65.9C82.6699 66.22 82.5299 66.55 82.3499 66.83C82.1599 67.13 81.9699 67.43 81.7599 67.69C81.5399 67.96 81.2799 68.21 81.0299 68.44C80.7799 68.67 80.4799 68.88 80.1999 69.07C79.9199 69.26 79.5899 69.41 79.2999 69.58C79.0099 69.75 78.6499 69.82 78.3399 69.95C78.0299 70.08 77.7499 70.35 77.4299 70.46C77.0899 70.57 76.7699 70.73 76.4499 70.8C76.0999 70.88 75.7399 70.87 75.4199 70.92C75.0499 70.98 74.6899 70.85 74.3799 70.89C73.9699 70.93 73.6799 71.15 73.4299 71.17C73.0399 71.52 73.1499 71.4 72.7899 71.97C72.6299 72.22 72.5099 72.55 72.2599 72.87C72.0699 73.12 71.8499 73.39 71.5899 73.68C71.3699 73.92 71.1399 74.19 70.8799 74.45C70.6499 74.68 70.4099 74.94 70.1399 75.18C69.8899 75.4 69.5399 75.53 69.2599 75.76C68.9999 75.97 68.6799 76.12 68.3799 76.33C68.1099 76.53 67.9599 76.92 67.6499 77.12C67.3699 77.31 67.0299 77.44 66.7199 77.62C66.4299 77.79 66.0399 77.82 65.7199 77.99C65.3999 78.16 65.1699 78.5 64.8599 78.64C64.5199 78.79 64.1599 78.83 63.8299 78.94C63.4799 79.07 63.1899 79.34 62.8599 79.43C62.4999 79.52 62.1299 79.52 61.7899 79.58C61.4199 79.64 61.0699 79.69 60.7299 79.71C60.3599 79.73 59.9999 79.78 59.6599 79.77C59.2799 79.75 58.9199 79.69 58.5899 79.64C58.2099 79.58 57.8999 79.33 57.5899 79.24C57.1999 79.13 56.7999 79.19 56.5199 79.07C55.9099 78.82 56.0999 78.31 55.5899 78.44C55.0799 78.57 55.4899 78.76 54.8399 79.16C54.6099 79.3 54.3199 79.44 53.9099 79.58C53.6299 79.68 53.2999 79.77 52.9199 79.87C52.6099 79.95 52.3099 80.19 51.9299 80.26C51.6099 80.32 51.2699 80.41 50.8999 80.46C50.5699 80.5 50.2199 80.5 49.8499 80.54C49.5199 80.57 49.1699 80.64 48.8099 80.66C48.4799 80.68 48.1199 80.63 47.7599 80.65C47.4199 80.66 47.0699 80.72 46.7099 80.73C46.3699 80.73 46.0199 80.73 45.6599 80.73C45.3199 80.73 44.9699 80.52 44.6099 80.52C44.2699 80.52 43.9199 80.55 43.5499 80.54L43.5799 80.51Z" stroke="#E69F5E" stroke-width="1.5" stroke-linecap="round" stroke-linejoin="round"/>
<path d="M33.73 63.82C36.0717 63.82 37.97 61.9217 37.97 59.58C37.97 57.2383 36.0717 55.34 33.73 55.34C31.3883 55.34 29.49 57.2383 29.49 59.58C29.49 61.9217 31.3883 63.82 33.73 63.82Z" fill="url(#paint1_radial_5602_25820)"/>
<path d="M57.3099 64.74C59.6516 64.74 61.5499 62.8417 61.5499 60.5C61.5499 58.1583 59.6516 56.26 57.3099 56.26C54.9683 56.26 53.0699 58.1583 53.0699 60.5C53.0699 62.8417 54.9683 64.74 57.3099 64.74Z" fill="url(#paint2_radial_5602_25820)"/>
<path d="M54.0901 56.61C54.0901 56.8 54.0601 56.98 54.0301 57.15C54.0001 57.34 53.9601 57.51 53.9001 57.68C53.8401 57.86 53.7901 58.04 53.7001 58.19C53.6001 58.35 53.4701 58.49 53.3401 58.61C53.2001 58.74 53.0501 58.85 52.8901 58.93C52.7301 59.01 52.5301 59.02 52.3501 59.02C52.1701 59.02 52.0001 58.95 51.8301 58.88C51.6601 58.81 51.5001 58.75 51.3601 58.62C51.2301 58.5 51.0801 58.38 50.9701 58.23C50.8701 58.08 50.8201 57.9 50.7501 57.72C50.6901 57.56 50.6401 57.38 50.6101 57.19C50.5801 57.02 50.5601 56.83 50.5601 56.65C50.5601 56.47 50.5901 56.28 50.6201 56.11C50.6501 55.92 50.6801 55.75 50.7401 55.58C50.8001 55.4 50.8301 55.21 50.9301 55.06C51.0301 54.9 51.2101 54.81 51.3401 54.69C51.4801 54.56 51.6101 54.45 51.7701 54.38C51.9301 54.31 52.1001 54.19 52.2901 54.19C52.4801 54.19 52.6701 54.24 52.8401 54.31C53.0101 54.38 53.1501 54.5 53.3001 54.62C53.4301 54.74 53.5501 54.88 53.6601 55.04C53.7601 55.19 53.8201 55.36 53.8901 55.54C53.9501 55.7 54.0301 55.88 54.0701 56.06C54.1001 56.23 54.0901 56.42 54.1001 56.61H54.0901Z" fill="#5E381F"/>
<path d="M36.5601 56.06C36.5701 55.87 36.5801 55.68 36.6201 55.51C36.6601 55.33 36.7901 55.18 36.8601 55.02C36.9401 54.85 37.0101 54.68 37.1101 54.54C37.2201 54.39 37.3301 54.24 37.4601 54.13C37.6101 54.01 37.7601 53.89 37.9301 53.84C38.1001 53.79 38.2901 53.77 38.4801 53.78C38.6701 53.79 38.8301 53.87 39.0001 53.95C39.1701 54.03 39.2701 54.16 39.4101 54.3C39.5301 54.43 39.6901 54.53 39.7801 54.7C39.8701 54.85 39.8901 55.04 39.9501 55.22C40.0001 55.39 40.0101 55.57 40.0301 55.75C40.0501 55.93 40.0701 56.1 40.0601 56.29C40.0501 56.48 40.0601 56.66 40.0201 56.83C39.9801 57.01 39.9101 57.18 39.8301 57.34C39.7501 57.51 39.6601 57.67 39.5601 57.81C39.4501 57.96 39.3301 58.1 39.2001 58.21C39.0501 58.33 38.9001 58.44 38.7401 58.49C38.5801 58.54 38.3901 58.54 38.2001 58.53C38.0101 58.52 37.8501 58.47 37.6901 58.39C37.5301 58.31 37.3601 58.24 37.2301 58.1C37.1101 57.97 37.0101 57.81 36.9201 57.65C36.8301 57.5 36.7301 57.34 36.6801 57.16C36.6301 56.99 36.6301 56.8 36.6101 56.61C36.5901 56.43 36.5701 56.25 36.5801 56.06H36.5601Z" fill="#5E381F"/>
<path d="M32.5199 38.61C32.4399 38.94 32.2899 39.26 32.1899 39.61C32.0899 39.93 32.1399 40.31 32.0299 40.67C31.9299 40.99 31.6399 41.27 31.5399 41.63C31.4499 41.95 31.5399 42.34 31.4399 42.7C31.3599 43.03 31.2499 43.36 31.1799 43.72C31.1099 44.05 30.9899 44.39 30.9299 44.75C30.8799 45.08 30.9499 45.45 30.9099 45.82C30.8699 46.16 30.8699 46.51 30.8399 46.87C30.8099 47.21 30.6499 47.55 30.6199 47.91C30.5999 48.25 30.6899 48.61 30.6799 48.97C30.6699 49.31 30.4499 49.66 30.4399 50.03C30.4399 50.37 30.4499 50.73 30.4499 51.09C30.4499 51.43 30.4799 51.79 30.4899 52.15C30.4999 52.51 30.4899 52.85 30.4999 53.22C30.5099 53.59 30.6299 53.92 30.6499 54.28" fill="#F4B976"/>
<path d="M33.2399 38.79L32.8999 39.77C32.8199 39.92 32.8499 40.22 32.7499 40.7C32.6199 41.26 32.2999 41.57 32.2299 41.73C32.1399 41.84 32.1599 42.31 32.1399 42.46C32.0299 43.24 31.7999 43.78 31.6299 44.47C31.4399 44.97 31.5499 45.38 31.4799 45.92C31.4599 46.16 31.4099 46.65 31.3899 46.9C31.3399 47.42 31.0899 47.79 31.1599 48.27C31.1999 48.61 31.2399 49.12 31.0999 49.47C31.0199 49.72 30.9499 49.85 30.9299 50.05C30.9099 51.09 30.9499 52.21 30.9299 53.26C30.9099 53.62 31.3599 54.64 30.6399 54.72C30.3999 54.73 30.1999 54.55 30.1899 54.31C30.0799 53.75 29.9799 52.96 29.9899 52.31C29.9699 51.44 29.8299 50.55 29.9299 49.69C29.9999 49.33 30.1299 49.16 30.1099 48.85C29.9599 48.08 30.0699 47.51 30.2299 46.8C30.2399 46.55 30.2699 46.04 30.2799 45.78C30.2899 45.33 30.2199 44.71 30.3799 44.26C30.5199 43.51 30.8499 42.58 30.7899 41.88C30.7099 41.46 31.3199 40.57 31.3399 40.4C31.3899 40.23 31.3399 39.83 31.4799 39.35L31.7699 38.43L31.7999 38.32C32.0999 37.38 33.5499 37.85 33.2199 38.79H33.2399Z" fill="#E69F5E"/>
<path d="M59.2101 37.92C59.2801 38.2 59.3501 38.52 59.4101 38.9C59.4601 39.2 59.7001 39.51 59.7401 39.87C59.7801 40.19 59.5401 40.55 59.5801 40.91C59.6101 41.23 59.7401 41.56 59.7701 41.9C59.8001 42.23 59.8901 42.56 59.9201 42.9C59.9501 43.24 59.9401 43.57 59.9601 43.91C59.9801 44.25 59.9801 44.58 60.0001 44.92C60.0201 45.26 60.1701 45.59 60.1801 45.92C60.1901 46.25 60.0701 46.6 60.0801 46.94C60.0901 47.28 60.1501 47.62 60.1601 47.95C60.1701 48.28 60.1301 48.63 60.1301 48.96C60.1301 49.29 60.1101 49.64 60.1101 49.97C60.1101 50.3 60.2301 50.66 60.2301 50.99C60.2301 51.34 60.0401 51.67 60.0301 52C60.0201 52.35 60.0301 52.69 60.0201 53.01C59.9901 53.37 60.1001 53.72 60.0701 54.03C60.0301 54.41 59.8301 54.72 59.7601 55" fill="#F4B976"/>
<path d="M59.94 37.74C60.03 38.14 60.08 38.81 60.29 39.2C60.37 39.42 60.47 39.64 60.45 40.06C60.4 40.47 60.3 40.59 60.27 40.83C60.49 41.95 60.61 43.11 60.59 44.26C60.56 45 60.67 45.16 60.76 45.87C60.79 46.29 60.64 46.62 60.64 46.97C60.73 47.81 60.66 48.84 60.62 49.69C60.58 49.98 60.64 50.42 60.69 50.71C60.76 51.08 60.61 51.57 60.5 51.92C60.42 52.63 60.45 53.2 60.48 54.02C60.44 54.53 60.19 54.89 60.13 55.14C60.02 55.63 59.24 55.45 59.37 54.96C59.49 54.49 59.66 54.22 59.65 53.98C59.65 53.76 59.55 53.3 59.58 52.89C59.59 52.49 59.54 52.18 59.6 51.75C59.67 51.37 59.79 51.19 59.73 50.84C59.66 50.5 59.59 50.04 59.61 49.7C59.61 48.86 59.65 47.84 59.52 47.01C59.49 46.41 59.71 46.1 59.49 45.53C59.24 44.46 59.39 43.29 59.14 42.21C59.07 41.59 58.75 41.03 58.94 40.38C59.03 39.95 59.09 40.1 58.96 39.78C58.76 39.48 58.55 38.46 58.46 38.06C58.25 37.09 59.74 36.77 59.93 37.76L59.94 37.74Z" fill="#E69F5E"/>
<path d="M31.48 75.55C31.4 75.21 31.27 74.89 31.2 74.56C31.13 74.23 30.92 73.91 30.86 73.58C30.8 73.23 30.71 72.9 30.66 72.57C30.61 72.22 30.78 71.85 30.74 71.52C30.7 71.17 30.74 70.82 30.72 70.49C30.69 70.13 30.54 69.8 30.53 69.47C30.51 69.11 30.62 68.76 30.61 68.44C30.61 68.07 30.4 67.72 30.41 67.42C30.42 67.02 30.54 66.68 30.57 66.4C30.62 65.75 30.71 65.91 30.8 65.42" fill="#F4B976"/>
<path d="M30.75 75.72C30.63 75.17 30.45 74.44 30.25 73.88C30.17 73.5 30.14 73.2 30.08 72.84C29.99 72.57 30.1 71.9 30.15 71.71C30.15 71.13 30.26 70.59 30.1 69.98C29.89 69.15 30.34 68.56 30.02 67.71C29.95 67.33 30.07 66.92 30.15 66.59C30.24 65.99 30.31 65.82 30.47 65.35C30.52 64.94 31.17 65.01 31.13 65.42C31.13 65.65 30.97 66 30.97 66.1C30.95 66.49 30.86 66.97 30.83 67.34C30.83 67.71 31.13 68.15 31.07 68.61L31.02 69.26C31.01 69.69 31.22 69.97 31.26 70.46C31.27 70.99 31.33 71.36 31.32 71.86C31.2 72.48 31.35 72.72 31.47 73.27C31.54 73.62 31.6 73.65 31.77 74.06L32.2 75.37C32.5 76.39 30.94 76.77 30.74 75.72H30.75Z" fill="#E69F5E"/>
<path d="M55.54 78.67C55.69 78.49 56 78.26 56.17 77.85C56.29 77.58 56.38 77.24 56.51 76.88C56.61 76.58 56.5 76.19 56.6 75.85C56.69 75.54 56.76 75.21 56.85 74.87C56.94 74.55 57.22 74.28 57.31 73.94C57.4 73.6 57.29 73.24 57.37 72.91C57.45 72.58 57.63 72.28 57.7 71.94C57.77 71.6 57.82 71.27 57.89 70.94C57.96 70.61 57.97 70.26 58.03 69.93C58.09 69.6 58.24 69.27 58.3 68.94C58.36 68.61 58.31 68.24 58.37 67.92C58.42 67.57 58.72 67.27 58.76 66.94C58.81 66.58 58.58 66.21 58.61 65.9C58.64 65.53 58.71 65.2 58.72 64.9" fill="#F4B976"/>
<path d="M54.9601 78.18C55.6501 77.52 55.4901 77.49 55.8201 76.68C55.8601 76.56 55.8401 76.46 55.8501 76.24C55.8301 75.94 55.9801 75.48 56.0701 75.17C56.1501 74.87 56.2701 74.4 56.4501 74.17C56.5901 73.93 56.6701 73.89 56.7001 73.66C56.7201 73.48 56.6501 73.04 56.8001 72.61C56.9201 72.25 57.0601 72 57.1101 71.81C57.2901 71.06 57.3701 70.34 57.5401 69.57L57.6801 69.13C57.8901 68.58 57.7001 67.81 58.0401 67.29C58.1601 67.04 58.2701 66.98 58.2501 66.74C58.2201 66.51 58.0901 66.14 58.1201 65.86C58.1401 65.72 58.2401 64.94 58.2601 64.8C58.3301 64.24 59.1901 64.33 59.1401 64.9L59.0601 65.83C59.0301 66.11 59.1601 66.28 59.2001 66.61C59.3401 67.08 58.9401 67.62 58.8401 68.02C58.8201 68.45 58.8601 69 58.7001 69.45C58.4401 70.32 58.4501 71.2 58.2601 72.08C58.0501 72.9 57.8801 72.85 57.9601 73.72C58.0101 74.2 57.5901 74.71 57.4601 75.11L57.3501 75.56C57.3101 75.73 57.2101 76.07 57.2201 76.26C57.2601 76.54 57.2101 77.08 57.0701 77.38C56.9501 77.69 56.9001 77.99 56.7401 78.33C56.5401 78.74 56.1801 79.05 56.0701 79.19C55.4201 79.97 54.2401 78.94 54.9501 78.19L54.9601 78.18Z" fill="#E69F5E"/>
<path d="M18.6199 48.19C18.5599 48.47 18.6699 48.83 18.6399 49.21C18.6099 49.52 18.4899 49.85 18.4799 50.21C18.4599 50.53 18.4199 50.87 18.4199 51.22C18.4199 51.57 18.5099 51.89 18.5199 52.23C18.5299 52.57 18.4599 52.91 18.4699 53.24C18.4799 53.59 18.4099 53.93 18.4299 54.25C18.4499 54.61 18.6199 54.94 18.6499 55.25C18.6899 55.66 18.7899 55.98 18.8299 56.23" fill="#F4B976"/>
<path d="M19.3499 48.34C19.3499 48.34 19.3699 48.78 19.3199 49.26C19.1399 50.02 19.0399 50.53 18.9699 51.21C18.9399 51.43 19.0099 51.77 18.9999 52.2L18.7799 54.21C18.7599 54.46 18.8899 54.75 18.9399 55.18L19.0599 56.16C19.0999 56.46 18.6299 56.55 18.5699 56.25L18.3199 55.24C18.2799 55 18.0799 54.68 18.0399 54.24L17.9999 52.2C17.9799 51.95 17.8599 51.64 17.8399 51.18C17.8099 50.66 17.8799 49.51 17.9399 49.12C17.9299 48.75 17.7999 48.53 17.8699 48.02C18.0799 47.06 19.5399 47.37 19.3399 48.34H19.3499Z" fill="#E69F5E"/>
<path d="M19.7301 69.47C19.6401 69.14 19.4401 68.82 19.3701 68.47C19.3001 68.12 19.1601 67.79 19.1001 67.44C19.0401 67.09 19.0301 66.73 18.9901 66.38C18.9501 66.03 18.8701 65.67 18.8301 65.33C18.7901 64.97 18.7901 64.61 18.7701 64.27C18.7401 63.89 18.8801 63.52 18.8601 63.19C18.8401 62.79 18.6801 62.44 18.6701 62.14C18.6401 61.49 18.7201 61.61 18.7201 61.09" fill="#F4B976"/>
<path d="M19 69.66C18.54 68.52 18.41 66.7 18.32 65.37C18.29 64.62 18.32 63.81 18.46 63.21C18.47 62.92 18.35 62.62 18.33 62.16C18.31 61.81 18.42 61.42 18.44 61.08C18.44 60.93 18.57 60.82 18.72 60.83C19.11 60.87 18.96 61.4 18.96 61.65C18.91 62.2 19.14 62.52 19.23 63.18C19.26 63.66 19.15 63.99 19.2 64.23C19.38 65.67 19.56 66.94 20.03 68.34C20.07 68.52 20.32 68.89 20.46 69.36C20.78 70.42 19.13 70.78 18.99 69.68L19 69.66Z" fill="#E69F5E"/>
<path d="M76.83 49.19C76.88 49.48 77.05 49.78 77.08 50.13C77.11 50.44 77.14 50.77 77.15 51.1C77.16 51.42 77.04 51.75 77.04 52.08C77.04 52.41 77.19 52.73 77.19 53.06C77.19 53.39 76.99 53.72 76.98 54.03C76.97 54.37 77.06 54.7 77.04 55.01C77.02 55.37 77 55.7 76.98 55.98C76.94 56.57 76.93 56.46 76.88 56.94" fill="#F4B976"/>
<path d="M77.57 49.06C77.57 49.19 77.75 49.58 77.78 50.08L77.8 51.1C77.78 51.6 77.65 51.9 77.64 52.08C77.61 52.24 77.7399 52.56 77.7399 53.06C77.6899 53.58 77.48 53.88 77.48 54.03C77.52 54.81 77.4 56.14 77.23 56.96C77.18 57.38 76.5299 57.32 76.5599 56.9C76.5699 56.54 76.61 56.25 76.61 55.93C76.64 55.07 76.58 54.86 76.5 53.97C76.54 53.47 76.69 53.17 76.66 53.04C76.66 52.88 76.5 52.59 76.46 52.09C76.53 51.05 76.52 51.1 76.39 50.19C76.37 50.03 76.23 49.83 76.1 49.31C75.69 48.11 77.59 47.79 77.58 49.05L77.57 49.06Z" fill="#E69F5E"/>
<path d="M73.3099 71.02C73.4499 70.69 73.6699 70.39 73.7999 70.06C73.9299 69.73 74.0299 69.38 74.1499 69.05C74.2699 68.72 74.4099 68.37 74.5299 68.05C74.6499 67.7 74.6699 67.33 74.7799 67.01C74.8999 66.65 75.2099 66.38 75.3099 66.06C75.4299 65.69 75.4099 65.31 75.4999 65C75.6199 64.61 75.6299 64.24 75.7199 63.95C75.8999 63.3 75.9599 63.47 76.0899 62.95" fill="#F4B976"/>
<path d="M72.62 70.74C72.83 70.3 73.06 70.03 73.16 69.82C73.36 69.33 73.77 68.34 73.99 67.86C74.1 67.63 74.13 67.28 74.29 66.84C74.5 66.34 74.82 66.09 74.87 65.93C75.11 65.03 75.31 63.84 75.81 62.89C75.91 62.54 76.46 62.68 76.38 63.03C76.05 64.04 76.07 64.04 75.9 65.13C75.84 65.38 75.88 65.77 75.75 66.22C75.56 66.74 75.3 66.99 75.27 67.18C75.18 68.05 74.69 69.43 74.44 70.33C74.03 71.1 74 72.01 73.06 71.83C72.6 71.7 72.38 71.15 72.61 70.74H72.62Z" fill="#E69F5E"/>
<path d="M41.84 58.79C42.1 58.81 42.44 58.88 42.83 58.9C43.13 58.92 43.47 58.86 43.83 58.88C44.14 58.89 44.48 58.89 44.82 58.9C45.14 58.91 45.47 59 45.81 59C46.15 59 46.47 59.01 46.81 59.02C47.15 59.03 47.47 58.85 47.81 58.85C48.15 58.85 48.48 58.93 48.81 58.92C49.11 58.92 49.19 59.14 49.14 59.43C49.09 59.69 49.26 60.09 49.12 60.45C49.01 60.74 48.76 61 48.57 61.29C48.39 61.55 48.25 61.88 47.99 62.11C47.75 62.32 47.43 62.45 47.11 62.6C46.83 62.73 46.5 62.78 46.15 62.85C45.85 62.91 45.52 62.88 45.16 62.88C44.8 62.88 44.46 63.03 44.16 62.98C43.81 62.91 43.48 62.81 43.2 62.67C42.89 62.51 42.67 62.23 42.45 62.01C42.21 61.77 42.12 61.45 41.97 61.17C41.8 60.87 41.5 60.65 41.41 60.36C41.3 60.01 41.38 59.65 41.34 59.38C41.29 59.02 41.49 58.76 41.85 58.78L41.84 58.79Z" fill="#C15F29"/>
<path d="M41.84 58.79C42.1 58.81 42.44 58.88 42.83 58.9C43.13 58.92 43.47 58.86 43.83 58.88C44.14 58.89 44.48 58.89 44.82 58.9C45.14 58.91 45.47 59 45.81 59C46.15 59 46.47 59.01 46.81 59.02C47.15 59.03 47.47 58.85 47.81 58.85C48.15 58.85 48.48 58.93 48.81 58.92C49.11 58.92 49.19 59.14 49.14 59.43C49.09 59.69 49.26 60.09 49.12 60.45C49.01 60.74 48.76 61 48.57 61.29C48.39 61.55 48.25 61.88 47.99 62.11C47.75 62.32 47.43 62.45 47.11 62.6C46.83 62.73 46.5 62.78 46.15 62.85C45.85 62.91 45.52 62.88 45.16 62.88C44.8 62.88 44.46 63.03 44.16 62.98C43.81 62.91 43.48 62.81 43.2 62.67C42.89 62.51 42.67 62.23 42.45 62.01C42.21 61.77 42.12 61.45 41.97 61.17C41.8 60.87 41.5 60.65 41.41 60.36C41.3 60.01 41.38 59.65 41.34 59.38C41.29 59.02 41.49 58.76 41.85 58.78L41.84 58.79Z" stroke="#A05A20" stroke-width="1.5" stroke-linecap="round" stroke-linejoin="round"/>
</g>
<defs>
<linearGradient id="paint0_linear_5602_25820" x1="48.3699" y1="33.17" x2="48.3699" y2="80.7" gradientUnits="userSpaceOnUse">
<stop stop-color="#F5BE7B"/>
<stop offset="1" stop-color="#F2A966"/>
</linearGradient>
<radialGradient id="paint1_radial_5602_25820" cx="0" cy="0" r="1" gradientUnits="userSpaceOnUse" gradientTransform="translate(33.73 59.58) scale(4.24)">
<stop stop-color="#F2A157"/>
<stop offset="1" stop-color="#DB8F4F" stop-opacity="0"/>
</radialGradient>
<radialGradient id="paint2_radial_5602_25820" cx="0" cy="0" r="1" gradientUnits="userSpaceOnUse" gradientTransform="translate(57.3099 60.5) scale(4.24)">
<stop stop-color="#F2A157"/>
<stop offset="1" stop-color="#DB8F4F" stop-opacity="0"/>
</radialGradient>
<clipPath id="clip0_5602_25820">
<rect width="100" height="100" fill="white"/>
</clipPath>
</defs>
</svg>
