<svg width="100" height="100" viewBox="0 0 100 100" fill="none" xmlns="http://www.w3.org/2000/svg">
<g clip-path="url(#clip0_5602_25818)">
<rect width="100" height="100" fill="#D4C2F8"/>
<path d="M47.1201 78.84C46.8001 78.84 46.4601 78.78 46.0901 78.78C45.7601 78.78 45.4201 78.69 45.0601 78.7C44.7301 78.7 44.3901 78.85 44.0301 78.86C43.7001 78.86 43.3501 78.83 43.0001 78.85C42.6501 78.87 42.3201 78.84 41.9701 78.85C41.6201 78.86 41.2901 78.85 40.9401 78.88C40.5901 78.91 40.2601 78.98 39.9201 79.02C39.5801 79.06 39.2601 79.21 38.9101 79.26C38.5601 79.31 38.2301 79.29 37.8801 79.35C37.5301 79.41 37.2001 79.41 36.8501 79.47C36.5001 79.53 36.1701 79.58 35.8301 79.66C35.4901 79.74 35.1401 79.75 34.8101 79.83C34.4801 79.91 34.1401 79.99 33.8101 80.09C33.4801 80.19 33.1901 80.42 32.8701 80.54C32.5501 80.66 32.2001 80.7 31.8701 80.82C31.5401 80.94 31.2501 81.12 30.9301 81.26C30.6101 81.4 30.3401 81.61 30.0201 81.76C29.7001 81.91 29.4301 82.11 29.1301 82.28C28.8301 82.45 28.4201 82.42 28.1201 82.6C27.8201 82.78 27.5401 82.97 27.2501 83.16C26.9601 83.35 26.6401 83.5 26.3601 83.7C26.0801 83.9 25.8401 84.16 25.5701 84.38C25.3001 84.6 25.1701 84.97 24.9001 85.19C24.6301 85.41 24.3701 85.62 24.1201 85.86C23.8701 86.1 23.4501 86.16 23.2101 86.41C22.9701 86.66 22.7901 86.96 22.5501 87.22C22.3101 87.48 22.1001 87.74 21.8801 88.01C21.6601 88.28 21.6101 88.66 21.4001 88.94C21.1901 89.22 20.8001 89.35 20.6001 89.64C20.4001 89.93 20.2401 90.23 20.0501 90.52C19.8601 90.81 19.7501 91.14 19.5701 91.44C19.3901 91.74 19.3001 92.07 19.1301 92.38C18.9601 92.69 18.7101 92.93 18.5501 93.24C18.3901 93.55 18.1601 93.82 18.0101 94.13C17.8601 94.44 17.9001 94.83 17.7701 95.15C17.6401 95.47 17.3701 95.73 17.2501 96.05C17.1301 96.37 17.1401 96.74 17.0201 97.07C16.9001 97.4 16.8801 97.74 16.7801 98.08C16.6801 98.42 16.4001 98.68 16.3001 99.02C16.2001 99.36 16.1501 99.81 16.0601 100.15C16.5501 100.32 16.6201 100.06 17.1301 100.06C17.6401 100.06 17.6501 99.99 18.1701 99.99C18.6901 99.99 18.6901 100.19 19.2001 100.19C19.7101 100.19 19.7201 100.06 20.2301 100.06C20.7401 100.06 20.7501 100.04 21.2601 100.04C21.7701 100.04 21.7801 100.15 22.2901 100.15C22.8001 100.15 22.8101 100.17 23.3201 100.17C23.8301 100.17 23.8401 100.09 24.3501 100.09C24.8601 100.09 24.8701 100.1 25.3801 100.1C25.8901 100.1 25.9001 100.13 26.4201 100.13C26.9401 100.13 26.9401 99.9 27.4601 99.9C27.9801 99.9 27.9701 99.94 28.4901 99.94C29.0101 99.94 29.0001 100.13 29.5201 100.13C30.0401 100.13 30.0401 99.96 30.5501 99.96C31.0601 99.96 31.0701 100.17 31.5801 100.17C32.0901 100.17 32.1001 99.9 32.6101 99.9C33.1201 99.9 33.1301 100.08 33.6401 100.08C34.1501 100.08 34.1601 99.99 34.6801 99.99C35.2001 99.99 35.2001 100.09 35.7201 100.09C36.2401 100.09 36.2401 99.92 36.7501 99.92C37.2601 99.92 37.2701 99.96 37.7801 99.96C38.2901 99.96 38.3001 100.19 38.8101 100.19C39.3201 100.19 39.3301 100.01 39.8401 100.01C40.3501 100.01 40.3601 100.01 40.8701 100.01C41.3801 100.01 41.3901 100.01 41.9001 100.01C42.4101 100.01 42.4201 100.01 42.9301 100.01C43.4401 100.01 43.4501 100.18 43.9601 100.18C44.4701 100.18 44.4801 100.1 45.0001 100.1C45.5201 100.1 45.5201 100.1 46.0401 100.1C46.5601 100.1 46.5601 100.19 47.0801 100.19C47.6001 100.19 47.6001 100.08 48.1201 100.08C48.6401 100.08 48.6401 100.12 49.1501 100.12C49.6601 100.12 49.6701 100.16 50.1801 100.16C50.6901 100.16 50.7001 100.18 51.2201 100.18C51.7401 100.18 51.7401 100.2 52.2601 100.2C52.7801 100.2 52.7801 100 53.3001 100C53.8201 100 53.8201 100.13 54.3401 100.13C54.8601 100.13 54.8601 100.15 55.3801 100.15C55.9001 100.15 55.9001 99.95 56.4201 99.95C56.9401 99.95 56.9401 100.14 57.4601 100.14C57.9801 100.14 57.9801 100.07 58.5001 100.07C59.0201 100.07 59.0201 100.16 59.5401 100.16C60.0601 100.16 60.0601 100.1 60.5801 100.1C61.1001 100.1 61.1001 100.17 61.6201 100.17C62.1401 100.17 62.1401 100.09 62.6501 100.09C63.1601 100.09 63.1701 100.09 63.6801 100.09C64.1901 100.09 64.2001 100.16 64.7201 100.16C65.2401 100.16 65.2401 100.03 65.7601 100.03C66.2801 100.03 66.2801 100.1 66.8001 100.1C67.3201 100.1 67.3201 100.08 67.8401 100.08C68.3601 100.08 68.3601 100.14 68.8801 100.14C69.4001 100.14 69.4001 100.14 69.9201 100.14C70.4401 100.14 70.4401 100.07 70.9601 100.07C71.4801 100.07 71.4801 100.03 72.0001 100.03C72.5201 100.03 72.5201 99.9 73.0401 99.9C73.5601 99.9 73.5601 99.99 74.0801 99.99C74.6001 99.99 74.6001 100.06 75.1301 100.06C75.6601 100.06 75.6901 100.22 76.1801 100.04C76.6701 99.86 76.1001 99.67 75.9101 99.04C75.8201 98.77 75.7801 98.42 75.6501 98.05C75.5501 97.76 75.2201 97.52 75.0901 97.17C74.9701 96.87 74.8901 96.54 74.7501 96.21C74.6201 95.91 74.6301 95.53 74.4801 95.21C74.3401 94.91 74.0201 94.69 73.8501 94.38C73.7001 94.09 73.6701 93.72 73.4901 93.41C73.3101 93.1 73.2401 92.77 73.0601 92.48C72.8801 92.19 72.7101 91.9 72.5201 91.61C72.3301 91.32 72.1001 91.08 71.9001 90.79C71.7001 90.5 71.4001 90.32 71.1901 90.04C70.9801 89.76 70.7701 89.51 70.5501 89.25C70.3301 88.99 70.1601 88.69 69.9301 88.43C69.7001 88.17 69.6001 87.81 69.3601 87.56C69.1201 87.31 68.7701 87.18 68.5201 86.94C68.2701 86.7 68.0601 86.44 67.8101 86.2C67.5601 85.96 67.3401 85.7 67.0801 85.48C66.8201 85.26 66.6001 84.98 66.3301 84.77C66.0601 84.56 65.7301 84.44 65.4501 84.23C65.1701 84.02 64.8601 83.88 64.5801 83.69C64.3001 83.5 64.0801 83.21 63.7901 83.03C63.5001 82.85 63.1701 82.74 62.8701 82.57C62.5701 82.4 62.2601 82.27 61.9501 82.11C61.6401 81.95 61.3101 81.87 61.0001 81.72C60.6901 81.57 60.4001 81.41 60.0801 81.27C59.7601 81.13 59.5301 80.82 59.2101 80.69C58.8901 80.56 58.4801 80.72 58.1501 80.6C57.8201 80.48 57.5701 80.21 57.2401 80.1C56.9101 79.99 56.6101 79.84 56.2701 79.75C55.9301 79.66 55.5601 79.79 55.2201 79.71C54.8801 79.63 54.5501 79.6 54.2101 79.53C53.8701 79.46 53.5901 79.15 53.2501 79.09C52.9101 79.03 52.5401 79.24 52.2001 79.19C51.8601 79.14 51.5501 78.95 51.2001 78.92C50.8501 78.89 50.5201 78.85 50.1801 78.83C49.8401 78.81 49.5001 78.86 49.1501 78.84C48.8001 78.82 48.4701 78.87 48.1201 78.87C47.7701 78.87 47.4401 78.82 47.0901 78.82L47.1201 78.84Z" fill="white"/>
<path d="M47.1201 78.84C46.8001 78.84 46.4601 78.78 46.0901 78.78C45.7601 78.78 45.4201 78.69 45.0601 78.7C44.7301 78.7 44.3901 78.85 44.0301 78.86C43.7001 78.86 43.3501 78.83 43.0001 78.85C42.6501 78.87 42.3201 78.84 41.9701 78.85C41.6201 78.86 41.2901 78.85 40.9401 78.88C40.5901 78.91 40.2601 78.98 39.9201 79.02C39.5801 79.06 39.2601 79.21 38.9101 79.26C38.5601 79.31 38.2301 79.29 37.8801 79.35C37.5301 79.41 37.2001 79.41 36.8501 79.47C36.5001 79.53 36.1701 79.58 35.8301 79.66C35.4901 79.74 35.1401 79.75 34.8101 79.83C34.4801 79.91 34.1401 79.99 33.8101 80.09C33.4801 80.19 33.1901 80.42 32.8701 80.54C32.5501 80.66 32.2001 80.7 31.8701 80.82C31.5401 80.94 31.2501 81.12 30.9301 81.26C30.6101 81.4 30.3401 81.61 30.0201 81.76C29.7001 81.91 29.4301 82.11 29.1301 82.28C28.8301 82.45 28.4201 82.42 28.1201 82.6C27.8201 82.78 27.5401 82.97 27.2501 83.16C26.9601 83.35 26.6401 83.5 26.3601 83.7C26.0801 83.9 25.8401 84.16 25.5701 84.38C25.3001 84.6 25.1701 84.97 24.9001 85.19C24.6301 85.41 24.3701 85.62 24.1201 85.86C23.8701 86.1 23.4501 86.16 23.2101 86.41C22.9701 86.66 22.7901 86.96 22.5501 87.22C22.3101 87.48 22.1001 87.74 21.8801 88.01C21.6601 88.28 21.6101 88.66 21.4001 88.94C21.1901 89.22 20.8001 89.35 20.6001 89.64C20.4001 89.93 20.2401 90.23 20.0501 90.52C19.8601 90.81 19.7501 91.14 19.5701 91.44C19.3901 91.74 19.3001 92.07 19.1301 92.38C18.9601 92.69 18.7101 92.93 18.5501 93.24C18.3901 93.55 18.1601 93.82 18.0101 94.13C17.8601 94.44 17.9001 94.83 17.7701 95.15C17.6401 95.47 17.3701 95.73 17.2501 96.05C17.1301 96.37 17.1401 96.74 17.0201 97.07C16.9001 97.4 16.8801 97.74 16.7801 98.08C16.6801 98.42 16.4001 98.68 16.3001 99.02C16.2001 99.36 16.1501 99.81 16.0601 100.15C16.5501 100.32 16.6201 100.06 17.1301 100.06C17.6401 100.06 17.6501 99.99 18.1701 99.99C18.6901 99.99 18.6901 100.19 19.2001 100.19C19.7101 100.19 19.7201 100.06 20.2301 100.06C20.7401 100.06 20.7501 100.04 21.2601 100.04C21.7701 100.04 21.7801 100.15 22.2901 100.15C22.8001 100.15 22.8101 100.17 23.3201 100.17C23.8301 100.17 23.8401 100.09 24.3501 100.09C24.8601 100.09 24.8701 100.1 25.3801 100.1C25.8901 100.1 25.9001 100.13 26.4201 100.13C26.9401 100.13 26.9401 99.9 27.4601 99.9C27.9801 99.9 27.9701 99.94 28.4901 99.94C29.0101 99.94 29.0001 100.13 29.5201 100.13C30.0401 100.13 30.0401 99.96 30.5501 99.96C31.0601 99.96 31.0701 100.17 31.5801 100.17C32.0901 100.17 32.1001 99.9 32.6101 99.9C33.1201 99.9 33.1301 100.08 33.6401 100.08C34.1501 100.08 34.1601 99.99 34.6801 99.99C35.2001 99.99 35.2001 100.09 35.7201 100.09C36.2401 100.09 36.2401 99.92 36.7501 99.92C37.2601 99.92 37.2701 99.96 37.7801 99.96C38.2901 99.96 38.3001 100.19 38.8101 100.19C39.3201 100.19 39.3301 100.01 39.8401 100.01C40.3501 100.01 40.3601 100.01 40.8701 100.01C41.3801 100.01 41.3901 100.01 41.9001 100.01C42.4101 100.01 42.4201 100.01 42.9301 100.01C43.4401 100.01 43.4501 100.18 43.9601 100.18C44.4701 100.18 44.4801 100.1 45.0001 100.1C45.5201 100.1 45.5201 100.1 46.0401 100.1C46.5601 100.1 46.5601 100.19 47.0801 100.19C47.6001 100.19 47.6001 100.08 48.1201 100.08C48.6401 100.08 48.6401 100.12 49.1501 100.12C49.6601 100.12 49.6701 100.16 50.1801 100.16C50.6901 100.16 50.7001 100.18 51.2201 100.18C51.7401 100.18 51.7401 100.2 52.2601 100.2C52.7801 100.2 52.7801 100 53.3001 100C53.8201 100 53.8201 100.13 54.3401 100.13C54.8601 100.13 54.8601 100.15 55.3801 100.15C55.9001 100.15 55.9001 99.95 56.4201 99.95C56.9401 99.95 56.9401 100.14 57.4601 100.14C57.9801 100.14 57.9801 100.07 58.5001 100.07C59.0201 100.07 59.0201 100.16 59.5401 100.16C60.0601 100.16 60.0601 100.1 60.5801 100.1C61.1001 100.1 61.1001 100.17 61.6201 100.17C62.1401 100.17 62.1401 100.09 62.6501 100.09C63.1601 100.09 63.1701 100.09 63.6801 100.09C64.1901 100.09 64.2001 100.16 64.7201 100.16C65.2401 100.16 65.2401 100.03 65.7601 100.03C66.2801 100.03 66.2801 100.1 66.8001 100.1C67.3201 100.1 67.3201 100.08 67.8401 100.08C68.3601 100.08 68.3601 100.14 68.8801 100.14C69.4001 100.14 69.4001 100.14 69.9201 100.14C70.4401 100.14 70.4401 100.07 70.9601 100.07C71.4801 100.07 71.4801 100.03 72.0001 100.03C72.5201 100.03 72.5201 99.9 73.0401 99.9C73.5601 99.9 73.5601 99.99 74.0801 99.99C74.6001 99.99 74.6001 100.06 75.1301 100.06C75.6601 100.06 75.6901 100.22 76.1801 100.04C76.6701 99.86 76.1001 99.67 75.9101 99.04C75.8201 98.77 75.7801 98.42 75.6501 98.05C75.5501 97.76 75.2201 97.52 75.0901 97.17C74.9701 96.87 74.8901 96.54 74.7501 96.21C74.6201 95.91 74.6301 95.53 74.4801 95.21C74.3401 94.91 74.0201 94.69 73.8501 94.38C73.7001 94.09 73.6701 93.72 73.4901 93.41C73.3101 93.1 73.2401 92.77 73.0601 92.48C72.8801 92.19 72.7101 91.9 72.5201 91.61C72.3301 91.32 72.1001 91.08 71.9001 90.79C71.7001 90.5 71.4001 90.32 71.1901 90.04C70.9801 89.76 70.7701 89.51 70.5501 89.25C70.3301 88.99 70.1601 88.69 69.9301 88.43C69.7001 88.17 69.6001 87.81 69.3601 87.56C69.1201 87.31 68.7701 87.18 68.5201 86.94C68.2701 86.7 68.0601 86.44 67.8101 86.2C67.5601 85.96 67.3401 85.7 67.0801 85.48C66.8201 85.26 66.6001 84.98 66.3301 84.77C66.0601 84.56 65.7301 84.44 65.4501 84.23C65.1701 84.02 64.8601 83.88 64.5801 83.69C64.3001 83.5 64.0801 83.21 63.7901 83.03C63.5001 82.85 63.1701 82.74 62.8701 82.57C62.5701 82.4 62.2601 82.27 61.9501 82.11C61.6401 81.95 61.3101 81.87 61.0001 81.72C60.6901 81.57 60.4001 81.41 60.0801 81.27C59.7601 81.13 59.5301 80.82 59.2101 80.69C58.8901 80.56 58.4801 80.72 58.1501 80.6C57.8201 80.48 57.5701 80.21 57.2401 80.1C56.9101 79.99 56.6101 79.84 56.2701 79.75C55.9301 79.66 55.5601 79.79 55.2201 79.71C54.8801 79.63 54.5501 79.6 54.2101 79.53C53.8701 79.46 53.5901 79.15 53.2501 79.09C52.9101 79.03 52.5401 79.24 52.2001 79.19C51.8601 79.14 51.5501 78.95 51.2001 78.92C50.8501 78.89 50.5201 78.85 50.1801 78.83C49.8401 78.81 49.5001 78.86 49.1501 78.84C48.8001 78.82 48.4701 78.87 48.1201 78.87C47.7701 78.87 47.4401 78.82 47.0901 78.82L47.1201 78.84Z" stroke="#E1E3E5" stroke-width="1.5" stroke-linecap="round" stroke-linejoin="round"/>
<path d="M38.24 77.37C38.27 77.73 38.36 78.01 38.44 78.34C38.53 78.68 38.68 78.98 38.83 79.28C38.98 79.58 39.16 79.87 39.37 80.14C39.58 80.41 39.66 80.82 39.91 81.05C40.16 81.28 40.49 81.44 40.78 81.63C41.07 81.82 41.45 81.82 41.77 81.97C42.09 82.12 42.37 82.28 42.69 82.41C43.01 82.54 43.3 82.73 43.64 82.83C43.98 82.93 44.34 82.86 44.68 82.94C45.02 83.02 45.31 83.32 45.65 83.37C45.99 83.42 46.35 83.43 46.69 83.46C47.03 83.49 47.39 83.37 47.75 83.36C48.11 83.35 48.46 83.44 48.81 83.39C49.16 83.34 49.47 83.12 49.82 83.03C50.17 82.94 50.55 83.01 50.88 82.89C51.21 82.77 51.54 82.61 51.86 82.46C52.18 82.31 52.43 82.04 52.73 81.84C53.03 81.64 53.36 81.5 53.63 81.28C53.9 81.06 54.07 80.72 54.31 80.46C54.55 80.2 54.75 79.92 54.94 79.62C55.13 79.32 55.48 79.1 55.62 78.78C55.76 78.46 55.77 78.08 55.86 77.73C55.95 77.38 56.02 76.9 56.06 76.54C55.56 76.38 55.49 76.61 54.97 76.63C54.45 76.65 54.45 76.69 53.93 76.71C53.41 76.73 53.41 76.82 52.89 76.84C52.37 76.86 52.36 76.73 51.84 76.75C51.32 76.77 51.32 76.82 50.8 76.84C50.28 76.86 50.28 76.87 49.76 76.89C49.24 76.91 49.24 77.02 48.72 77.04C48.2 77.06 48.19 76.98 47.67 77C47.15 77.02 47.15 76.98 46.62 77C46.09 77.02 46.09 76.93 45.57 76.95C45.05 76.97 45.05 77.1 44.53 77.12C44.01 77.14 44 77.05 43.48 77.06C42.96 77.07 42.96 77.22 42.44 77.24C41.92 77.26 41.91 77.04 41.38 77.06C40.85 77.08 40.86 77.28 40.34 77.3C39.82 77.32 39.81 77.34 39.28 77.32C38.75 77.3 38.74 77.18 38.24 77.37Z" fill="#C48445"/>
<path d="M38.24 77.37C38.27 77.73 38.36 78.01 38.44 78.34C38.53 78.68 38.68 78.98 38.83 79.28C38.98 79.58 39.16 79.87 39.37 80.14C39.58 80.41 39.66 80.82 39.91 81.05C40.16 81.28 40.49 81.44 40.78 81.63C41.07 81.82 41.45 81.82 41.77 81.97C42.09 82.12 42.37 82.28 42.69 82.41C43.01 82.54 43.3 82.73 43.64 82.83C43.98 82.93 44.34 82.86 44.68 82.94C45.02 83.02 45.31 83.32 45.65 83.37C45.99 83.42 46.35 83.43 46.69 83.46C47.03 83.49 47.39 83.37 47.75 83.36C48.11 83.35 48.46 83.44 48.81 83.39C49.16 83.34 49.47 83.12 49.82 83.03C50.17 82.94 50.55 83.01 50.88 82.89C51.21 82.77 51.54 82.61 51.86 82.46C52.18 82.31 52.43 82.04 52.73 81.84C53.03 81.64 53.36 81.5 53.63 81.28C53.9 81.06 54.07 80.72 54.31 80.46C54.55 80.2 54.75 79.92 54.94 79.62C55.13 79.32 55.48 79.1 55.62 78.78C55.76 78.46 55.77 78.08 55.86 77.73C55.95 77.38 56.02 76.9 56.06 76.54C55.56 76.38 55.49 76.61 54.97 76.63C54.45 76.65 54.45 76.69 53.93 76.71C53.41 76.73 53.41 76.82 52.89 76.84C52.37 76.86 52.36 76.73 51.84 76.75C51.32 76.77 51.32 76.82 50.8 76.84C50.28 76.86 50.28 76.87 49.76 76.89C49.24 76.91 49.24 77.02 48.72 77.04C48.2 77.06 48.19 76.98 47.67 77C47.15 77.02 47.15 76.98 46.62 77C46.09 77.02 46.09 76.93 45.57 76.95C45.05 76.97 45.05 77.1 44.53 77.12C44.01 77.14 44 77.05 43.48 77.06C42.96 77.07 42.96 77.22 42.44 77.24C41.92 77.26 41.91 77.04 41.38 77.06C40.85 77.08 40.86 77.28 40.34 77.3C39.82 77.32 39.81 77.34 39.28 77.32C38.75 77.3 38.74 77.18 38.24 77.37Z" stroke="#A3642F" stroke-width="1.5" stroke-linecap="round" stroke-linejoin="round"/>
<path d="M37.57 29.83C37.09 29.67 37.13 29.9 36.56 29.64C36.3 29.52 35.98 29.36 35.65 29.18C35.37 29.03 35.16 28.71 34.86 28.52C34.59 28.35 34.35 28.11 34.06 27.91C33.8 27.72 33.56 27.48 33.3 27.26C33.04 27.04 32.69 26.94 32.46 26.69C32.23 26.44 31.9 26.28 31.69 26.01C31.48 25.74 31.52 25.31 31.34 25.02C31.16 24.73 31 24.46 30.85 24.15C30.7 23.84 30.51 23.57 30.42 23.24C30.33 22.91 30.35 22.58 30.29 22.24C30.23 21.9 30.2 21.59 30.19 21.25C30.19 20.92 30.05 20.59 30.08 20.24C30.11 19.92 30.31 19.61 30.38 19.26C30.44 18.94 30.52 18.62 30.62 18.29C30.71 17.98 30.83 17.67 30.95 17.35C31.07 17.05 31.19 16.74 31.34 16.42C31.48 16.12 31.49 15.75 31.66 15.44C31.83 15.13 32.05 14.85 32.23 14.57C32.43 14.27 32.57 13.94 32.79 13.68C33.02 13.41 33.42 13.31 33.66 13.07C33.9 12.83 34.09 12.51 34.36 12.3C34.63 12.09 34.96 11.95 35.25 11.77C35.54 11.59 35.81 11.36 36.12 11.21C36.43 11.06 36.7 10.79 37.03 10.67C37.36 10.55 37.75 10.64 38.08 10.55C38.41 10.46 38.74 10.32 39.08 10.27C39.42 10.22 39.77 10.23 40.12 10.2C40.47 10.17 40.81 10.18 41.15 10.18C41.49 10.18 41.84 10.1 42.19 10.11C42.54 10.12 42.88 10.17 43.22 10.21C43.56 10.25 43.9 10.33 44.24 10.38C44.58 10.43 44.93 10.48 45.27 10.54C45.61 10.6 45.93 10.75 46.27 10.83C46.61 10.91 46.97 10.9 47.3 10.99C47.63 11.08 48.01 11.07 48.34 11.17C48.68 11.28 49.03 11.35 49.34 11.47C49.68 11.59 49.94 11.89 50.25 12.01C50.6 12.14 50.98 12.14 51.27 12.26C51.63 12.42 51.92 12.64 52.19 12.76C52.78 13.03 52.63 13.04 53.11 13.22C53.59 13.4 53.59 13.38 54.08 13.53C54.57 13.68 54.53 13.82 55.02 13.97C55.51 14.12 55.54 14.03 56.03 14.18C56.52 14.33 56.52 14.32 57.01 14.46C57.5 14.6 57.55 14.46 58.04 14.61C58.53 14.76 58.46 14.98 58.95 15.12C59.44 15.26 59.43 15.31 59.92 15.46C60.41 15.61 60.49 15.34 60.98 15.49C61.47 15.64 61.46 15.67 61.95 15.82C62.44 15.97 62.43 15.99 62.92 16.14C63.41 16.29 63.35 16.5 63.84 16.65C64.33 16.8 64.4 16.57 64.89 16.71C65.38 16.85 65.35 16.95 65.84 17.1C66.33 17.25 66.29 17.38 66.78 17.53C67.27 17.68 67.33 17.48 67.82 17.63C68.31 17.78 68.31 17.77 68.81 17.92C69.31 18.07 69.3 18.06 69.79 18.21C70.28 18.36 70.28 18.36 70.77 18.51C71.26 18.66 71.22 18.8 71.71 18.95C72.2 19.1 72.24 18.99 72.73 19.14C73.22 19.29 73.16 19.58 73.67 19.66C74.18 19.74 74.06 19.38 74.68 19.28C74.97 19.24 75.32 19.31 75.71 19.28C76.02 19.25 76.36 19.11 76.72 19.1C77.04 19.1 77.39 19.12 77.74 19.13C78.07 19.14 78.39 19.34 78.74 19.37C79.09 19.4 79.45 19.17 79.79 19.24C80.13 19.31 80.46 19.41 80.79 19.5C81.12 19.59 81.4 19.83 81.72 19.95C82.04 20.07 82.38 20.14 82.69 20.3C83 20.46 83.26 20.68 83.54 20.87C83.82 21.06 84.17 21.18 84.43 21.41C84.69 21.64 84.91 21.9 85.14 22.17C85.37 22.44 85.48 22.76 85.68 23.06C85.86 23.33 86.06 23.62 86.22 23.93C86.37 24.22 86.38 24.58 86.51 24.91C86.63 25.22 86.81 25.51 86.91 25.84C87 26.16 87.1 26.48 87.17 26.83C87.24 27.15 87.32 27.49 87.37 27.84C87.41 28.17 87.49 28.5 87.52 28.86C87.55 29.19 87.52 29.54 87.54 29.89C87.54 30.22 87.49 30.57 87.48 30.92C87.47 31.27 87.51 31.61 87.49 31.93C87.47 32.28 87.4 32.61 87.36 32.93C87.32 33.28 87.19 33.59 87.13 33.91C87.07 34.25 87.02 34.58 86.94 34.9C86.85 35.24 86.95 35.62 86.85 35.93C86.74 36.26 86.49 36.53 86.36 36.83C86.22 37.15 86.02 37.42 85.86 37.71C85.68 38.01 85.57 38.34 85.37 38.6C85.16 38.88 84.97 39.17 84.74 39.4C84.51 39.63 84.19 39.82 83.93 40.02C83.67 40.22 83.32 40.32 83.04 40.49C82.76 40.66 82.49 40.89 82.19 41.02C81.89 41.15 81.56 41.26 81.24 41.36C80.92 41.46 80.61 41.62 80.28 41.69C79.95 41.76 79.6 41.68 79.26 41.71C78.92 41.74 78.6 41.96 78.26 41.97C77.92 41.98 77.58 41.9 77.25 41.88C76.92 41.86 76.59 41.7 76.26 41.66C75.93 41.62 75.59 41.55 75.27 41.49C74.95 41.43 74.61 41.34 74.29 41.26C73.95 41.17 73.6 41.16 73.3 41.06C72.97 40.94 72.61 40.9 72.32 40.77C71.99 40.62 71.76 40.31 71.5 40.16C71.16 39.95 70.84 39.81 70.66 39.61" fill="white"/>
<path d="M37.57 29.83C37.09 29.67 37.13 29.9 36.56 29.64C36.3 29.52 35.98 29.36 35.65 29.18C35.37 29.03 35.16 28.71 34.86 28.52C34.59 28.35 34.35 28.11 34.06 27.91C33.8 27.72 33.56 27.48 33.3 27.26C33.04 27.04 32.69 26.94 32.46 26.69C32.23 26.44 31.9 26.28 31.69 26.01C31.48 25.74 31.52 25.31 31.34 25.02C31.16 24.73 31 24.46 30.85 24.15C30.7 23.84 30.51 23.57 30.42 23.24C30.33 22.91 30.35 22.58 30.29 22.24C30.23 21.9 30.2 21.59 30.19 21.25C30.19 20.92 30.05 20.59 30.08 20.24C30.11 19.92 30.31 19.61 30.38 19.26C30.44 18.94 30.52 18.62 30.62 18.29C30.71 17.98 30.83 17.67 30.95 17.35C31.07 17.05 31.19 16.74 31.34 16.42C31.48 16.12 31.49 15.75 31.66 15.44C31.83 15.13 32.05 14.85 32.23 14.57C32.43 14.27 32.57 13.94 32.79 13.68C33.02 13.41 33.42 13.31 33.66 13.07C33.9 12.83 34.09 12.51 34.36 12.3C34.63 12.09 34.96 11.95 35.25 11.77C35.54 11.59 35.81 11.36 36.12 11.21C36.43 11.06 36.7 10.79 37.03 10.67C37.36 10.55 37.75 10.64 38.08 10.55C38.41 10.46 38.74 10.32 39.08 10.27C39.42 10.22 39.77 10.23 40.12 10.2C40.47 10.17 40.81 10.18 41.15 10.18C41.49 10.18 41.84 10.1 42.19 10.11C42.54 10.12 42.88 10.17 43.22 10.21C43.56 10.25 43.9 10.33 44.24 10.38C44.58 10.43 44.93 10.48 45.27 10.54C45.61 10.6 45.93 10.75 46.27 10.83C46.61 10.91 46.97 10.9 47.3 10.99C47.63 11.08 48.01 11.07 48.34 11.17C48.68 11.28 49.03 11.35 49.34 11.47C49.68 11.59 49.94 11.89 50.25 12.01C50.6 12.14 50.98 12.14 51.27 12.26C51.63 12.42 51.92 12.64 52.19 12.76C52.78 13.03 52.63 13.04 53.11 13.22C53.59 13.4 53.59 13.38 54.08 13.53C54.57 13.68 54.53 13.82 55.02 13.97C55.51 14.12 55.54 14.03 56.03 14.18C56.52 14.33 56.52 14.32 57.01 14.46C57.5 14.6 57.55 14.46 58.04 14.61C58.53 14.76 58.46 14.98 58.95 15.12C59.44 15.26 59.43 15.31 59.92 15.46C60.41 15.61 60.49 15.34 60.98 15.49C61.47 15.64 61.46 15.67 61.95 15.82C62.44 15.97 62.43 15.99 62.92 16.14C63.41 16.29 63.35 16.5 63.84 16.65C64.33 16.8 64.4 16.57 64.89 16.71C65.38 16.85 65.35 16.95 65.84 17.1C66.33 17.25 66.29 17.38 66.78 17.53C67.27 17.68 67.33 17.48 67.82 17.63C68.31 17.78 68.31 17.77 68.81 17.92C69.31 18.07 69.3 18.06 69.79 18.21C70.28 18.36 70.28 18.36 70.77 18.51C71.26 18.66 71.22 18.8 71.71 18.95C72.2 19.1 72.24 18.99 72.73 19.14C73.22 19.29 73.16 19.58 73.67 19.66C74.18 19.74 74.06 19.38 74.68 19.28C74.97 19.24 75.32 19.31 75.71 19.28C76.02 19.25 76.36 19.11 76.72 19.1C77.04 19.1 77.39 19.12 77.74 19.13C78.07 19.14 78.39 19.34 78.74 19.37C79.09 19.4 79.45 19.17 79.79 19.24C80.13 19.31 80.46 19.41 80.79 19.5C81.12 19.59 81.4 19.83 81.72 19.95C82.04 20.07 82.38 20.14 82.69 20.3C83 20.46 83.26 20.68 83.54 20.87C83.82 21.06 84.17 21.18 84.43 21.41C84.69 21.64 84.91 21.9 85.14 22.17C85.37 22.44 85.48 22.76 85.68 23.06C85.86 23.33 86.06 23.62 86.22 23.93C86.37 24.22 86.38 24.58 86.51 24.91C86.63 25.22 86.81 25.51 86.91 25.84C87 26.16 87.1 26.48 87.17 26.83C87.24 27.15 87.32 27.49 87.37 27.84C87.41 28.17 87.49 28.5 87.52 28.86C87.55 29.19 87.52 29.54 87.54 29.89C87.54 30.22 87.49 30.57 87.48 30.92C87.47 31.27 87.51 31.61 87.49 31.93C87.47 32.28 87.4 32.61 87.36 32.93C87.32 33.28 87.19 33.59 87.13 33.91C87.07 34.25 87.02 34.58 86.94 34.9C86.85 35.24 86.95 35.62 86.85 35.93C86.74 36.26 86.49 36.53 86.36 36.83C86.22 37.15 86.02 37.42 85.86 37.71C85.68 38.01 85.57 38.34 85.37 38.6C85.16 38.88 84.97 39.17 84.74 39.4C84.51 39.63 84.19 39.82 83.93 40.02C83.67 40.22 83.32 40.32 83.04 40.49C82.76 40.66 82.49 40.89 82.19 41.02C81.89 41.15 81.56 41.26 81.24 41.36C80.92 41.46 80.61 41.62 80.28 41.69C79.95 41.76 79.6 41.68 79.26 41.71C78.92 41.74 78.6 41.96 78.26 41.97C77.92 41.98 77.58 41.9 77.25 41.88C76.92 41.86 76.59 41.7 76.26 41.66C75.93 41.62 75.59 41.55 75.27 41.49C74.95 41.43 74.61 41.34 74.29 41.26C73.95 41.17 73.6 41.16 73.3 41.06C72.97 40.94 72.61 40.9 72.32 40.77C71.99 40.62 71.76 40.31 71.5 40.16C71.16 39.95 70.84 39.81 70.66 39.61" stroke="#E1E3E5" stroke-width="1.5" stroke-linecap="round" stroke-linejoin="round"/>
<path d="M46.46 14.78C46.42 14.28 46.35 14.39 46.37 13.76C46.38 13.47 46.44 13.13 46.48 12.75C46.51 12.44 46.56 12.1 46.62 11.75C46.68 11.44 46.9 11.14 46.99 10.8C47.07 10.49 47.11 10.15 47.23 9.82C47.34 9.51 47.38 9.16 47.52 8.85C47.66 8.54 47.79 8.23 47.96 7.93C48.13 7.63 48.48 7.48 48.68 7.2C48.88 6.92 48.97 6.58 49.2 6.33C49.43 6.08 49.72 5.92 49.98 5.69C50.24 5.46 50.5 5.29 50.78 5.09C51.06 4.89 51.21 4.53 51.51 4.36C51.79 4.2 52.15 4.15 52.47 4C52.77 3.87 53.1 3.81 53.43 3.69C53.74 3.58 54.07 3.55 54.41 3.47C54.73 3.39 55.05 3.32 55.39 3.26C55.71 3.2 56.02 3.05 56.37 3.01C56.69 2.97 57.03 2.99 57.38 2.97C57.71 2.95 58.04 2.73 58.38 2.72C58.71 2.72 59.05 2.83 59.39 2.84C59.73 2.85 60.05 2.89 60.4 2.91C60.75 2.93 61.05 3.1 61.39 3.14C61.73 3.18 62.08 2.97 62.43 3.02C62.78 3.07 63.04 3.4 63.38 3.46C63.72 3.52 64.08 3.34 64.42 3.41C64.76 3.48 65.03 3.74 65.37 3.82C65.71 3.9 66.11 3.75 66.44 3.84C66.78 3.93 67.08 4.16 67.41 4.25C67.75 4.35 68.08 4.47 68.4 4.58C68.74 4.69 69.08 4.77 69.4 4.89C69.73 5.02 70.09 5.08 70.4 5.21C70.73 5.35 71.01 5.58 71.31 5.74C71.63 5.9 72 5.96 72.29 6.13C72.6 6.31 72.78 6.69 73.05 6.87C73.35 7.07 73.64 7.24 73.91 7.45C74.19 7.67 74.57 7.77 74.82 8C75.08 8.25 75.2 8.62 75.42 8.87C75.65 9.14 75.9 9.38 76.09 9.66C76.29 9.95 76.35 10.32 76.51 10.62C76.67 10.92 76.99 11.17 77.11 11.49C77.23 11.81 77.18 12.2 77.26 12.53C77.34 12.86 77.59 13.18 77.63 13.52C77.67 13.86 77.54 14.22 77.55 14.57C77.56 14.92 77.61 15.27 77.58 15.61C77.55 15.95 77.6 16.32 77.54 16.66C77.48 17 77.43 17.36 77.35 17.69C77.27 18.02 77.11 18.36 77 18.68C76.89 19 76.62 19.29 76.49 19.6C76.36 19.94 76.27 20.28 76.13 20.58C75.97 20.92 75.85 21.24 75.7 21.53C75.51 21.88 75.45 22.25 75.3 22.51C74.97 23.06 75.01 22.94 74.7 23.36" fill="white"/>
<path d="M45.95 14.83C45.71 13.71 45.95 12.61 46.09 11.5C46.19 11.15 46.37 10.89 46.44 10.52C46.65 9.54 46.9 8.44 47.43 7.54C47.63 7.22 47.91 7.07 48.1 6.86C48.32 6.56 48.38 6.18 48.79 5.78C49.27 5.32 49.72 5.05 50.17 4.67L50.35 4.53C50.38 4.5 50.38 4.51 50.41 4.48C50.67 4.08 51.17 3.63 51.67 3.51C53.15 2.91 54.84 2.61 56.27 2.26C56.52 2.24 57.31 2.23 57.41 2.19C57.57 2.16 57.93 1.95 58.45 1.96C58.86 1.98 59.14 2.06 59.33 2.07C59.86 2.13 60.64 2.1 61.15 2.3C61.52 2.44 61.64 2.32 62.07 2.26C62.26 2.23 62.62 2.24 62.87 2.35C63.31 2.56 63.51 2.72 63.52 2.7C63.46 2.71 63.7 2.67 64.12 2.62C64.32 2.6 64.67 2.64 64.86 2.73C65.14 2.83 65.34 3 65.54 3.06C65.7 3.1 65.92 3.03 66.17 3.04C66.62 2.98 67.35 3.41 67.6 3.51L69.21 4.04C70.01 4.28 70.91 4.55 71.61 5.06C72.07 5.24 72.95 5.51 73.27 6.06C73.44 6.28 73.58 6.35 73.77 6.48L74.42 6.93C74.56 7.03 74.85 7.11 75.23 7.41C75.61 7.75 75.74 8.09 75.86 8.28C75.97 8.46 76.43 8.98 76.62 9.23C76.86 9.49 77.01 10.2 77.14 10.38C77.22 10.53 77.47 10.72 77.69 11.17C77.92 11.77 77.79 12.05 77.9 12.45C78.09 12.84 78.34 13.48 78.23 13.94C78.07 14.74 78.2 15.56 78.13 16.42C78.01 17.59 77.59 18.83 76.95 19.75C76.67 20.5 76.29 21.31 75.94 22.03C75.84 22.28 75.71 22.65 75.54 22.87C75.42 23.1 75.15 23.36 75 23.58C74.68 23.97 74.07 23.5 74.37 23.09C74.91 22.47 75.01 21.99 75.3 21.28C75.57 20.7 75.83 19.96 76.03 19.35C76.19 18.99 76.38 18.77 76.45 18.6L76.68 17.89C77.03 16.86 76.99 15.8 76.93 14.71C76.91 14.5 76.95 14.05 76.99 13.8C77 13.56 77 13.58 76.89 13.32C76.75 13.07 76.57 12.61 76.56 12.31C76.49 11.54 76.58 11.83 76.03 11.13C75.68 10.63 75.73 10.34 75.48 10C75.16 9.63 74.99 9.5 74.65 9C74.26 8.31 74.38 8.55 73.67 8.14L72.93 7.64C72.67 7.5 72.29 7.16 72.15 6.98C71.96 6.78 72.02 6.78 71.79 6.68C71.04 6.53 70.33 5.86 69.55 5.71C69.03 5.54 67.65 5.12 67.11 4.94C66.62 4.78 66.48 4.59 66.19 4.57C65.83 4.6 65.56 4.65 65.15 4.55C64.76 4.46 64.52 4.21 64.23 4.16C64.09 4.14 63.78 4.31 63.16 4.19C62.61 4.02 62.39 3.78 62.31 3.77C62.38 3.77 62.28 3.76 61.93 3.85C61.34 4.05 60.66 3.65 60.07 3.64C59.68 3.64 58.7 3.5 58.43 3.47C58.38 3.45 58.22 3.52 57.85 3.64C57.15 3.78 57.02 3.71 56.47 3.75C55.04 4.17 53.83 4.24 52.56 4.75C52.46 4.8 51.97 4.91 51.89 4.97C51.68 5.17 51.36 5.6 51.05 5.78C50.69 6.03 50.07 6.51 49.78 6.74C49.6 6.91 49.39 7.49 49.11 7.77C48.91 7.97 48.7 8.11 48.57 8.25C48.44 8.53 48.18 8.99 48.09 9.23C47.91 9.77 47.71 10.69 47.48 11.29L47.3 11.67L47.25 11.8C47.25 11.8 47.23 11.86 47.22 11.94L47.15 12.34C47.02 13.13 46.85 13.93 47.01 14.72C47.06 15.37 46.06 15.45 45.99 14.81L45.95 14.83Z" fill="#E1E3E5"/>
<path d="M41.74 23.37C41.37 23.71 41.48 23.6 41.03 24.07C40.84 24.28 40.58 24.49 40.32 24.78C40.12 25.01 39.92 25.27 39.69 25.55C39.49 25.79 39.23 26.01 39.01 26.29C38.81 26.54 38.7 26.87 38.49 27.15C38.3 27.41 38.1 27.68 37.9 27.96C37.71 28.23 37.37 28.4 37.18 28.69C37 28.96 36.85 29.27 36.67 29.56C36.49 29.85 36.38 30.16 36.2 30.46C36.02 30.76 35.71 30.95 35.55 31.25C35.39 31.55 35.32 31.88 35.16 32.19C35 32.5 34.88 32.79 34.72 33.1C34.56 33.41 34.45 33.71 34.31 34.02C34.17 34.33 34.06 34.64 33.92 34.95C33.78 35.26 33.69 35.58 33.56 35.89C33.43 36.2 33.26 36.49 33.13 36.81C33 37.13 32.86 37.39 32.75 37.71C33.04 38.13 33.07 37.81 33.73 37.87C34.01 37.9 34.35 37.95 34.74 37.98C35.05 38.01 35.38 38.11 35.75 38.15C36.07 38.18 36.41 38.22 36.76 38.25C37.08 38.28 37.43 38.27 37.78 38.31C38.11 38.34 38.44 38.42 38.79 38.46C39.12 38.5 39.48 38.34 39.82 38.38C40.15 38.42 40.47 38.62 40.81 38.66C41.15 38.7 41.49 38.61 41.84 38.66C42.19 38.71 42.5 38.81 42.85 38.85C43.2 38.89 43.52 38.92 43.87 38.96C44.22 39 44.53 39.09 44.88 39.14C45.23 39.19 45.57 39.12 45.91 39.17C46.25 39.22 46.56 39.39 46.9 39.44C47.24 39.49 47.58 39.47 47.92 39.52C48.26 39.57 48.59 39.59 48.93 39.64C49.27 39.69 49.6 39.72 49.94 39.77C50.28 39.82 50.58 40.04 50.92 40.1C51.26 40.16 51.63 39.97 51.97 40.03C52.31 40.09 52.65 40.1 52.99 40.16C53.33 40.22 53.66 40.3 53.99 40.36C54.32 40.42 54.61 40.75 54.95 40.81C55.29 40.87 55.66 40.7 56 40.76C56.34 40.82 56.67 40.91 57 40.97C57.33 41.03 57.68 41.05 58.02 41.11C58.36 41.17 58.68 41.28 59.02 41.35C59.36 41.42 59.64 41.71 59.98 41.78C60.32 41.85 60.69 41.72 61.03 41.8C61.37 41.88 61.65 42.18 61.98 42.25C62.31 42.32 62.69 42.24 63.02 42.32C63.35 42.4 63.67 42.56 64 42.64C64.33 42.72 64.69 42.73 65.02 42.81C65.35 42.89 65.63 43.17 65.96 43.26C66.29 43.35 66.68 43.23 67.01 43.32C67.34 43.41 67.62 43.67 67.94 43.77C68.26 43.87 68.67 43.75 68.99 43.85C69.31 43.95 69.6 44.18 69.92 44.29C70.24 44.4 70.53 44.62 70.85 44.74C71.17 44.86 71.57 44.78 71.88 44.9C72.19 45.02 72.48 45.26 72.79 45.39C73.1 45.52 73.41 45.69 73.71 45.83C74.01 45.97 74.32 46.07 74.62 46.22C75.04 45.95 74.62 45.89 74.68 45.25C74.7 44.97 74.75 44.63 74.78 44.25C74.8 43.94 74.71 43.6 74.73 43.24C74.75 42.92 74.84 42.59 74.86 42.24C74.88 41.92 74.83 41.58 74.84 41.23C74.85 40.9 74.87 40.57 74.88 40.22C74.89 39.87 75.04 39.56 75.05 39.22C75.06 38.88 75.01 38.55 75.02 38.21C75.03 37.87 75.13 37.54 75.13 37.2C75.13 36.86 75.16 36.53 75.16 36.19C75.16 35.85 75.16 35.52 75.16 35.18C75.16 34.84 74.99 34.51 74.98 34.17C74.97 33.83 75.04 33.49 75.02 33.15C75 32.81 75.02 32.47 74.99 32.13C74.96 31.79 74.88 31.46 74.85 31.13C74.82 30.8 74.74 30.46 74.7 30.13" fill="white"/>
<path d="M42.09 23.75C41.13 24.67 40.17 25.8 39.36 26.82C39.14 27.31 38.76 27.8 38.47 28.22C38.3 28.51 37.9 28.81 37.72 29.02C37.38 29.59 37.04 30.24 36.73 30.85C36.5 31.2 36.25 31.35 36.1 31.63C35.99 31.9 35.85 32.35 35.69 32.64C34.86 34.38 34.22 36.21 33.45 37.98L33.36 37.3C33.39 37.38 33.48 37.32 33.13 37.2C32.83 37.2 33.07 37.18 33.21 37.14C33.46 37.09 33.81 37.12 34.07 37.14C35.66 37.35 37.3 37.43 38.89 37.59C39.2 37.55 39.39 37.48 39.74 37.48C40.44 37.48 40.67 37.84 41.31 37.72C42.57 37.71 43.85 38.02 45.1 38.14C45.5 38.14 45.82 38.08 46.33 38.2C47.02 38.41 46.96 38.39 47.55 38.42C48.32 38.45 49.15 38.58 49.92 38.66C50.26 38.66 50.94 38.96 51.08 39H51.03C51.31 38.93 51.97 38.86 52.24 38.94C52.77 38.99 53.41 39.08 53.93 39.19C54.07 39.22 54.06 39.2 54.42 39.3C54.92 39.49 55.11 39.68 55.19 39.7C55.23 39.72 55.17 39.69 55.1 39.68C55.06 39.68 55.09 39.68 55.16 39.68C55.3 39.68 55.66 39.56 56.2 39.65L56.87 39.8C57.89 40.01 59.4 40.13 60.2 40.72C60.11 40.72 60.23 40.73 60.51 40.71C60.82 40.67 61.45 40.77 61.72 40.94C62.04 41.12 62.21 41.24 62.21 41.24C62.14 41.23 62.24 41.26 62.48 41.25C62.67 41.25 63.03 41.26 63.26 41.33C63.48 41.39 63.91 41.56 64.11 41.63C64.57 41.78 64.91 41.71 65.52 41.97C65.89 42.15 66.07 42.28 66.17 42.34C66.5 42.36 67.04 42.31 67.4 42.49C67.76 42.64 67.96 42.8 68.08 42.86C68.22 42.92 68.08 42.9 68.3 42.92C68.47 42.93 68.83 42.88 69.29 43.04C69.63 43.17 69.85 43.32 70 43.41C70.35 43.55 70.85 43.84 71.1 43.97C71.1 43.99 71.28 44.01 71.56 44.03C71.7 44.05 71.89 44.07 72.1 44.15C72.68 44.41 73.11 44.75 73.64 44.98C74.05 45.2 74.48 45.37 74.9 45.57L74.16 45.61C74.16 45.61 74.18 45.55 74.06 45.78C74 45.92 74.02 46.08 74.03 46.11C74.03 46.14 74.03 46.11 74.02 46.07C73.78 45.64 73.97 44.73 74.02 44.26C73.98 43.65 73.99 42.89 74.14 42.25C74.14 41.39 74.16 39.97 74.39 39.24L74.38 38.24C74.51 37.44 74.52 36.93 74.55 36.23L74.56 35.22C74.57 35.03 74.43 34.71 74.4 34.23C74.47 33.48 74.44 32.89 74.44 32.21L74.18 30.22C74.1 29.64 75 29.52 75.07 30.11L75.41 32.14C75.46 32.68 75.47 33.74 75.45 34.18C75.45 34.38 75.61 34.69 75.65 35.19L75.67 36.21C75.7 36.73 75.62 37.87 75.57 38.25L75.62 39.28C75.35 40.72 75.56 41.98 75.38 43.33C75.37 43.54 75.47 43.87 75.44 44.37L75.36 45.36C75.4 45.67 75.62 45.95 75.44 46.35C75.24 46.74 75.08 46.78 74.98 46.87C74.76 47.07 74.47 47.03 74.24 46.91C73.38 46.59 72.32 46.11 71.54 45.69C71.27 45.66 71.05 45.71 70.54 45.57C69.87 45.29 69.25 44.98 68.69 44.73C68.36 44.73 68.17 44.78 67.8 44.71C67.41 44.67 66.89 44.27 66.69 44.25C66.42 44.25 66.27 44.29 65.94 44.25C65.58 44.25 64.91 43.85 64.75 43.78C64.49 43.71 63.91 43.71 63.51 43.57C63.4 43.53 62.84 43.35 62.76 43.33C62.37 43.31 62.11 43.42 61.46 43.21C61.04 43.04 60.85 42.88 60.76 42.85C60.71 42.83 60.76 42.85 60.78 42.85C60.78 42.85 60.74 42.85 60.66 42.86C60.49 42.86 60.15 42.95 59.62 42.82C59.13 42.67 58.91 42.49 58.79 42.44C58.73 42.41 58.74 42.42 58.76 42.42L58.43 42.34C57.58 42.11 56.63 42.06 55.78 41.85C55.87 41.85 55.78 41.85 55.47 41.9C55.32 41.92 55.12 41.95 54.85 41.92C54.52 41.94 53.7 41.46 53.7 41.45C53.84 41.48 53.6 41.43 53.53 41.42C53.21 41.36 52.86 41.27 52.54 41.23L51.87 41.14C51.68 41.12 51.85 41.14 51.8 41.13C51.52 41.17 51.03 41.27 50.68 41.18C50.4 41.15 49.82 40.88 49.76 40.86C48.72 40.69 47.5 40.6 46.46 40.43C45.74 40.2 45.73 40.16 45.02 40.17C43.96 40 42.97 39.86 41.92 39.63C41.64 39.57 41.68 39.57 41.43 39.58C41.23 39.58 40.9 39.63 40.49 39.53C40.13 39.44 39.9 39.32 39.77 39.28C39.71 39.26 39.7 39.26 39.68 39.25C39.66 39.25 39.59 39.25 39.5 39.25L39.12 39.3C39.04 39.3 38.95 39.31 38.85 39.3C37.09 39.07 35.35 38.85 33.6 38.57C33.24 38.53 33.53 38.63 32.84 38.6C32.25 38.45 31.83 37.89 32.03 37.38C32.88 35.57 33.59 33.7 34.5 31.93C34.56 31.84 34.64 31.63 34.69 31.53C34.82 30.99 35.29 30.43 35.64 30.09C36.12 29.21 36.59 28.18 37.41 27.57C37.77 27.1 38.07 26.71 38.36 26.18C39.09 25.23 39.77 24.54 40.59 23.7C40.81 23.47 41.16 23.12 41.39 22.93C41.89 22.49 42.55 23.22 42.07 23.68L42.09 23.75Z" fill="#E1E3E5"/>
<path d="M37.73 28.5C38.23 28.43 38.08 28.39 38.74 28.33C39.02 28.31 39.38 28.5 39.77 28.47C40.08 28.45 40.41 28.31 40.78 28.29C41.1 28.28 41.44 28.38 41.8 28.37C42.12 28.37 42.46 28.27 42.81 28.26C43.14 28.26 43.47 28.15 43.83 28.15C44.16 28.15 44.5 28.26 44.85 28.26C45.18 28.26 45.53 28.09 45.87 28.1C46.21 28.11 46.54 28.16 46.89 28.17C47.24 28.18 47.55 28.44 47.89 28.46C48.23 28.48 48.56 28.45 48.91 28.48C49.26 28.51 49.6 28.36 49.94 28.39C50.28 28.42 50.6 28.6 50.94 28.64C51.28 28.68 51.62 28.59 51.97 28.64C52.32 28.69 52.62 28.9 52.96 28.95C53.3 29 53.63 29.05 53.97 29.1C54.31 29.15 54.64 29.19 54.98 29.25C55.32 29.31 55.64 29.42 55.97 29.49C56.3 29.56 56.67 29.45 57 29.52C57.33 29.59 57.65 29.73 57.98 29.8C58.31 29.87 58.66 29.86 59 29.94C59.34 30.02 59.62 30.26 59.95 30.35C60.28 30.44 60.59 30.56 60.92 30.66C61.25 30.76 61.59 30.79 61.92 30.89C62.25 30.99 62.55 31.16 62.87 31.26C63.19 31.36 63.52 31.44 63.84 31.56C64.16 31.68 64.51 31.69 64.83 31.81C65.15 31.93 65.46 32.08 65.77 32.2C66.08 32.32 66.45 32.34 66.76 32.47C67.07 32.6 67.39 32.73 67.7 32.87C68.01 33.01 68.29 33.22 68.6 33.37C68.91 33.52 69.16 33.77 69.47 33.92C69.78 34.07 70.19 34 70.49 34.16C70.79 34.32 71.04 34.59 71.34 34.75C71.64 34.91 71.92 35.11 72.22 35.28C72.52 35.45 72.82 35.61 73.11 35.78C73.4 35.95 73.64 36.21 73.93 36.4C74.22 36.59 74.49 36.79 74.77 36.98" stroke="#E1E3E5" stroke-width="1.5" stroke-linecap="round" stroke-linejoin="round"/>
<path d="M35.78 79.76C36.13 80.15 35.8 80.07 35.66 80.73C35.6 81.01 35.37 81.32 35.28 81.71C35.21 82.02 35.28 82.38 35.2 82.75C35.13 83.07 34.97 83.39 34.89 83.75C34.83 84.07 34.72 84.4 34.65 84.76C34.59 85.09 34.6 85.44 34.53 85.8C34.47 86.13 34.58 86.5 34.51 86.86C34.45 87.19 34.29 87.52 34.22 87.87C34.15 88.22 33.95 88.52 33.89 88.87C33.83 89.22 33.81 89.56 33.75 89.91C33.69 90.26 33.7 90.64 33.65 90.99C34.13 91.16 34.18 91.06 34.69 91.06C35.2 91.06 35.2 91.09 35.72 91.09C36.24 91.09 36.24 91.01 36.75 91.01C37.26 91.01 37.27 91.04 37.78 91.04C38.29 91.04 38.29 91.07 38.81 91.07C39.33 91.07 39.33 90.92 39.84 90.92C40.35 90.92 40.36 91.07 40.87 91.07C41.38 91.07 41.38 91.08 41.9 91.08C42.42 91.08 42.41 91.03 42.93 91.03C43.45 91.03 43.44 90.86 43.96 90.86C44.48 90.86 44.48 90.98 44.99 90.98C45.5 90.98 45.51 91 46.02 91C46.53 91 46.54 90.84 47.05 90.84C47.56 90.84 47.57 91 48.08 91C48.59 91 48.6 90.98 49.11 90.98C49.62 90.98 49.63 90.96 50.14 90.96C50.65 90.96 50.65 90.88 51.17 90.88C51.69 90.88 51.69 91.09 52.2 91.09C52.71 91.09 52.72 90.81 53.24 90.81C53.76 90.81 53.76 91.08 54.28 91.08C54.8 91.08 54.88 91.27 55.37 91.08C55.86 90.89 55.23 90.55 55.3 89.87C55.33 89.57 55.39 89.21 55.45 88.81C55.49 88.49 55.63 88.14 55.69 87.77C55.74 87.44 55.82 87.09 55.89 86.73C55.95 86.39 56.06 86.05 56.14 85.69C56.21 85.35 56.23 84.99 56.32 84.63C56.41 84.27 56.64 83.99 56.75 83.64C56.86 83.29 56.79 82.91 56.9 82.57C57.01 82.23 57.14 81.9 57.26 81.56C57.38 81.22 57.62 80.99 57.76 80.65C58.14 80.24 57.97 80.48 58.75 80.62C59.04 80.67 59.39 80.75 59.82 80.91C60.12 81.02 60.54 81 60.92 81.18C61.22 81.33 61.45 81.7 61.81 81.9C62.11 82.07 62.5 82.14 62.84 82.35C63.14 82.54 63.54 82.74 63.87 82.97C64.07 83.43 63.56 83.32 63.43 83.99C63.38 84.26 63.31 84.59 63.24 84.98C63.19 85.28 63.22 85.62 63.16 85.99C63.12 86.3 62.99 86.62 62.95 86.98C62.91 87.29 62.88 87.63 62.85 87.98C62.82 88.3 62.99 88.65 62.96 89C62.93 89.32 62.82 89.65 62.79 89.99C62.77 90.31 62.83 90.65 62.81 91C62.79 91.32 62.59 91.65 62.57 91.99C62.55 92.31 62.5 92.65 62.48 92.99C62.47 93.32 62.66 93.66 62.65 94C62.64 94.34 62.61 94.66 62.6 95C62.59 95.34 62.63 95.66 62.62 96.01C62.61 96.36 62.47 96.67 62.47 97.02C62.47 97.37 62.44 97.68 62.44 98.03C62.44 98.38 62.64 98.7 62.65 99.04C62.66 99.38 62.53 99.76 62.53 100.11C62.04 100.27 61.99 99.96 61.48 99.96C60.97 99.96 60.96 99.96 60.45 99.96C59.94 99.96 59.93 100.18 59.42 100.18C58.91 100.18 58.9 99.94 58.39 99.94C57.88 99.94 57.87 100.06 57.35 100.06C56.83 100.06 56.83 99.99 56.31 99.99C55.79 99.99 55.79 100.04 55.27 100.04C54.75 100.04 54.75 100.11 54.23 100.11C53.71 100.11 53.71 100.04 53.19 100.04C52.67 100.04 52.67 100.06 52.15 100.06C51.63 100.06 51.63 100.03 51.11 100.03C50.59 100.03 50.59 100.01 50.07 100.01C49.55 100.01 49.55 99.94 49.03 99.94C48.51 99.94 48.51 100.16 47.99 100.16C47.47 100.16 47.47 100.06 46.95 100.06C46.43 100.06 46.43 100.05 45.91 100.05C45.39 100.05 45.39 100.17 44.87 100.17C44.35 100.17 44.35 100.07 43.83 100.07C43.31 100.07 43.31 100.12 42.79 100.12C42.27 100.12 42.27 100.19 41.75 100.19C41.23 100.19 41.23 99.97 40.71 99.97C40.19 99.97 40.19 99.97 39.67 99.97C39.15 99.97 39.15 100 38.63 100C38.11 100 38.11 100.08 37.6 100.08C37.09 100.08 37.08 100.01 36.56 100.01C36.04 100.01 36.04 100.06 35.52 100.06C35 100.06 35 100 34.48 100C33.96 100 33.96 100.12 33.44 100.12C32.92 100.12 32.92 100.16 32.4 100.16C31.88 100.16 31.88 99.95 31.36 99.95C30.84 99.95 30.84 99.91 30.32 99.91C29.8 99.91 29.8 100.17 29.28 100.17C28.76 100.17 28.76 99.92 28.24 99.92C27.72 99.92 27.72 99.91 27.2 99.91C26.68 99.91 26.68 100.17 26.15 100.17C25.62 100.17 25.57 100.31 25.07 100.14C24.57 99.97 25.25 99.7 25.3 99.05C25.32 98.77 25.14 98.41 25.18 98.02C25.21 97.71 25.3 97.38 25.34 97.01C25.38 96.69 25.32 96.35 25.37 95.99C25.41 95.67 25.55 95.35 25.6 95C25.65 94.68 25.6 94.32 25.65 93.98C25.7 93.65 25.83 93.33 25.89 92.99C25.95 92.65 26.11 92.35 26.18 92.01C26.25 91.67 26.13 91.31 26.2 90.98C26.27 90.65 26.5 90.35 26.58 90.02C26.66 89.69 26.58 89.32 26.65 88.99C26.72 88.66 26.83 88.33 26.92 88C27.01 87.67 27.27 87.4 27.37 87.07C27.47 86.74 27.6 86.43 27.71 86.11C27.82 85.79 27.75 85.41 27.86 85.09C27.97 84.77 28.18 84.48 28.3 84.16C28.42 83.84 28.37 83.46 28.5 83.14C28.63 82.82 28.97 82.64 29.11 82.33C29.47 81.95 29.36 82.03 29.94 81.76C30.21 81.63 30.58 81.61 30.94 81.45C31.23 81.32 31.53 81.12 31.87 80.98C32.18 80.86 32.49 80.7 32.83 80.58C33.15 80.47 33.51 80.47 33.85 80.36C34.19 80.25 34.49 80.1 34.83 80.01C35.17 79.92 35.43 79.86 35.77 79.79L35.78 79.76Z" fill="#8CE594"/>
<path d="M35.78 79.76C36.13 80.15 35.8 80.07 35.66 80.73C35.6 81.01 35.37 81.32 35.28 81.71C35.21 82.02 35.28 82.38 35.2 82.75C35.13 83.07 34.97 83.39 34.89 83.75C34.83 84.07 34.72 84.4 34.65 84.76C34.59 85.09 34.6 85.44 34.53 85.8C34.47 86.13 34.58 86.5 34.51 86.86C34.45 87.19 34.29 87.52 34.22 87.87C34.15 88.22 33.95 88.52 33.89 88.87C33.83 89.22 33.81 89.56 33.75 89.91C33.69 90.26 33.7 90.64 33.65 90.99C34.13 91.16 34.18 91.06 34.69 91.06C35.2 91.06 35.2 91.09 35.72 91.09C36.24 91.09 36.24 91.01 36.75 91.01C37.26 91.01 37.27 91.04 37.78 91.04C38.29 91.04 38.29 91.07 38.81 91.07C39.33 91.07 39.33 90.92 39.84 90.92C40.35 90.92 40.36 91.07 40.87 91.07C41.38 91.07 41.38 91.08 41.9 91.08C42.42 91.08 42.41 91.03 42.93 91.03C43.45 91.03 43.44 90.86 43.96 90.86C44.48 90.86 44.48 90.98 44.99 90.98C45.5 90.98 45.51 91 46.02 91C46.53 91 46.54 90.84 47.05 90.84C47.56 90.84 47.57 91 48.08 91C48.59 91 48.6 90.98 49.11 90.98C49.62 90.98 49.63 90.96 50.14 90.96C50.65 90.96 50.65 90.88 51.17 90.88C51.69 90.88 51.69 91.09 52.2 91.09C52.71 91.09 52.72 90.81 53.24 90.81C53.76 90.81 53.76 91.08 54.28 91.08C54.8 91.08 54.88 91.27 55.37 91.08C55.86 90.89 55.23 90.55 55.3 89.87C55.33 89.57 55.39 89.21 55.45 88.81C55.49 88.49 55.63 88.14 55.69 87.77C55.74 87.44 55.82 87.09 55.89 86.73C55.95 86.39 56.06 86.05 56.14 85.69C56.21 85.35 56.23 84.99 56.32 84.63C56.41 84.27 56.64 83.99 56.75 83.64C56.86 83.29 56.79 82.91 56.9 82.57C57.01 82.23 57.14 81.9 57.26 81.56C57.38 81.22 57.62 80.99 57.76 80.65C58.14 80.24 57.97 80.48 58.75 80.62C59.04 80.67 59.39 80.75 59.82 80.91C60.12 81.02 60.54 81 60.92 81.18C61.22 81.33 61.45 81.7 61.81 81.9C62.11 82.07 62.5 82.14 62.84 82.35C63.14 82.54 63.54 82.74 63.87 82.97C64.07 83.43 63.56 83.32 63.43 83.99C63.38 84.26 63.31 84.59 63.24 84.98C63.19 85.28 63.22 85.62 63.16 85.99C63.12 86.3 62.99 86.62 62.95 86.98C62.91 87.29 62.88 87.63 62.85 87.98C62.82 88.3 62.99 88.65 62.96 89C62.93 89.32 62.82 89.65 62.79 89.99C62.77 90.31 62.83 90.65 62.81 91C62.79 91.32 62.59 91.65 62.57 91.99C62.55 92.31 62.5 92.65 62.48 92.99C62.47 93.32 62.66 93.66 62.65 94C62.64 94.34 62.61 94.66 62.6 95C62.59 95.34 62.63 95.66 62.62 96.01C62.61 96.36 62.47 96.67 62.47 97.02C62.47 97.37 62.44 97.68 62.44 98.03C62.44 98.38 62.64 98.7 62.65 99.04C62.66 99.38 62.53 99.76 62.53 100.11C62.04 100.27 61.99 99.96 61.48 99.96C60.97 99.96 60.96 99.96 60.45 99.96C59.94 99.96 59.93 100.18 59.42 100.18C58.91 100.18 58.9 99.94 58.39 99.94C57.88 99.94 57.87 100.06 57.35 100.06C56.83 100.06 56.83 99.99 56.31 99.99C55.79 99.99 55.79 100.04 55.27 100.04C54.75 100.04 54.75 100.11 54.23 100.11C53.71 100.11 53.71 100.04 53.19 100.04C52.67 100.04 52.67 100.06 52.15 100.06C51.63 100.06 51.63 100.03 51.11 100.03C50.59 100.03 50.59 100.01 50.07 100.01C49.55 100.01 49.55 99.94 49.03 99.94C48.51 99.94 48.51 100.16 47.99 100.16C47.47 100.16 47.47 100.06 46.95 100.06C46.43 100.06 46.43 100.05 45.91 100.05C45.39 100.05 45.39 100.17 44.87 100.17C44.35 100.17 44.35 100.07 43.83 100.07C43.31 100.07 43.31 100.12 42.79 100.12C42.27 100.12 42.27 100.19 41.75 100.19C41.23 100.19 41.23 99.97 40.71 99.97C40.19 99.97 40.19 99.97 39.67 99.97C39.15 99.97 39.15 100 38.63 100C38.11 100 38.11 100.08 37.6 100.08C37.09 100.08 37.08 100.01 36.56 100.01C36.04 100.01 36.04 100.06 35.52 100.06C35 100.06 35 100 34.48 100C33.96 100 33.96 100.12 33.44 100.12C32.92 100.12 32.92 100.16 32.4 100.16C31.88 100.16 31.88 99.95 31.36 99.95C30.84 99.95 30.84 99.91 30.32 99.91C29.8 99.91 29.8 100.17 29.28 100.17C28.76 100.17 28.76 99.92 28.24 99.92C27.72 99.92 27.72 99.91 27.2 99.91C26.68 99.91 26.68 100.17 26.15 100.17C25.62 100.17 25.57 100.31 25.07 100.14C24.57 99.97 25.25 99.7 25.3 99.05C25.32 98.77 25.14 98.41 25.18 98.02C25.21 97.71 25.3 97.38 25.34 97.01C25.38 96.69 25.32 96.35 25.37 95.99C25.41 95.67 25.55 95.35 25.6 95C25.65 94.68 25.6 94.32 25.65 93.98C25.7 93.65 25.83 93.33 25.89 92.99C25.95 92.65 26.11 92.35 26.18 92.01C26.25 91.67 26.13 91.31 26.2 90.98C26.27 90.65 26.5 90.35 26.58 90.02C26.66 89.69 26.58 89.32 26.65 88.99C26.72 88.66 26.83 88.33 26.92 88C27.01 87.67 27.27 87.4 27.37 87.07C27.47 86.74 27.6 86.43 27.71 86.11C27.82 85.79 27.75 85.41 27.86 85.09C27.97 84.77 28.18 84.48 28.3 84.16C28.42 83.84 28.37 83.46 28.5 83.14C28.63 82.82 28.97 82.64 29.11 82.33C29.47 81.95 29.36 82.03 29.94 81.76C30.21 81.63 30.58 81.61 30.94 81.45C31.23 81.32 31.53 81.12 31.87 80.98C32.18 80.86 32.49 80.7 32.83 80.58C33.15 80.47 33.51 80.47 33.85 80.36C34.19 80.25 34.49 80.1 34.83 80.01C35.17 79.92 35.43 79.86 35.77 79.79L35.78 79.76Z" stroke="#7AD37F" stroke-width="1.5" stroke-linecap="round" stroke-linejoin="round"/>
<path d="M46.22 79.77C45.88 79.75 45.53 79.71 45.19 79.68C44.85 79.65 44.49 79.79 44.15 79.77C43.81 79.75 43.46 79.67 43.12 79.65C42.78 79.63 42.43 79.56 42.09 79.55C41.75 79.54 41.4 79.45 41.05 79.43C40.7 79.41 40.36 79.43 40.01 79.43C39.66 79.43 39.31 79.55 38.97 79.54C38.63 79.53 38.28 79.51 37.93 79.5C37.58 79.49 37.23 79.5 36.89 79.5C36.55 79.5 36.2 79.27 35.86 79.26C35.52 79.25 35.16 79.45 34.81 79.44C34.46 79.43 34.12 79.4 33.78 79.38C33.44 79.36 33.09 79.22 32.76 79.2C32.43 79.18 32.07 79.11 31.73 79.08C31.39 79.05 31.03 79.1 30.69 79.06C30.35 79.02 30 79 29.66 78.95C29.32 78.9 28.95 78.95 28.62 78.9C28.29 78.85 27.95 78.67 27.62 78.6C27.29 78.53 26.93 78.5 26.6 78.42C26.26 78.33 25.94 78.2 25.62 78.09C25.28 77.98 24.91 77.98 24.6 77.84C24.28 77.7 24 77.47 23.7 77.3C23.4 77.13 23.12 76.91 22.85 76.71C22.58 76.51 22.3 76.28 22.07 76.03C21.84 75.78 21.6 75.52 21.4 75.23C21.2 74.94 21.17 74.58 21.03 74.26C20.89 73.96 20.56 73.71 20.47 73.37C20.38 73.05 20.4 72.69 20.35 72.33C20.31 72 20.38 71.65 20.37 71.3C20.37 70.97 20.35 70.63 20.37 70.28C20.39 69.95 20.45 69.61 20.5 69.26C20.54 68.93 20.47 68.57 20.54 68.22C20.61 67.87 20.83 67.56 20.9 67.23C20.97 66.88 20.96 66.52 21.03 66.19C21.1 65.84 21.31 65.53 21.38 65.2C21.46 64.85 21.54 64.52 21.62 64.19C21.7 63.84 21.57 63.45 21.65 63.13C21.73 62.78 21.97 62.48 22.05 62.15C22.14 61.8 22.1 61.43 22.18 61.11C22.27 60.76 22.46 60.45 22.54 60.13C22.63 59.78 22.75 59.45 22.84 59.13C22.93 58.78 23.01 58.44 23.09 58.12C23.18 57.76 23.19 57.41 23.27 57.09C23.36 56.73 23.45 56.4 23.52 56.08C23.6 55.72 23.75 55.4 23.81 55.07C23.87 54.71 23.81 54.35 23.84 54.02C23.87 53.66 23.82 53.32 23.8 52.98C23.78 52.64 23.68 52.31 23.61 51.97C23.54 51.63 23.52 51.3 23.4 50.96C23.29 50.65 23.2 50.31 23.04 49.99C22.9 49.7 22.73 49.39 22.54 49.07C22.38 48.8 22.25 48.49 22.13 48.15C22.02 47.85 21.78 47.56 21.7 47.21C21.63 46.89 21.67 46.53 21.63 46.18C21.59 45.85 21.55 45.51 21.54 45.16C21.53 44.81 21.64 44.49 21.67 44.15C21.7 43.81 21.53 43.45 21.59 43.11C21.65 42.77 21.88 42.48 21.98 42.15C22.08 41.82 22.28 41.55 22.41 41.23C22.54 40.91 22.49 40.53 22.65 40.22C22.81 39.91 23.14 39.73 23.33 39.44C23.52 39.15 23.58 38.79 23.79 38.52C24 38.25 24.23 38.01 24.47 37.75C24.71 37.49 24.95 37.28 25.22 37.05C25.49 36.82 25.73 36.62 26.01 36.4C26.29 36.18 26.62 36.1 26.91 35.91C27.2 35.72 27.43 35.48 27.74 35.31C28.05 35.14 28.29 34.91 28.61 34.76C28.93 34.61 29.23 34.48 29.55 34.34C29.87 34.2 30.18 34.08 30.51 33.96C30.84 33.84 31.21 33.92 31.54 33.82C31.87 33.72 32.11 33.36 32.45 33.27C32.79 33.18 33.11 33.11 33.45 33.04C33.79 32.97 34.15 33.1 34.5 33.04C34.85 32.98 35.13 32.7 35.47 32.65C35.81 32.6 36.18 32.83 36.52 32.78C36.86 32.73 37.18 32.63 37.53 32.59C37.88 32.55 38.19 32.34 38.54 32.32C38.89 32.3 39.23 32.49 39.58 32.48C39.93 32.47 40.25 32.48 40.6 32.46C40.95 32.44 41.27 32.18 41.62 32.18C41.97 32.18 42.3 32.33 42.65 32.34C43 32.35 43.33 32.31 43.67 32.32C44.01 32.33 44.35 32.24 44.7 32.26C45.05 32.28 45.36 32.55 45.71 32.57C46.06 32.59 46.39 32.57 46.74 32.59C47.09 32.61 47.41 32.72 47.76 32.75C48.11 32.78 48.45 32.68 48.79 32.71C49.13 32.74 49.48 32.63 49.82 32.67C50.16 32.71 50.47 32.97 50.81 33.02C51.15 33.07 51.49 33.06 51.84 33.11C52.19 33.16 52.51 33.19 52.86 33.24C53.21 33.29 53.56 33.18 53.91 33.24C54.26 33.3 54.55 33.57 54.89 33.63C55.23 33.69 55.55 33.8 55.88 33.86C56.21 33.92 56.58 33.85 56.91 33.91C57.24 33.97 57.55 34.19 57.88 34.26C58.21 34.33 58.57 34.29 58.9 34.36C59.23 34.43 59.56 34.55 59.89 34.63C60.22 34.71 60.55 34.82 60.88 34.9C61.21 34.98 61.56 35 61.88 35.09C62.2 35.18 62.55 35.22 62.88 35.31C63.21 35.4 63.55 35.47 63.87 35.56C64.19 35.65 64.54 35.7 64.86 35.8C65.18 35.9 65.46 36.18 65.77 36.29C66.08 36.4 66.49 36.29 66.81 36.4C67.13 36.51 67.43 36.7 67.74 36.82C68.05 36.94 68.35 37.14 68.66 37.27C68.97 37.4 69.34 37.43 69.64 37.56C69.94 37.69 70.17 38.06 70.47 38.2C70.77 38.34 71.16 38.35 71.46 38.5C71.77 38.66 71.99 38.96 72.28 39.13C72.58 39.3 72.99 39.28 73.27 39.45C73.57 39.63 73.81 39.89 74.08 40.07C74.37 40.27 74.61 40.51 74.87 40.71C75.15 40.92 75.36 41.19 75.61 41.4C75.88 41.63 76.13 41.84 76.36 42.07C76.61 42.31 77.03 42.39 77.25 42.63C77.48 42.89 77.52 43.31 77.71 43.57C77.92 43.85 78.21 44.06 78.38 44.34C78.56 44.64 78.79 44.91 78.94 45.2C79.09 45.51 79.11 45.88 79.22 46.19C79.33 46.52 79.52 46.82 79.59 47.14C79.66 47.46 79.71 47.82 79.74 48.15C79.77 48.48 79.6 48.84 79.6 49.17C79.6 49.5 79.85 49.87 79.82 50.2C79.79 50.53 79.74 50.89 79.67 51.22C79.6 51.55 79.48 51.89 79.39 52.21C79.29 52.54 79.15 52.86 79.03 53.17C78.9 53.5 78.75 53.81 78.61 54.1C78.46 54.42 78.28 54.72 78.12 54.99C77.94 55.31 77.8 55.63 77.63 55.88C77.4 56.23 77.15 56.49 77 56.68C76.8 56.93 76.51 57.14 76.32 57.46C76.16 57.73 76.09 58.09 75.94 58.42C75.81 58.71 75.73 59.04 75.6 59.38C75.49 59.68 75.36 59.99 75.25 60.34C75.15 60.65 74.84 60.92 74.75 61.26C74.66 61.58 74.81 61.97 74.73 62.31C74.66 62.63 74.5 62.95 74.43 63.3C74.37 63.62 74.32 63.97 74.26 64.31C74.2 64.64 74.12 64.97 74.07 65.32C74.02 65.65 73.97 65.99 73.93 66.34C73.89 66.67 73.95 67.02 73.91 67.37C73.87 67.72 73.59 68.02 73.55 68.36C73.51 68.7 73.5 69.04 73.47 69.39C73.44 69.74 73.47 70.07 73.45 70.42C73.43 70.77 73.51 71.11 73.49 71.46C73.47 71.81 73.32 72.13 73.3 72.48C73.28 72.83 73.44 73.17 73.43 73.52C73.42 73.87 73.3 74.2 73.29 74.55C73.28 74.9 73.23 75.26 73.17 75.58C73.1 75.94 72.96 76.25 72.84 76.56C72.71 76.89 72.7 77.28 72.51 77.56C72.32 77.84 72.08 78.13 71.83 78.37C71.58 78.61 71.27 78.78 70.97 78.98C70.69 79.16 70.33 79.23 70.01 79.38C69.71 79.52 69.43 79.78 69.09 79.89C68.77 80 68.43 80.07 68.08 80.15C67.75 80.23 67.38 80.15 67.03 80.21C66.7 80.27 66.36 80.32 66.01 80.36C65.67 80.4 65.33 80.44 64.98 80.47C64.63 80.5 64.3 80.57 63.95 80.59C63.6 80.61 63.27 80.61 62.91 80.62C62.55 80.63 62.22 80.74 61.87 80.74C61.52 80.74 61.18 80.58 60.83 80.58C60.48 80.58 60.14 80.79 59.79 80.78C59.44 80.77 59.1 80.76 58.75 80.75C58.4 80.74 58.07 80.55 57.72 80.54C57.37 80.53 57.03 80.54 56.68 80.52C56.33 80.5 55.99 80.52 55.64 80.49C55.29 80.46 54.95 80.51 54.59 80.49C54.23 80.47 53.9 80.49 53.55 80.47C53.2 80.45 52.86 80.41 52.52 80.38C52.18 80.35 51.84 80.15 51.49 80.13C51.14 80.11 50.79 80.24 50.44 80.22C50.09 80.2 49.75 80.12 49.41 80.09C49.07 80.06 48.71 80.15 48.36 80.12C48.01 80.09 47.68 79.89 47.33 79.86C46.98 79.83 46.63 79.84 46.27 79.81L46.22 79.77Z" fill="#C48445"/>
<path d="M46.22 79.77C45.88 79.75 45.53 79.71 45.19 79.68C44.85 79.65 44.49 79.79 44.15 79.77C43.81 79.75 43.46 79.67 43.12 79.65C42.78 79.63 42.43 79.56 42.09 79.55C41.75 79.54 41.4 79.45 41.05 79.43C40.7 79.41 40.36 79.43 40.01 79.43C39.66 79.43 39.31 79.55 38.97 79.54C38.63 79.53 38.28 79.51 37.93 79.5C37.58 79.49 37.23 79.5 36.89 79.5C36.55 79.5 36.2 79.27 35.86 79.26C35.52 79.25 35.16 79.45 34.81 79.44C34.46 79.43 34.12 79.4 33.78 79.38C33.44 79.36 33.09 79.22 32.76 79.2C32.43 79.18 32.07 79.11 31.73 79.08C31.39 79.05 31.03 79.1 30.69 79.06C30.35 79.02 30 79 29.66 78.95C29.32 78.9 28.95 78.95 28.62 78.9C28.29 78.85 27.95 78.67 27.62 78.6C27.29 78.53 26.93 78.5 26.6 78.42C26.26 78.33 25.94 78.2 25.62 78.09C25.28 77.98 24.91 77.98 24.6 77.84C24.28 77.7 24 77.47 23.7 77.3C23.4 77.13 23.12 76.91 22.85 76.71C22.58 76.51 22.3 76.28 22.07 76.03C21.84 75.78 21.6 75.52 21.4 75.23C21.2 74.94 21.17 74.58 21.03 74.26C20.89 73.96 20.56 73.71 20.47 73.37C20.38 73.05 20.4 72.69 20.35 72.33C20.31 72 20.38 71.65 20.37 71.3C20.37 70.97 20.35 70.63 20.37 70.28C20.39 69.95 20.45 69.61 20.5 69.26C20.54 68.93 20.47 68.57 20.54 68.22C20.61 67.87 20.83 67.56 20.9 67.23C20.97 66.88 20.96 66.52 21.03 66.19C21.1 65.84 21.31 65.53 21.38 65.2C21.46 64.85 21.54 64.52 21.62 64.19C21.7 63.84 21.57 63.45 21.65 63.13C21.73 62.78 21.97 62.48 22.05 62.15C22.14 61.8 22.1 61.43 22.18 61.11C22.27 60.76 22.46 60.45 22.54 60.13C22.63 59.78 22.75 59.45 22.84 59.13C22.93 58.78 23.01 58.44 23.09 58.12C23.18 57.76 23.19 57.41 23.27 57.09C23.36 56.73 23.45 56.4 23.52 56.08C23.6 55.72 23.75 55.4 23.81 55.07C23.87 54.71 23.81 54.35 23.84 54.02C23.87 53.66 23.82 53.32 23.8 52.98C23.78 52.64 23.68 52.31 23.61 51.97C23.54 51.63 23.52 51.3 23.4 50.96C23.29 50.65 23.2 50.31 23.04 49.99C22.9 49.7 22.73 49.39 22.54 49.07C22.38 48.8 22.25 48.49 22.13 48.15C22.02 47.85 21.78 47.56 21.7 47.21C21.63 46.89 21.67 46.53 21.63 46.18C21.59 45.85 21.55 45.51 21.54 45.16C21.53 44.81 21.64 44.49 21.67 44.15C21.7 43.81 21.53 43.45 21.59 43.11C21.65 42.77 21.88 42.48 21.98 42.15C22.08 41.82 22.28 41.55 22.41 41.23C22.54 40.91 22.49 40.53 22.65 40.22C22.81 39.91 23.14 39.73 23.33 39.44C23.52 39.15 23.58 38.79 23.79 38.52C24 38.25 24.23 38.01 24.47 37.75C24.71 37.49 24.95 37.28 25.22 37.05C25.49 36.82 25.73 36.62 26.01 36.4C26.29 36.18 26.62 36.1 26.91 35.91C27.2 35.72 27.43 35.48 27.74 35.31C28.05 35.14 28.29 34.91 28.61 34.76C28.93 34.61 29.23 34.48 29.55 34.34C29.87 34.2 30.18 34.08 30.51 33.96C30.84 33.84 31.21 33.92 31.54 33.82C31.87 33.72 32.11 33.36 32.45 33.27C32.79 33.18 33.11 33.11 33.45 33.04C33.79 32.97 34.15 33.1 34.5 33.04C34.85 32.98 35.13 32.7 35.47 32.65C35.81 32.6 36.18 32.83 36.52 32.78C36.86 32.73 37.18 32.63 37.53 32.59C37.88 32.55 38.19 32.34 38.54 32.32C38.89 32.3 39.23 32.49 39.58 32.48C39.93 32.47 40.25 32.48 40.6 32.46C40.95 32.44 41.27 32.18 41.62 32.18C41.97 32.18 42.3 32.33 42.65 32.34C43 32.35 43.33 32.31 43.67 32.32C44.01 32.33 44.35 32.24 44.7 32.26C45.05 32.28 45.36 32.55 45.71 32.57C46.06 32.59 46.39 32.57 46.74 32.59C47.09 32.61 47.41 32.72 47.76 32.75C48.11 32.78 48.45 32.68 48.79 32.71C49.13 32.74 49.48 32.63 49.82 32.67C50.16 32.71 50.47 32.97 50.81 33.02C51.15 33.07 51.49 33.06 51.84 33.11C52.19 33.16 52.51 33.19 52.86 33.24C53.21 33.29 53.56 33.18 53.91 33.24C54.26 33.3 54.55 33.57 54.89 33.63C55.23 33.69 55.55 33.8 55.88 33.86C56.21 33.92 56.58 33.85 56.91 33.91C57.24 33.97 57.55 34.19 57.88 34.26C58.21 34.33 58.57 34.29 58.9 34.36C59.23 34.43 59.56 34.55 59.89 34.63C60.22 34.71 60.55 34.82 60.88 34.9C61.21 34.98 61.56 35 61.88 35.09C62.2 35.18 62.55 35.22 62.88 35.31C63.21 35.4 63.55 35.47 63.87 35.56C64.19 35.65 64.54 35.7 64.86 35.8C65.18 35.9 65.46 36.18 65.77 36.29C66.08 36.4 66.49 36.29 66.81 36.4C67.13 36.51 67.43 36.7 67.74 36.82C68.05 36.94 68.35 37.14 68.66 37.27C68.97 37.4 69.34 37.43 69.64 37.56C69.94 37.69 70.17 38.06 70.47 38.2C70.77 38.34 71.16 38.35 71.46 38.5C71.77 38.66 71.99 38.96 72.28 39.13C72.58 39.3 72.99 39.28 73.27 39.45C73.57 39.63 73.81 39.89 74.08 40.07C74.37 40.27 74.61 40.51 74.87 40.71C75.15 40.92 75.36 41.19 75.61 41.4C75.88 41.63 76.13 41.84 76.36 42.07C76.61 42.31 77.03 42.39 77.25 42.63C77.48 42.89 77.52 43.31 77.71 43.57C77.92 43.85 78.21 44.06 78.38 44.34C78.56 44.64 78.79 44.91 78.94 45.2C79.09 45.51 79.11 45.88 79.22 46.19C79.33 46.52 79.52 46.82 79.59 47.14C79.66 47.46 79.71 47.82 79.74 48.15C79.77 48.48 79.6 48.84 79.6 49.17C79.6 49.5 79.85 49.87 79.82 50.2C79.79 50.53 79.74 50.89 79.67 51.22C79.6 51.55 79.48 51.89 79.39 52.21C79.29 52.54 79.15 52.86 79.03 53.17C78.9 53.5 78.75 53.81 78.61 54.1C78.46 54.42 78.28 54.72 78.12 54.99C77.94 55.31 77.8 55.63 77.63 55.88C77.4 56.23 77.15 56.49 77 56.68C76.8 56.93 76.51 57.14 76.32 57.46C76.16 57.73 76.09 58.09 75.94 58.42C75.81 58.71 75.73 59.04 75.6 59.38C75.49 59.68 75.36 59.99 75.25 60.34C75.15 60.65 74.84 60.92 74.75 61.26C74.66 61.58 74.81 61.97 74.73 62.31C74.66 62.63 74.5 62.95 74.43 63.3C74.37 63.62 74.32 63.97 74.26 64.31C74.2 64.64 74.12 64.97 74.07 65.32C74.02 65.65 73.97 65.99 73.93 66.34C73.89 66.67 73.95 67.02 73.91 67.37C73.87 67.72 73.59 68.02 73.55 68.36C73.51 68.7 73.5 69.04 73.47 69.39C73.44 69.74 73.47 70.07 73.45 70.42C73.43 70.77 73.51 71.11 73.49 71.46C73.47 71.81 73.32 72.13 73.3 72.48C73.28 72.83 73.44 73.17 73.43 73.52C73.42 73.87 73.3 74.2 73.29 74.55C73.28 74.9 73.23 75.26 73.17 75.58C73.1 75.94 72.96 76.25 72.84 76.56C72.71 76.89 72.7 77.28 72.51 77.56C72.32 77.84 72.08 78.13 71.83 78.37C71.58 78.61 71.27 78.78 70.97 78.98C70.69 79.16 70.33 79.23 70.01 79.38C69.71 79.52 69.43 79.78 69.09 79.89C68.77 80 68.43 80.07 68.08 80.15C67.75 80.23 67.38 80.15 67.03 80.21C66.7 80.27 66.36 80.32 66.01 80.36C65.67 80.4 65.33 80.44 64.98 80.47C64.63 80.5 64.3 80.57 63.95 80.59C63.6 80.61 63.27 80.61 62.91 80.62C62.55 80.63 62.22 80.74 61.87 80.74C61.52 80.74 61.18 80.58 60.83 80.58C60.48 80.58 60.14 80.79 59.79 80.78C59.44 80.77 59.1 80.76 58.75 80.75C58.4 80.74 58.07 80.55 57.72 80.54C57.37 80.53 57.03 80.54 56.68 80.52C56.33 80.5 55.99 80.52 55.64 80.49C55.29 80.46 54.95 80.51 54.59 80.49C54.23 80.47 53.9 80.49 53.55 80.47C53.2 80.45 52.86 80.41 52.52 80.38C52.18 80.35 51.84 80.15 51.49 80.13C51.14 80.11 50.79 80.24 50.44 80.22C50.09 80.2 49.75 80.12 49.41 80.09C49.07 80.06 48.71 80.15 48.36 80.12C48.01 80.09 47.68 79.89 47.33 79.86C46.98 79.83 46.63 79.84 46.27 79.81L46.22 79.77Z" stroke="#B37130" stroke-width="1.5" stroke-linecap="round" stroke-linejoin="round"/>
<path d="M60.88 77.17C60.54 77.17 60.2 76.98 59.84 76.97C59.48 76.96 59.16 76.92 58.8 76.91C58.44 76.9 58.11 77.05 57.76 77.04C57.41 77.03 57.08 76.89 56.73 76.88C56.38 76.87 56.05 76.76 55.7 76.74C55.35 76.72 55.01 76.76 54.66 76.74C54.31 76.72 53.96 76.87 53.61 76.84C53.26 76.81 52.92 76.84 52.57 76.81C52.22 76.78 51.9 76.5 51.55 76.48C51.2 76.46 50.84 76.7 50.49 76.67C50.14 76.64 49.8 76.58 49.45 76.55C49.1 76.52 48.77 76.25 48.42 76.23C48.07 76.21 47.7 76.41 47.35 76.38C47 76.35 46.64 76.35 46.28 76.32C45.93 76.3 45.59 76.13 45.24 76.11C44.89 76.09 44.54 76.07 44.19 76.06C43.84 76.05 43.49 76.08 43.14 76.06C42.79 76.04 42.44 76.11 42.09 76.1C41.74 76.09 41.39 76.04 41.05 76.03C40.71 76.02 40.35 75.98 40.01 75.97C39.67 75.96 39.32 75.8 38.98 75.79C38.63 75.79 38.27 75.97 37.91 75.96C37.55 75.95 37.2 75.96 36.85 75.94C36.5 75.92 36.15 75.7 35.79 75.68C35.43 75.66 35.07 75.92 34.71 75.91C34.35 75.9 34.02 75.59 33.67 75.57C33.32 75.55 32.96 75.53 32.61 75.51C32.26 75.49 31.88 75.68 31.53 75.65C31.18 75.62 30.84 75.4 30.5 75.36C30.16 75.32 29.8 75.25 29.46 75.2C29.1 75.14 28.73 75.2 28.39 75.13C28.03 75.05 27.73 74.8 27.41 74.7C27.05 74.59 26.74 74.46 26.44 74.33C26.1 74.18 25.72 74.16 25.45 73.98C25.14 73.77 24.95 73.47 24.74 73.22C24.54 72.97 24.27 72.75 24.15 72.42C24.04 72.13 23.9 71.8 23.86 71.45C23.82 71.14 23.77 70.79 23.78 70.43C23.78 70.11 23.88 69.78 23.92 69.42C23.96 69.1 24.14 68.79 24.21 68.44C24.28 68.11 24.35 67.78 24.41 67.47C24.48 67.14 24.41 66.78 24.47 66.47C24.54 66.14 24.77 65.85 24.84 65.53C24.91 65.2 24.89 64.85 24.96 64.54C25.04 64.21 25.24 63.91 25.32 63.6C25.4 63.27 25.33 62.91 25.41 62.6C25.49 62.27 25.6 61.95 25.68 61.64C25.76 61.31 25.78 60.97 25.86 60.67C25.94 60.34 26.19 60.06 26.27 59.75C26.36 59.41 26.44 59.08 26.52 58.76C26.61 58.42 26.58 58.06 26.66 57.74C26.74 57.4 26.7 57.04 26.77 56.72C26.84 56.38 27.11 56.08 27.17 55.76C27.23 55.42 27.21 55.07 27.25 54.74C27.29 54.39 27.29 54.05 27.3 53.72C27.31 53.39 27.38 53.03 27.36 52.7C27.34 52.37 27.17 52.04 27.1 51.71C27.03 51.38 27.01 51.05 26.91 50.71C26.81 50.4 26.74 50.07 26.6 49.74C26.48 49.44 26.26 49.16 26.1 48.85C25.95 48.56 25.7 48.31 25.52 48C25.37 47.73 25.43 47.3 25.33 46.89C25.25 46.56 25.14 46.21 25.11 45.82C25.09 45.47 24.98 45.1 25.02 44.72C25.05 44.37 25.1 43.99 25.19 43.62C25.27 43.27 25.4 42.91 25.54 42.57C25.68 42.24 25.89 41.93 26.09 41.6C26.27 41.31 26.49 41.04 26.71 40.77C26.93 40.5 27.23 40.33 27.48 40.08C27.73 39.83 27.99 39.65 28.26 39.43C28.53 39.21 28.76 38.97 29.05 38.79C29.34 38.61 29.55 38.29 29.86 38.13C30.17 37.97 30.52 37.94 30.85 37.8C31.18 37.66 31.45 37.47 31.78 37.35C32.11 37.23 32.44 37.17 32.77 37.06C33.1 36.95 33.45 36.98 33.79 36.89C34.13 36.8 34.44 36.7 34.78 36.62C35.12 36.54 35.45 36.52 35.8 36.47C36.15 36.42 36.45 36.22 36.8 36.18C37.15 36.14 37.48 36.13 37.83 36.09C38.18 36.05 38.51 36.05 38.86 36.03C39.21 36.01 39.54 36.02 39.89 36C40.24 35.98 40.57 35.89 40.92 35.88C41.27 35.87 41.61 35.83 41.96 35.83C42.29 35.83 42.62 35.89 42.96 35.89C43.3 35.89 43.62 35.97 43.96 35.98C44.3 35.99 44.63 36 44.96 36.02C45.29 36.04 45.64 35.9 45.98 35.93C46.32 35.96 46.63 36.15 46.97 36.18C47.31 36.21 47.63 36.24 47.97 36.28C48.31 36.32 48.64 36.25 48.98 36.28C49.32 36.31 49.66 36.27 49.99 36.31C50.32 36.35 50.64 36.49 50.98 36.54C51.32 36.59 51.66 36.54 51.99 36.59C52.32 36.64 52.6 36.98 52.94 37.03C53.28 37.08 53.61 37.11 53.95 37.16C54.29 37.22 54.65 37.07 54.98 37.13C55.31 37.19 55.66 37.2 55.99 37.26C56.32 37.32 56.61 37.63 56.93 37.7C57.25 37.77 57.6 37.79 57.93 37.86C58.26 37.93 58.57 38.08 58.9 38.16C59.23 38.24 59.61 38.13 59.93 38.21C60.25 38.29 60.6 38.32 60.93 38.41C61.26 38.5 61.53 38.81 61.85 38.9C62.17 38.99 62.52 39.04 62.84 39.14C63.16 39.24 63.49 39.35 63.81 39.45C64.13 39.55 64.47 39.62 64.78 39.73C65.09 39.84 65.4 40 65.72 40.12C66.04 40.24 66.34 40.39 66.65 40.51C66.96 40.63 67.35 40.61 67.65 40.74C67.95 40.87 68.27 41.04 68.56 41.18C68.85 41.32 69.07 41.68 69.36 41.83C69.65 41.98 70.1 41.91 70.38 42.07C70.68 42.24 70.9 42.54 71.17 42.72C71.46 42.91 71.67 43.2 71.93 43.39C72.21 43.6 72.54 43.72 72.78 43.94C73.04 44.17 73.32 44.37 73.55 44.6C73.79 44.85 74.03 45.1 74.23 45.35C74.44 45.62 74.64 45.91 74.8 46.19C74.97 46.49 75.1 46.8 75.23 47.11C75.36 47.44 75.34 47.8 75.41 48.12C75.48 48.46 75.54 48.79 75.56 49.13C75.58 49.47 75.68 49.83 75.64 50.16C75.6 50.49 75.46 50.84 75.38 51.16C75.29 51.5 75.25 51.86 75.14 52.17C75.01 52.51 74.9 52.85 74.76 53.14C74.59 53.48 74.29 53.72 74.13 53.97C73.85 54.41 73.63 54.71 73.55 54.81C73.34 55.07 73.07 55.31 72.87 55.61C72.69 55.89 72.66 56.27 72.5 56.59C72.35 56.89 72.13 57.16 71.99 57.49C71.86 57.8 71.68 58.1 71.56 58.44C71.45 58.76 71.36 59.09 71.25 59.43C71.15 59.75 70.97 60.06 70.88 60.41C70.79 60.74 70.92 61.12 70.84 61.47C70.76 61.82 70.7 62.14 70.63 62.48C70.56 62.82 70.44 63.14 70.38 63.49C70.32 63.84 70.24 64.16 70.18 64.51C70.12 64.86 70.16 65.2 70.12 65.55C70.08 65.9 70.07 66.23 70.03 66.59C69.99 66.95 69.72 67.25 69.68 67.6C69.64 67.95 69.73 68.3 69.7 68.65C69.67 69 69.6 69.33 69.58 69.68C69.56 70.03 69.5 70.37 69.48 70.72C69.46 71.07 69.4 71.41 69.38 71.76C69.36 72.11 69.36 72.45 69.35 72.81C69.34 73.17 69.43 73.51 69.41 73.86C69.41 74.15 69.36 74.49 69.22 74.84C69.12 75.11 69 75.45 68.7 75.71C68.49 75.89 68.2 76.11 67.84 76.27C67.57 76.39 67.17 76.23 66.81 76.33C66.52 76.41 66.24 76.65 65.88 76.72C65.58 76.78 65.23 76.65 64.87 76.7C64.56 76.74 64.24 76.77 63.88 76.8C63.57 76.82 63.24 76.87 62.89 76.88C62.57 76.89 62.24 76.91 61.89 76.92C61.57 76.92 61.24 77.16 60.89 77.16L60.88 77.17Z" fill="url(#paint0_linear_5602_25818)"/>
<path d="M60.88 77.17C60.54 77.17 60.2 76.98 59.84 76.97C59.48 76.96 59.16 76.92 58.8 76.91C58.44 76.9 58.11 77.05 57.76 77.04C57.41 77.03 57.08 76.89 56.73 76.88C56.38 76.87 56.05 76.76 55.7 76.74C55.35 76.72 55.01 76.76 54.66 76.74C54.31 76.72 53.96 76.87 53.61 76.84C53.26 76.81 52.92 76.84 52.57 76.81C52.22 76.78 51.9 76.5 51.55 76.48C51.2 76.46 50.84 76.7 50.49 76.67C50.14 76.64 49.8 76.58 49.45 76.55C49.1 76.52 48.77 76.25 48.42 76.23C48.07 76.21 47.7 76.41 47.35 76.38C47 76.35 46.64 76.35 46.28 76.32C45.93 76.3 45.59 76.13 45.24 76.11C44.89 76.09 44.54 76.07 44.19 76.06C43.84 76.05 43.49 76.08 43.14 76.06C42.79 76.04 42.44 76.11 42.09 76.1C41.74 76.09 41.39 76.04 41.05 76.03C40.71 76.02 40.35 75.98 40.01 75.97C39.67 75.96 39.32 75.8 38.98 75.79C38.63 75.79 38.27 75.97 37.91 75.96C37.55 75.95 37.2 75.96 36.85 75.94C36.5 75.92 36.15 75.7 35.79 75.68C35.43 75.66 35.07 75.92 34.71 75.91C34.35 75.9 34.02 75.59 33.67 75.57C33.32 75.55 32.96 75.53 32.61 75.51C32.26 75.49 31.88 75.68 31.53 75.65C31.18 75.62 30.84 75.4 30.5 75.36C30.16 75.32 29.8 75.25 29.46 75.2C29.1 75.14 28.73 75.2 28.39 75.13C28.03 75.05 27.73 74.8 27.41 74.7C27.05 74.59 26.74 74.46 26.44 74.33C26.1 74.18 25.72 74.16 25.45 73.98C25.14 73.77 24.95 73.47 24.74 73.22C24.54 72.97 24.27 72.75 24.15 72.42C24.04 72.13 23.9 71.8 23.86 71.45C23.82 71.14 23.77 70.79 23.78 70.43C23.78 70.11 23.88 69.78 23.92 69.42C23.96 69.1 24.14 68.79 24.21 68.44C24.28 68.11 24.35 67.78 24.41 67.47C24.48 67.14 24.41 66.78 24.47 66.47C24.54 66.14 24.77 65.85 24.84 65.53C24.91 65.2 24.89 64.85 24.96 64.54C25.04 64.21 25.24 63.91 25.32 63.6C25.4 63.27 25.33 62.91 25.41 62.6C25.49 62.27 25.6 61.95 25.68 61.64C25.76 61.31 25.78 60.97 25.86 60.67C25.94 60.34 26.19 60.06 26.27 59.75C26.36 59.41 26.44 59.08 26.52 58.76C26.61 58.42 26.58 58.06 26.66 57.74C26.74 57.4 26.7 57.04 26.77 56.72C26.84 56.38 27.11 56.08 27.17 55.76C27.23 55.42 27.21 55.07 27.25 54.74C27.29 54.39 27.29 54.05 27.3 53.72C27.31 53.39 27.38 53.03 27.36 52.7C27.34 52.37 27.17 52.04 27.1 51.71C27.03 51.38 27.01 51.05 26.91 50.71C26.81 50.4 26.74 50.07 26.6 49.74C26.48 49.44 26.26 49.16 26.1 48.85C25.95 48.56 25.7 48.31 25.52 48C25.37 47.73 25.43 47.3 25.33 46.89C25.25 46.56 25.14 46.21 25.11 45.82C25.09 45.47 24.98 45.1 25.02 44.72C25.05 44.37 25.1 43.99 25.19 43.62C25.27 43.27 25.4 42.91 25.54 42.57C25.68 42.24 25.89 41.93 26.09 41.6C26.27 41.31 26.49 41.04 26.71 40.77C26.93 40.5 27.23 40.33 27.48 40.08C27.73 39.83 27.99 39.65 28.26 39.43C28.53 39.21 28.76 38.97 29.05 38.79C29.34 38.61 29.55 38.29 29.86 38.13C30.17 37.97 30.52 37.94 30.85 37.8C31.18 37.66 31.45 37.47 31.78 37.35C32.11 37.23 32.44 37.17 32.77 37.06C33.1 36.95 33.45 36.98 33.79 36.89C34.13 36.8 34.44 36.7 34.78 36.62C35.12 36.54 35.45 36.52 35.8 36.47C36.15 36.42 36.45 36.22 36.8 36.18C37.15 36.14 37.48 36.13 37.83 36.09C38.18 36.05 38.51 36.05 38.86 36.03C39.21 36.01 39.54 36.02 39.89 36C40.24 35.98 40.57 35.89 40.92 35.88C41.27 35.87 41.61 35.83 41.96 35.83C42.29 35.83 42.62 35.89 42.96 35.89C43.3 35.89 43.62 35.97 43.96 35.98C44.3 35.99 44.63 36 44.96 36.02C45.29 36.04 45.64 35.9 45.98 35.93C46.32 35.96 46.63 36.15 46.97 36.18C47.31 36.21 47.63 36.24 47.97 36.28C48.31 36.32 48.64 36.25 48.98 36.28C49.32 36.31 49.66 36.27 49.99 36.31C50.32 36.35 50.64 36.49 50.98 36.54C51.32 36.59 51.66 36.54 51.99 36.59C52.32 36.64 52.6 36.98 52.94 37.03C53.28 37.08 53.61 37.11 53.95 37.16C54.29 37.22 54.65 37.07 54.98 37.13C55.31 37.19 55.66 37.2 55.99 37.26C56.32 37.32 56.61 37.63 56.93 37.7C57.25 37.77 57.6 37.79 57.93 37.86C58.26 37.93 58.57 38.08 58.9 38.16C59.23 38.24 59.61 38.13 59.93 38.21C60.25 38.29 60.6 38.32 60.93 38.41C61.26 38.5 61.53 38.81 61.85 38.9C62.17 38.99 62.52 39.04 62.84 39.14C63.16 39.24 63.49 39.35 63.81 39.45C64.13 39.55 64.47 39.62 64.78 39.73C65.09 39.84 65.4 40 65.72 40.12C66.04 40.24 66.34 40.39 66.65 40.51C66.96 40.63 67.35 40.61 67.65 40.74C67.95 40.87 68.27 41.04 68.56 41.18C68.85 41.32 69.07 41.68 69.36 41.83C69.65 41.98 70.1 41.91 70.38 42.07C70.68 42.24 70.9 42.54 71.17 42.72C71.46 42.91 71.67 43.2 71.93 43.39C72.21 43.6 72.54 43.72 72.78 43.94C73.04 44.17 73.32 44.37 73.55 44.6C73.79 44.85 74.03 45.1 74.23 45.35C74.44 45.62 74.64 45.91 74.8 46.19C74.97 46.49 75.1 46.8 75.23 47.11C75.36 47.44 75.34 47.8 75.41 48.12C75.48 48.46 75.54 48.79 75.56 49.13C75.58 49.47 75.68 49.83 75.64 50.16C75.6 50.49 75.46 50.84 75.38 51.16C75.29 51.5 75.25 51.86 75.14 52.17C75.01 52.51 74.9 52.85 74.76 53.14C74.59 53.48 74.29 53.72 74.13 53.97C73.85 54.41 73.63 54.71 73.55 54.81C73.34 55.07 73.07 55.31 72.87 55.61C72.69 55.89 72.66 56.27 72.5 56.59C72.35 56.89 72.13 57.16 71.99 57.49C71.86 57.8 71.68 58.1 71.56 58.44C71.45 58.76 71.36 59.09 71.25 59.43C71.15 59.75 70.97 60.06 70.88 60.41C70.79 60.74 70.92 61.12 70.84 61.47C70.76 61.82 70.7 62.14 70.63 62.48C70.56 62.82 70.44 63.14 70.38 63.49C70.32 63.84 70.24 64.16 70.18 64.51C70.12 64.86 70.16 65.2 70.12 65.55C70.08 65.9 70.07 66.23 70.03 66.59C69.99 66.95 69.72 67.25 69.68 67.6C69.64 67.95 69.73 68.3 69.7 68.65C69.67 69 69.6 69.33 69.58 69.68C69.56 70.03 69.5 70.37 69.48 70.72C69.46 71.07 69.4 71.41 69.38 71.76C69.36 72.11 69.36 72.45 69.35 72.81C69.34 73.17 69.43 73.51 69.41 73.86C69.41 74.15 69.36 74.49 69.22 74.84C69.12 75.11 69 75.45 68.7 75.71C68.49 75.89 68.2 76.11 67.84 76.27C67.57 76.39 67.17 76.23 66.81 76.33C66.52 76.41 66.24 76.65 65.88 76.72C65.58 76.78 65.23 76.65 64.87 76.7C64.56 76.74 64.24 76.77 63.88 76.8C63.57 76.82 63.24 76.87 62.89 76.88C62.57 76.89 62.24 76.91 61.89 76.92C61.57 76.92 61.24 77.16 60.89 77.16L60.88 77.17Z" stroke="#EFB575" stroke-width="1.5" stroke-linecap="round" stroke-linejoin="round"/>
<path d="M35.32 63.8C37.6616 63.8 39.56 61.9017 39.56 59.56C39.56 57.2183 37.6616 55.32 35.32 55.32C32.9783 55.32 31.08 57.2183 31.08 59.56C31.08 61.9017 32.9783 63.8 35.32 63.8Z" fill="url(#paint1_radial_5602_25818)"/>
<path d="M58.91 64.72C61.2517 64.72 63.15 62.8217 63.15 60.48C63.15 58.1383 61.2517 56.24 58.91 56.24C56.5684 56.24 54.67 58.1383 54.67 60.48C54.67 62.8217 56.5684 64.72 58.91 64.72Z" fill="url(#paint2_radial_5602_25818)"/>
<path d="M55.69 56.6C55.69 56.79 55.66 56.97 55.63 57.14C55.6 57.33 55.56 57.5 55.5 57.67C55.44 57.85 55.39 58.03 55.3 58.18C55.2 58.34 55.07 58.48 54.94 58.6C54.8 58.73 54.65 58.84 54.49 58.92C54.33 59 54.13 59.01 53.95 59.01C53.77 59.01 53.6 58.94 53.43 58.87C53.26 58.8 53.1 58.74 52.96 58.61C52.83 58.49 52.68 58.37 52.57 58.22C52.47 58.07 52.42 57.89 52.35 57.71C52.29 57.55 52.24 57.37 52.21 57.18C52.18 57.01 52.16 56.82 52.16 56.64C52.16 56.46 52.19 56.27 52.22 56.1C52.25 55.91 52.28 55.74 52.34 55.57C52.4 55.39 52.43 55.2 52.53 55.05C52.63 54.89 52.81 54.8 52.94 54.68C53.08 54.55 53.21 54.44 53.37 54.37C53.53 54.3 53.7 54.18 53.89 54.18C54.08 54.18 54.27 54.23 54.44 54.3C54.61 54.37 54.75 54.49 54.9 54.61C55.03 54.73 55.15 54.87 55.26 55.03C55.36 55.18 55.42 55.35 55.49 55.53C55.55 55.69 55.63 55.87 55.67 56.05C55.7 56.22 55.69 56.41 55.7 56.6H55.69Z" fill="#5E381F"/>
<path d="M38.16 56.06C38.17 55.87 38.18 55.68 38.22 55.51C38.26 55.33 38.39 55.18 38.46 55.02C38.54 54.85 38.61 54.68 38.71 54.54C38.82 54.39 38.93 54.24 39.06 54.13C39.21 54.01 39.36 53.89 39.53 53.84C39.7 53.79 39.89 53.77 40.08 53.78C40.27 53.79 40.43 53.87 40.6 53.95C40.77 54.03 40.87 54.16 41.01 54.3C41.13 54.43 41.29 54.53 41.38 54.7C41.47 54.85 41.49 55.04 41.55 55.22C41.6 55.39 41.61 55.57 41.63 55.75C41.65 55.93 41.67 56.1 41.66 56.29C41.65 56.48 41.66 56.66 41.62 56.83C41.58 57.01 41.51 57.18 41.43 57.34C41.35 57.51 41.26 57.67 41.16 57.81C41.05 57.96 40.93 58.1 40.8 58.21C40.65 58.33 40.5 58.44 40.34 58.49C40.18 58.54 39.99 58.54 39.8 58.53C39.61 58.52 39.45 58.47 39.29 58.39C39.13 58.31 38.96 58.24 38.83 58.1C38.71 57.97 38.61 57.81 38.52 57.65C38.43 57.5 38.33 57.34 38.28 57.16C38.23 56.99 38.23 56.8 38.21 56.61C38.19 56.43 38.17 56.25 38.18 56.06H38.16Z" fill="#5E381F"/>
<path d="M35.41 60.35C35.88 60.39 36.17 60.66 36.43 60.84C36.74 61.07 36.86 61.43 37.1 61.72C37.32 61.99 37.68 62.15 38.06 62.33C38.34 62.46 38.68 62.56 39.14 62.6C39.46 62.62 39.86 62.58 40.22 62.39C40.52 62.23 40.79 61.95 41.11 61.75C41.43 61.55 41.76 61.41 42.09 61.27C42.44 61.12 42.77 61.02 43.12 61.04C43.47 61.06 43.73 61.27 44.06 61.49C44.35 61.68 44.74 61.78 45.03 62.01C45.32 62.24 45.58 62.53 45.88 62.71C46.21 62.91 46.57 63.03 46.91 63.04C47.25 63.05 47.62 62.98 47.97 62.81C48.28 62.65 48.57 62.4 48.88 62.19C49.19 61.98 49.44 61.65 49.75 61.49C50.1 61.31 50.52 61.27 50.86 61.28C51.2 61.29 51.62 61.34 51.96 61.53C52.27 61.7 52.54 61.99 52.84 62.21C53.14 62.43 53.46 62.61 53.76 62.79C54.11 62.99 54.4 63.15 54.73 63.15C55.09 63.15 55.38 63 55.71 62.83C56.02 62.66 56.29 62.43 56.58 62.2C56.87 61.97 57.22 61.81 57.5 61.61C57.84 61.37 58.19 61.25 58.5 61.22" stroke="#A05A20" stroke-width="1.5" stroke-linecap="round" stroke-linejoin="round"/>
</g>
<defs>
<linearGradient id="paint0_linear_5602_25818" x1="49.7" y1="35.83" x2="49.7" y2="77.17" gradientUnits="userSpaceOnUse">
<stop stop-color="#F7CFA9"/>
<stop offset="1" stop-color="#F4B774"/>
</linearGradient>
<radialGradient id="paint1_radial_5602_25818" cx="0" cy="0" r="1" gradientUnits="userSpaceOnUse" gradientTransform="translate(35.32 59.56) scale(4.24)">
<stop stop-color="#F2A157"/>
<stop offset="1" stop-color="#DB8F4F" stop-opacity="0"/>
</radialGradient>
<radialGradient id="paint2_radial_5602_25818" cx="0" cy="0" r="1" gradientUnits="userSpaceOnUse" gradientTransform="translate(58.91 60.48) scale(0.5)">
<stop stop-color="#F2A157"/>
<stop offset="1" stop-color="#DB8F4F" stop-opacity="0"/>
</radialGradient>
<clipPath id="clip0_5602_25818">
<rect width="100" height="100" fill="white"/>
</clipPath>
</defs>
</svg>
