<svg width="100" height="100" viewBox="0 0 100 100" fill="none" xmlns="http://www.w3.org/2000/svg">
<g clip-path="url(#clip0_5602_25822)">
<rect width="100" height="100" fill="#F09C86"/>
<path d="M47.3 79.88C46.98 79.88 46.64 79.82 46.27 79.82C45.94 79.82 45.6 79.73 45.24 79.74C44.91 79.74 44.57 79.89 44.21 79.9C43.88 79.9 43.53 79.87 43.18 79.89C42.83 79.91 42.5 79.88 42.15 79.89C41.8 79.9 41.47 79.89 41.12 79.92C40.77 79.95 40.44 80.02 40.1 80.06C39.76 80.1 39.44 80.25 39.09 80.3C38.74 80.35 38.41 80.33 38.06 80.39C37.71 80.45 37.38 80.45 37.03 80.51C36.68 80.57 36.35 80.62 36.01 80.7C35.67 80.78 35.32 80.79 34.99 80.87C34.66 80.95 34.32 81.03 33.99 81.13C33.66 81.23 33.37 81.46 33.05 81.58C32.73 81.7 32.38 81.74 32.05 81.86C31.72 81.98 31.43 82.16 31.11 82.3C30.79 82.44 30.52 82.65 30.2 82.8C29.88 82.95 29.61 83.15 29.31 83.32C29.01 83.49 28.6 83.46 28.3 83.64C28 83.82 27.72 84.01 27.43 84.2C27.14 84.39 26.82 84.54 26.54 84.74C26.26 84.94 26.02 85.2 25.75 85.42C25.48 85.64 25.35 86.01 25.08 86.23C24.81 86.45 24.55 86.66 24.3 86.9C24.05 87.14 23.63 87.2 23.39 87.45C23.15 87.7 22.97 88 22.73 88.26C22.49 88.52 22.28 88.78 22.06 89.05C21.84 89.32 21.79 89.7 21.58 89.98C21.37 90.26 20.98 90.39 20.78 90.68C20.58 90.97 20.42 91.27 20.23 91.56C20.04 91.85 19.93 92.18 19.75 92.48C19.57 92.78 19.48 93.11 19.31 93.42C19.14 93.73 18.89 93.97 18.73 94.28C18.57 94.59 18.34 94.86 18.19 95.17C18.04 95.48 18.08 95.87 17.95 96.19C17.82 96.51 17.55 96.77 17.43 97.09C17.31 97.41 17.32 97.78 17.2 98.11C17.08 98.44 17.06 98.78 16.96 99.12C16.86 99.46 16.58 99.72 16.48 100.06C16.38 100.4 16.33 100.85 16.24 101.19C16.73 101.36 16.8 101.1 17.31 101.1C17.82 101.1 17.83 101.03 18.35 101.03C18.87 101.03 18.87 101.23 19.38 101.23C19.89 101.23 19.9 101.1 20.41 101.1C20.92 101.1 20.93 101.08 21.44 101.08C21.95 101.08 21.96 101.19 22.47 101.19C22.98 101.19 22.99 101.21 23.5 101.21C24.01 101.21 24.02 101.13 24.53 101.13C25.04 101.13 25.05 101.14 25.56 101.14C26.07 101.14 26.08 101.17 26.6 101.17C27.12 101.17 27.12 100.94 27.64 100.94C28.16 100.94 28.15 100.98 28.67 100.98C29.19 100.98 29.18 101.17 29.7 101.17C30.22 101.17 30.22 101 30.73 101C31.24 101 31.25 101.21 31.76 101.21C32.27 101.21 32.28 100.94 32.79 100.94C33.3 100.94 33.31 101.12 33.82 101.12C34.33 101.12 34.34 101.03 34.86 101.03C35.38 101.03 35.38 101.13 35.9 101.13C36.42 101.13 36.42 100.96 36.93 100.96C37.44 100.96 37.45 101 37.96 101C38.47 101 38.48 101.23 38.99 101.23C39.5 101.23 39.51 101.05 40.02 101.05C40.53 101.05 40.54 101.05 41.05 101.05C41.56 101.05 41.57 101.05 42.08 101.05C42.59 101.05 42.6 101.05 43.11 101.05C43.62 101.05 43.63 101.22 44.14 101.22C44.65 101.22 44.66 101.14 45.18 101.14C45.7 101.14 45.7 101.14 46.22 101.14C46.74 101.14 46.74 101.23 47.26 101.23C47.78 101.23 47.78 101.12 48.3 101.12C48.82 101.12 48.82 101.16 49.33 101.16C49.84 101.16 49.85 101.2 50.36 101.2C50.87 101.2 50.88 101.22 51.4 101.22C51.92 101.22 51.92 101.24 52.44 101.24C52.96 101.24 52.96 101.04 53.48 101.04C54 101.04 54 101.17 54.52 101.17C55.04 101.17 55.04 101.19 55.56 101.19C56.08 101.19 56.08 100.99 56.6 100.99C57.12 100.99 57.12 101.18 57.64 101.18C58.16 101.18 58.16 101.11 58.68 101.11C59.2 101.11 59.2 101.2 59.72 101.2C60.24 101.2 60.24 101.14 60.76 101.14C61.28 101.14 61.28 101.21 61.8 101.21C62.32 101.21 62.32 101.13 62.83 101.13C63.34 101.13 63.35 101.13 63.86 101.13C64.37 101.13 64.38 101.2 64.9 101.2C65.42 101.2 65.42 101.07 65.94 101.07C66.46 101.07 66.46 101.14 66.98 101.14C67.5 101.14 67.5 101.12 68.02 101.12C68.54 101.12 68.54 101.18 69.06 101.18C69.58 101.18 69.58 101.18 70.1 101.18C70.62 101.18 70.62 101.11 71.14 101.11C71.66 101.11 71.66 101.07 72.18 101.07C72.7 101.07 72.7 100.94 73.22 100.94C73.74 100.94 73.74 101.03 74.26 101.03C74.78 101.03 74.78 101.1 75.31 101.1C75.84 101.1 75.87 101.26 76.36 101.08C76.85 100.9 76.28 100.71 76.09 100.08C76 99.81 75.96 99.46 75.83 99.09C75.73 98.8 75.4 98.56 75.27 98.21C75.15 97.91 75.07 97.58 74.93 97.25C74.8 96.95 74.81 96.57 74.66 96.25C74.52 95.95 74.2 95.73 74.03 95.42C73.88 95.13 73.85 94.76 73.67 94.45C73.49 94.14 73.42 93.81 73.24 93.52C73.06 93.23 72.89 92.94 72.7 92.65C72.51 92.36 72.28 92.12 72.08 91.83C71.88 91.54 71.58 91.36 71.37 91.08C71.16 90.8 70.95 90.55 70.73 90.29C70.51 90.03 70.34 89.73 70.11 89.47C69.88 89.21 69.78 88.85 69.54 88.6C69.3 88.35 68.95 88.22 68.7 87.98C68.45 87.74 68.24 87.48 67.99 87.24C67.74 87 67.52 86.74 67.26 86.52C67 86.3 66.78 86.02 66.51 85.81C66.24 85.6 65.91 85.48 65.63 85.27C65.35 85.06 65.04 84.92 64.76 84.73C64.48 84.54 64.26 84.25 63.97 84.07C63.68 83.89 63.35 83.78 63.05 83.61C62.75 83.44 62.44 83.31 62.13 83.15C61.82 82.99 61.49 82.91 61.18 82.76C60.87 82.61 60.58 82.45 60.26 82.31C59.94 82.17 59.71 81.86 59.39 81.73C59.07 81.6 58.66 81.76 58.33 81.64C58 81.52 57.75 81.25 57.42 81.14C57.09 81.03 56.79 80.88 56.45 80.79C56.11 80.7 55.74 80.83 55.4 80.75C55.06 80.67 54.73 80.64 54.39 80.57C54.05 80.5 53.77 80.19 53.43 80.13C53.09 80.07 52.72 80.28 52.38 80.23C52.04 80.18 51.73 79.99 51.38 79.96C51.03 79.93 50.7 79.89 50.36 79.87C50.02 79.85 49.68 79.9 49.33 79.88C48.98 79.86 48.65 79.91 48.3 79.91C47.95 79.91 47.62 79.86 47.27 79.86L47.3 79.88Z" fill="white"/>
<path d="M47.3 79.88C46.98 79.88 46.64 79.82 46.27 79.82C45.94 79.82 45.6 79.73 45.24 79.74C44.91 79.74 44.57 79.89 44.21 79.9C43.88 79.9 43.53 79.87 43.18 79.89C42.83 79.91 42.5 79.88 42.15 79.89C41.8 79.9 41.47 79.89 41.12 79.92C40.77 79.95 40.44 80.02 40.1 80.06C39.76 80.1 39.44 80.25 39.09 80.3C38.74 80.35 38.41 80.33 38.06 80.39C37.71 80.45 37.38 80.45 37.03 80.51C36.68 80.57 36.35 80.62 36.01 80.7C35.67 80.78 35.32 80.79 34.99 80.87C34.66 80.95 34.32 81.03 33.99 81.13C33.66 81.23 33.37 81.46 33.05 81.58C32.73 81.7 32.38 81.74 32.05 81.86C31.72 81.98 31.43 82.16 31.11 82.3C30.79 82.44 30.52 82.65 30.2 82.8C29.88 82.95 29.61 83.15 29.31 83.32C29.01 83.49 28.6 83.46 28.3 83.64C28 83.82 27.72 84.01 27.43 84.2C27.14 84.39 26.82 84.54 26.54 84.74C26.26 84.94 26.02 85.2 25.75 85.42C25.48 85.64 25.35 86.01 25.08 86.23C24.81 86.45 24.55 86.66 24.3 86.9C24.05 87.14 23.63 87.2 23.39 87.45C23.15 87.7 22.97 88 22.73 88.26C22.49 88.52 22.28 88.78 22.06 89.05C21.84 89.32 21.79 89.7 21.58 89.98C21.37 90.26 20.98 90.39 20.78 90.68C20.58 90.97 20.42 91.27 20.23 91.56C20.04 91.85 19.93 92.18 19.75 92.48C19.57 92.78 19.48 93.11 19.31 93.42C19.14 93.73 18.89 93.97 18.73 94.28C18.57 94.59 18.34 94.86 18.19 95.17C18.04 95.48 18.08 95.87 17.95 96.19C17.82 96.51 17.55 96.77 17.43 97.09C17.31 97.41 17.32 97.78 17.2 98.11C17.08 98.44 17.06 98.78 16.96 99.12C16.86 99.46 16.58 99.72 16.48 100.06C16.38 100.4 16.33 100.85 16.24 101.19C16.73 101.36 16.8 101.1 17.31 101.1C17.82 101.1 17.83 101.03 18.35 101.03C18.87 101.03 18.87 101.23 19.38 101.23C19.89 101.23 19.9 101.1 20.41 101.1C20.92 101.1 20.93 101.08 21.44 101.08C21.95 101.08 21.96 101.19 22.47 101.19C22.98 101.19 22.99 101.21 23.5 101.21C24.01 101.21 24.02 101.13 24.53 101.13C25.04 101.13 25.05 101.14 25.56 101.14C26.07 101.14 26.08 101.17 26.6 101.17C27.12 101.17 27.12 100.94 27.64 100.94C28.16 100.94 28.15 100.98 28.67 100.98C29.19 100.98 29.18 101.17 29.7 101.17C30.22 101.17 30.22 101 30.73 101C31.24 101 31.25 101.21 31.76 101.21C32.27 101.21 32.28 100.94 32.79 100.94C33.3 100.94 33.31 101.12 33.82 101.12C34.33 101.12 34.34 101.03 34.86 101.03C35.38 101.03 35.38 101.13 35.9 101.13C36.42 101.13 36.42 100.96 36.93 100.96C37.44 100.96 37.45 101 37.96 101C38.47 101 38.48 101.23 38.99 101.23C39.5 101.23 39.51 101.05 40.02 101.05C40.53 101.05 40.54 101.05 41.05 101.05C41.56 101.05 41.57 101.05 42.08 101.05C42.59 101.05 42.6 101.05 43.11 101.05C43.62 101.05 43.63 101.22 44.14 101.22C44.65 101.22 44.66 101.14 45.18 101.14C45.7 101.14 45.7 101.14 46.22 101.14C46.74 101.14 46.74 101.23 47.26 101.23C47.78 101.23 47.78 101.12 48.3 101.12C48.82 101.12 48.82 101.16 49.33 101.16C49.84 101.16 49.85 101.2 50.36 101.2C50.87 101.2 50.88 101.22 51.4 101.22C51.92 101.22 51.92 101.24 52.44 101.24C52.96 101.24 52.96 101.04 53.48 101.04C54 101.04 54 101.17 54.52 101.17C55.04 101.17 55.04 101.19 55.56 101.19C56.08 101.19 56.08 100.99 56.6 100.99C57.12 100.99 57.12 101.18 57.64 101.18C58.16 101.18 58.16 101.11 58.68 101.11C59.2 101.11 59.2 101.2 59.72 101.2C60.24 101.2 60.24 101.14 60.76 101.14C61.28 101.14 61.28 101.21 61.8 101.21C62.32 101.21 62.32 101.13 62.83 101.13C63.34 101.13 63.35 101.13 63.86 101.13C64.37 101.13 64.38 101.2 64.9 101.2C65.42 101.2 65.42 101.07 65.94 101.07C66.46 101.07 66.46 101.14 66.98 101.14C67.5 101.14 67.5 101.12 68.02 101.12C68.54 101.12 68.54 101.18 69.06 101.18C69.58 101.18 69.58 101.18 70.1 101.18C70.62 101.18 70.62 101.11 71.14 101.11C71.66 101.11 71.66 101.07 72.18 101.07C72.7 101.07 72.7 100.94 73.22 100.94C73.74 100.94 73.74 101.03 74.26 101.03C74.78 101.03 74.78 101.1 75.31 101.1C75.84 101.1 75.87 101.26 76.36 101.08C76.85 100.9 76.28 100.71 76.09 100.08C76 99.81 75.96 99.46 75.83 99.09C75.73 98.8 75.4 98.56 75.27 98.21C75.15 97.91 75.07 97.58 74.93 97.25C74.8 96.95 74.81 96.57 74.66 96.25C74.52 95.95 74.2 95.73 74.03 95.42C73.88 95.13 73.85 94.76 73.67 94.45C73.49 94.14 73.42 93.81 73.24 93.52C73.06 93.23 72.89 92.94 72.7 92.65C72.51 92.36 72.28 92.12 72.08 91.83C71.88 91.54 71.58 91.36 71.37 91.08C71.16 90.8 70.95 90.55 70.73 90.29C70.51 90.03 70.34 89.73 70.11 89.47C69.88 89.21 69.78 88.85 69.54 88.6C69.3 88.35 68.95 88.22 68.7 87.98C68.45 87.74 68.24 87.48 67.99 87.24C67.74 87 67.52 86.74 67.26 86.52C67 86.3 66.78 86.02 66.51 85.81C66.24 85.6 65.91 85.48 65.63 85.27C65.35 85.06 65.04 84.92 64.76 84.73C64.48 84.54 64.26 84.25 63.97 84.07C63.68 83.89 63.35 83.78 63.05 83.61C62.75 83.44 62.44 83.31 62.13 83.15C61.82 82.99 61.49 82.91 61.18 82.76C60.87 82.61 60.58 82.45 60.26 82.31C59.94 82.17 59.71 81.86 59.39 81.73C59.07 81.6 58.66 81.76 58.33 81.64C58 81.52 57.75 81.25 57.42 81.14C57.09 81.03 56.79 80.88 56.45 80.79C56.11 80.7 55.74 80.83 55.4 80.75C55.06 80.67 54.73 80.64 54.39 80.57C54.05 80.5 53.77 80.19 53.43 80.13C53.09 80.07 52.72 80.28 52.38 80.23C52.04 80.18 51.73 79.99 51.38 79.96C51.03 79.93 50.7 79.89 50.36 79.87C50.02 79.85 49.68 79.9 49.33 79.88C48.98 79.86 48.65 79.91 48.3 79.91C47.95 79.91 47.62 79.86 47.27 79.86L47.3 79.88Z" stroke="#E1E3E5" stroke-width="1.5" stroke-linecap="round" stroke-linejoin="round"/>
<path d="M23.83 51.73C23.58 51.59 23.26 51.43 22.87 51.31C22.57 51.21 22.23 51.13 21.86 51.06C21.54 51 21.2 50.83 20.84 50.8C20.51 50.77 20.14 50.83 19.79 50.83C19.44 50.83 19.09 50.82 18.74 50.86C18.39 50.9 18.1 51.17 17.76 51.26C17.42 51.35 17.12 51.48 16.8 51.62C16.48 51.76 16.12 51.79 15.82 51.97C15.52 52.15 15.24 52.35 14.97 52.58C14.7 52.81 14.39 52.98 14.16 53.26C13.94 53.52 13.87 53.9 13.68 54.2C13.51 54.48 13.45 54.83 13.3 55.16C13.17 55.46 12.87 55.72 12.77 56.07C12.67 56.39 12.55 56.72 12.48 57.08C12.41 57.41 12.3 57.75 12.26 58.11C12.22 58.47 12.3 58.82 12.29 59.15C12.27 59.5 12.14 59.85 12.15 60.18C12.16 60.53 12.38 60.86 12.42 61.19C12.47 61.54 12.47 61.88 12.55 62.2C12.63 62.54 12.83 62.83 12.95 63.14C13.07 63.47 13.21 63.76 13.36 64.06C13.51 64.36 13.58 64.73 13.77 65C13.96 65.27 14.28 65.47 14.51 65.71C14.74 65.95 14.96 66.21 15.23 66.43C15.5 66.65 15.69 66.97 15.98 67.15C16.27 67.33 16.64 67.37 16.95 67.52C17.26 67.67 17.61 67.69 17.93 67.8C18.25 67.91 18.52 68.23 18.84 68.3C19.16 68.37 19.54 68.31 19.87 68.36C20.2 68.41 20.55 68.49 20.88 68.5C21.23 68.5 21.58 68.63 21.91 68.61C22.26 68.58 22.72 68.42 23.04 68.35C23.21 67.86 23 67.79 23.03 67.27C23.06 66.75 22.9 66.74 22.93 66.23C22.96 65.72 22.92 65.71 22.95 65.2C22.98 64.69 23.25 64.7 23.28 64.19C23.31 63.68 23.11 63.66 23.14 63.15C23.17 62.64 23.24 62.64 23.27 62.12C23.3 61.6 23.23 61.6 23.26 61.08C23.29 60.56 23.4 60.57 23.43 60.05C23.46 59.53 23.48 59.53 23.51 59.01C23.54 58.49 23.5 58.49 23.53 57.97C23.56 57.45 23.47 57.45 23.5 56.93C23.53 56.41 23.55 56.42 23.58 55.9C23.61 55.38 23.77 55.39 23.8 54.87C23.83 54.35 23.85 54.35 23.88 53.83C23.91 53.31 23.73 53.3 23.8 52.78C23.87 52.26 23.96 52.25 23.88 51.74L23.83 51.73Z" fill="#F9E3DC"/>
<path d="M23.83 51.73C23.58 51.59 23.26 51.43 22.87 51.31C22.57 51.21 22.23 51.13 21.86 51.06C21.54 51 21.2 50.83 20.84 50.8C20.51 50.77 20.14 50.83 19.79 50.83C19.44 50.83 19.09 50.82 18.74 50.86C18.39 50.9 18.1 51.17 17.76 51.26C17.42 51.35 17.12 51.48 16.8 51.62C16.48 51.76 16.12 51.79 15.82 51.97C15.52 52.15 15.24 52.35 14.97 52.58C14.7 52.81 14.39 52.98 14.16 53.26C13.94 53.52 13.87 53.9 13.68 54.2C13.51 54.48 13.45 54.83 13.3 55.16C13.17 55.46 12.87 55.72 12.77 56.07C12.67 56.39 12.55 56.72 12.48 57.08C12.41 57.41 12.3 57.75 12.26 58.11C12.22 58.47 12.3 58.82 12.29 59.15C12.27 59.5 12.14 59.85 12.15 60.18C12.16 60.53 12.38 60.86 12.42 61.19C12.47 61.54 12.47 61.88 12.55 62.2C12.63 62.54 12.83 62.83 12.95 63.14C13.07 63.47 13.21 63.76 13.36 64.06C13.51 64.36 13.58 64.73 13.77 65C13.96 65.27 14.28 65.47 14.51 65.71C14.74 65.95 14.96 66.21 15.23 66.43C15.5 66.65 15.69 66.97 15.98 67.15C16.27 67.33 16.64 67.37 16.95 67.52C17.26 67.67 17.61 67.69 17.93 67.8C18.25 67.91 18.52 68.23 18.84 68.3C19.16 68.37 19.54 68.31 19.87 68.36C20.2 68.41 20.55 68.49 20.88 68.5C21.23 68.5 21.58 68.63 21.91 68.61C22.26 68.58 22.72 68.42 23.04 68.35C23.21 67.86 23 67.79 23.03 67.27C23.06 66.75 22.9 66.74 22.93 66.23C22.96 65.72 22.92 65.71 22.95 65.2C22.98 64.69 23.25 64.7 23.28 64.19C23.31 63.68 23.11 63.66 23.14 63.15C23.17 62.64 23.24 62.64 23.27 62.12C23.3 61.6 23.23 61.6 23.26 61.08C23.29 60.56 23.4 60.57 23.43 60.05C23.46 59.53 23.48 59.53 23.51 59.01C23.54 58.49 23.5 58.49 23.53 57.97C23.56 57.45 23.47 57.45 23.5 56.93C23.53 56.41 23.55 56.42 23.58 55.9C23.61 55.38 23.77 55.39 23.8 54.87C23.83 54.35 23.85 54.35 23.88 53.83C23.91 53.31 23.73 53.3 23.8 52.78C23.87 52.26 23.96 52.25 23.88 51.74L23.83 51.73Z" stroke="#F7DAD2" stroke-width="1.5" stroke-linecap="round" stroke-linejoin="round"/>
<path d="M38.41 78.41C38.44 78.77 38.55 79.05 38.63 79.38C38.72 79.72 38.87 80.02 39.01 80.32C39.15 80.62 39.2 81.01 39.41 81.29C39.62 81.57 39.99 81.68 40.25 81.91C40.51 82.14 40.74 82.37 41.04 82.56C41.34 82.75 41.62 82.9 41.93 83.05C42.24 83.2 42.48 83.51 42.8 83.63C43.12 83.75 43.47 83.82 43.8 83.91C44.13 84 44.49 83.98 44.83 84.05C45.17 84.12 45.51 84.15 45.85 84.2C46.19 84.25 46.53 84.35 46.87 84.39C47.21 84.43 47.56 84.41 47.92 84.4C48.28 84.39 48.61 84.34 48.96 84.29C49.31 84.24 49.65 84.18 49.99 84.09C50.33 84 50.73 84.09 51.06 83.96C51.39 83.83 51.65 83.54 51.97 83.38C52.29 83.22 52.66 83.16 52.96 82.97C53.26 82.78 53.58 82.59 53.85 82.36C54.12 82.13 54.27 81.77 54.51 81.51C54.75 81.25 55.03 81.02 55.23 80.72C55.43 80.42 55.45 80.04 55.6 79.72C55.75 79.4 55.89 79.09 55.98 78.74C56.07 78.39 56.16 78.07 56.19 77.7C55.69 77.54 55.67 77.66 55.14 77.68C54.61 77.7 54.62 77.85 54.1 77.87C53.58 77.89 53.58 77.93 53.06 77.95C52.54 77.97 52.53 77.75 52.01 77.77C51.49 77.79 51.5 78.02 50.98 78.04C50.46 78.06 50.46 78.01 49.94 78.04C49.42 78.07 49.41 77.98 48.89 78C48.37 78.02 48.37 78.03 47.85 78.04C47.33 78.05 47.33 78.04 46.8 78.05C46.27 78.06 46.28 78.06 45.75 78.08C45.22 78.1 45.23 78.16 44.71 78.18C44.19 78.2 44.19 78.22 43.66 78.24C43.13 78.26 43.13 78.15 42.61 78.17C42.09 78.19 42.08 78.12 41.56 78.14C41.04 78.16 41.04 78.38 40.52 78.4C40 78.42 39.98 78.51 39.46 78.49C38.94 78.47 38.92 78.23 38.43 78.42L38.41 78.41Z" fill="#F9E3DC"/>
<path d="M38.41 78.41C38.44 78.77 38.55 79.05 38.63 79.38C38.72 79.72 38.87 80.02 39.01 80.32C39.15 80.62 39.2 81.01 39.41 81.29C39.62 81.57 39.99 81.68 40.25 81.91C40.51 82.14 40.74 82.37 41.04 82.56C41.34 82.75 41.62 82.9 41.93 83.05C42.24 83.2 42.48 83.51 42.8 83.63C43.12 83.75 43.47 83.82 43.8 83.91C44.13 84 44.49 83.98 44.83 84.05C45.17 84.12 45.51 84.15 45.85 84.2C46.19 84.25 46.53 84.35 46.87 84.39C47.21 84.43 47.56 84.41 47.92 84.4C48.28 84.39 48.61 84.34 48.96 84.29C49.31 84.24 49.65 84.18 49.99 84.09C50.33 84 50.73 84.09 51.06 83.96C51.39 83.83 51.65 83.54 51.97 83.38C52.29 83.22 52.66 83.16 52.96 82.97C53.26 82.78 53.58 82.59 53.85 82.36C54.12 82.13 54.27 81.77 54.51 81.51C54.75 81.25 55.03 81.02 55.23 80.72C55.43 80.42 55.45 80.04 55.6 79.72C55.75 79.4 55.89 79.09 55.98 78.74C56.07 78.39 56.16 78.07 56.19 77.7C55.69 77.54 55.67 77.66 55.14 77.68C54.61 77.7 54.62 77.85 54.1 77.87C53.58 77.89 53.58 77.93 53.06 77.95C52.54 77.97 52.53 77.75 52.01 77.77C51.49 77.79 51.5 78.02 50.98 78.04C50.46 78.06 50.46 78.01 49.94 78.04C49.42 78.07 49.41 77.98 48.89 78C48.37 78.02 48.37 78.03 47.85 78.04C47.33 78.05 47.33 78.04 46.8 78.05C46.27 78.06 46.28 78.06 45.75 78.08C45.22 78.1 45.23 78.16 44.71 78.18C44.19 78.2 44.19 78.22 43.66 78.24C43.13 78.26 43.13 78.15 42.61 78.17C42.09 78.19 42.08 78.12 41.56 78.14C41.04 78.16 41.04 78.38 40.52 78.4C40 78.42 39.98 78.51 39.46 78.49C38.94 78.47 38.92 78.23 38.43 78.42L38.41 78.41Z" stroke="#F7DAD2" stroke-width="1.5" stroke-linecap="round" stroke-linejoin="round"/>
<path d="M22.43 51.58C22.29 51.87 21.99 52.12 21.84 52.44C21.7 52.74 21.6 53.07 21.45 53.38C21.3 53.69 21.26 54.03 21.12 54.35C20.98 54.67 20.68 54.9 20.55 55.22C20.42 55.54 20.33 55.86 20.21 56.18C20.09 56.5 19.91 56.8 19.81 57.12C19.71 57.44 19.79 57.82 19.7 58.15C19.61 58.48 19.41 58.77 19.33 59.11C19.25 59.45 19.33 59.8 19.27 60.14C19.21 60.48 19.18 60.81 19.14 61.14C19.1 61.47 18.89 61.79 18.87 62.13C18.85 62.47 18.92 62.81 18.92 63.15C18.92 63.49 18.98 63.82 19 64.16C19.02 64.5 18.95 64.84 19 65.18C19.05 65.52 19.18 65.83 19.25 66.17C19.32 66.51 19.33 66.85 19.43 67.17C19.53 67.49 19.55 67.85 19.68 68.17C19.81 68.49 20.15 68.7 20.31 69C20.47 69.3 20.4 69.72 20.59 70.02C20.78 70.32 21.12 70.48 21.32 70.76C21.52 71.04 21.75 71.27 21.98 71.53C22.21 71.79 22.27 72.18 22.52 72.42C22.77 72.66 23.06 72.84 23.31 73.07C23.56 73.3 23.85 73.47 24.13 73.69C24.41 73.91 24.6 74.18 24.88 74.39C25.16 74.6 25.47 74.72 25.76 74.91C26.05 75.1 26.29 75.34 26.59 75.51C26.89 75.68 27.21 75.79 27.51 75.95C27.81 76.11 28.12 76.22 28.44 76.38C28.76 76.54 29.09 76.57 29.41 76.72C29.73 76.87 29.93 77.21 30.25 77.35C30.57 77.49 30.92 77.49 31.24 77.62C31.56 77.75 31.87 77.86 32.19 77.98C32.51 78.1 32.85 78.11 33.18 78.22C33.51 78.33 33.78 78.57 34.11 78.67C34.44 78.77 34.73 78.96 35.06 79.06C35.39 79.16 35.72 79.23 36.05 79.32C36.38 79.41 36.72 79.43 37.06 79.51C37.4 79.59 37.76 79.47 38.1 79.55C38.44 79.63 38.7 79.96 39.04 80.03C39.38 80.1 39.73 80.05 40.07 80.12C40.41 80.19 40.74 80.21 41.08 80.27C41.42 80.33 41.74 80.43 42.08 80.49C42.42 80.55 42.75 80.61 43.09 80.67C43.43 80.73 43.76 80.84 44.1 80.88C44.44 80.92 44.8 80.82 45.14 80.85C45.48 80.88 45.81 81.09 46.15 81.11C46.49 81.13 46.84 81.19 47.18 81.2C47.52 81.21 47.87 81.04 48.21 81.03C48.55 81.02 48.89 80.91 49.23 80.89C49.57 80.87 49.93 81.09 50.27 81.06C50.61 81.03 50.94 80.83 51.28 80.79C51.62 80.75 51.98 80.85 52.32 80.79C52.66 80.73 53.01 80.7 53.34 80.64C53.6701 80.58 53.98 80.33 54.3101 80.26C54.6401 80.19 55.02 80.26 55.35 80.19C55.68 80.12 55.97 79.84 56.3 79.75C56.6301 79.66 56.9901 79.65 57.3101 79.55C57.6301 79.45 57.9701 79.35 58.2901 79.24C58.6101 79.13 58.9701 79.1 59.2901 78.98C59.6101 78.86 59.9001 78.64 60.2201 78.52C60.5401 78.4 60.87 78.28 61.18 78.15C61.4901 78.02 61.7901 77.81 62.09 77.67C62.39 77.53 62.75 77.45 63.05 77.3C63.35 77.15 63.7001 77.04 63.9901 76.89C64.2801 76.74 64.5601 76.49 64.8601 76.33C65.1701 76.16 65.5401 76.11 65.8301 75.94C66.1401 75.76 66.4701 75.64 66.75 75.47C67.0601 75.29 67.3001 75.02 67.5801 74.85C67.8901 74.66 68.12 74.39 68.39 74.21C68.7001 74 68.95 73.76 69.2 73.58C69.52 73.35 69.79 73.14 70.02 72.97C70.54 72.58 70.4501 72.71 70.93 72.55C71.41 72.39 71.2901 72.45 71.9401 72.38C72.2401 72.35 72.56 72.16 72.95 72.08C73.27 72.02 73.6201 72.02 73.9801 71.92C74.3001 71.83 74.62 71.7 74.96 71.57C75.2701 71.45 75.6101 71.36 75.9401 71.21C76.2501 71.06 76.64 71.04 76.95 70.86C77.24 70.69 77.46 70.36 77.75 70.15C78.0401 69.94 78.29 69.72 78.56 69.48C78.83 69.24 79.02 68.97 79.27 68.72C79.52 68.47 79.7401 68.23 79.9701 67.95C80.18 67.69 80.41 67.43 80.6101 67.13C80.8101 66.83 80.9701 66.55 81.1501 66.24C81.32 65.94 81.45 65.62 81.6 65.3C81.74 64.99 82.01 64.73 82.14 64.39C82.2701 64.05 82.35 63.73 82.45 63.38C82.55 63.05 82.7101 62.73 82.8001 62.38C82.8901 62.03 82.93 61.7 82.98 61.37C83.0301 61.02 82.91 60.67 82.93 60.35C82.95 60 82.94 59.67 82.93 59.35C82.91 59 82.9301 58.67 82.8601 58.35C82.7901 58.01 82.7201 57.68 82.6201 57.37C82.5101 57.04 82.28 56.79 82.13 56.49C81.98 56.19 81.91 55.84 81.7201 55.57C81.5301 55.3 81.32 55.03 81.1 54.78C80.88 54.53 80.6201 54.31 80.3701 54.08C80.1201 53.85 79.8 53.72 79.53 53.53C79.26 53.34 79.0101 53.1 78.7301 52.93C78.4301 52.75 78.2001 52.46 77.9101 52.32C77.5901 52.17 77.23 52.16 76.93 52.05C76.5801 51.92 76.2601 51.85 75.9701 51.78C75.5601 51.68 75.2501 51.54 75.0101 51.54C74.6501 51.18 74.92 51.18 74.63 50.59C74.5 50.33 74.2601 50.07 74.0501 49.73C73.8901 49.46 73.78 49.13 73.56 48.82C73.38 48.56 73.2101 48.25 72.9801 47.96C72.7801 47.7 72.51 47.48 72.27 47.21C72.05 46.96 71.78 46.75 71.52 46.5C71.29 46.27 71.1301 45.93 70.8601 45.69C70.6101 45.47 70.34 45.24 70.07 45.02C69.8101 44.81 69.5 44.64 69.2201 44.43C68.9501 44.23 68.5801 44.16 68.2901 43.96C68 43.76 67.7701 43.51 67.4701 43.33C67.1701 43.15 66.8201 43.1 66.5101 42.93C66.2001 42.76 66.02 42.4 65.7 42.25C65.38 42.1 65.0401 42.05 64.7201 41.9C64.4001 41.75 64.0701 41.7 63.7401 41.57C63.41 41.44 63.09 41.37 62.76 41.25C62.43 41.13 62.1201 41.02 61.7901 40.91C61.46 40.8 61.23 40.42 60.89 40.33C60.55 40.24 60.2001 40.25 59.8601 40.16C59.5201 40.07 59.19 40.05 58.84 39.97C58.4901 39.89 58.2001 39.69 57.8601 39.62C57.5201 39.55 57.18 39.51 56.84 39.44C56.5 39.37 56.16 39.37 55.8101 39.31C55.4601 39.25 55.14 39.17 54.7901 39.13C54.4401 39.09 54.09 39.18 53.75 39.15C53.41 39.12 53.07 39.08 52.7201 39.05C52.3701 39.02 52.05 38.86 51.7001 38.84C51.3501 38.82 51.01 38.84 50.66 38.82C50.31 38.8 49.97 38.81 49.62 38.8C49.27 38.79 48.93 38.87 48.58 38.87C48.23 38.87 47.89 38.87 47.55 38.87C47.21 38.87 46.86 38.82 46.52 38.83C46.18 38.84 45.83 38.97 45.49 38.99C45.15 39.01 44.8 38.99 44.46 39.01C44.12 39.03 43.77 39.09 43.43 39.12C43.09 39.15 42.71 38.95 42.37 38.98C42.03 39.01 41.68 39.09 41.34 39.13C41 39.17 40.66 39.33 40.33 39.38C40 39.43 39.62 39.38 39.29 39.44C38.96 39.5 38.66 39.84 38.33 39.91C38 39.98 37.63 39.97 37.3 40.05C36.97 40.13 36.6 40.14 36.27 40.23C35.94 40.32 35.65 40.59 35.33 40.69C35.01 40.79 34.6 40.7 34.28 40.82C33.96 40.94 33.68 41.21 33.37 41.34C33.06 41.47 32.68 41.5 32.37 41.64C32.06 41.78 31.74 41.94 31.44 42.09C31.14 42.24 30.83 42.44 30.54 42.61C30.25 42.78 29.95 42.99 29.67 43.17C29.39 43.35 29.04 43.48 28.76 43.67C28.47 43.87 28.26 44.17 27.99 44.38C27.71 44.59 27.39 44.75 27.14 44.96C26.87 45.19 26.72 45.53 26.47 45.76C26.21 46 25.82 46.1 25.59 46.34C25.34 46.6 25.08 46.84 24.87 47.09C24.64 47.36 24.62 47.79 24.42 48.05C24.2 48.34 23.99 48.61 23.82 48.88C23.61 49.19 23.36 49.44 23.21 49.71C23.02 50.06 22.82 50.35 22.7 50.61C22.43 51.2 22.62 51.12 22.44 51.6L22.43 51.58Z" fill="#F9EDEA"/>
<path d="M22.43 51.58C22.29 51.87 21.99 52.12 21.84 52.44C21.7 52.74 21.6 53.07 21.45 53.38C21.3 53.69 21.26 54.03 21.12 54.35C20.98 54.67 20.68 54.9 20.55 55.22C20.42 55.54 20.33 55.86 20.21 56.18C20.09 56.5 19.91 56.8 19.81 57.12C19.71 57.44 19.79 57.82 19.7 58.15C19.61 58.48 19.41 58.77 19.33 59.11C19.25 59.45 19.33 59.8 19.27 60.14C19.21 60.48 19.18 60.81 19.14 61.14C19.1 61.47 18.89 61.79 18.87 62.13C18.85 62.47 18.92 62.81 18.92 63.15C18.92 63.49 18.98 63.82 19 64.16C19.02 64.5 18.95 64.84 19 65.18C19.05 65.52 19.18 65.83 19.25 66.17C19.32 66.51 19.33 66.85 19.43 67.17C19.53 67.49 19.55 67.85 19.68 68.17C19.81 68.49 20.15 68.7 20.31 69C20.47 69.3 20.4 69.72 20.59 70.02C20.78 70.32 21.12 70.48 21.32 70.76C21.52 71.04 21.75 71.27 21.98 71.53C22.21 71.79 22.27 72.18 22.52 72.42C22.77 72.66 23.06 72.84 23.31 73.07C23.56 73.3 23.85 73.47 24.13 73.69C24.41 73.91 24.6 74.18 24.88 74.39C25.16 74.6 25.47 74.72 25.76 74.91C26.05 75.1 26.29 75.34 26.59 75.51C26.89 75.68 27.21 75.79 27.51 75.95C27.81 76.11 28.12 76.22 28.44 76.38C28.76 76.54 29.09 76.57 29.41 76.72C29.73 76.87 29.93 77.21 30.25 77.35C30.57 77.49 30.92 77.49 31.24 77.62C31.56 77.75 31.87 77.86 32.19 77.98C32.51 78.1 32.85 78.11 33.18 78.22C33.51 78.33 33.78 78.57 34.11 78.67C34.44 78.77 34.73 78.96 35.06 79.06C35.39 79.16 35.72 79.23 36.05 79.32C36.38 79.41 36.72 79.43 37.06 79.51C37.4 79.59 37.76 79.47 38.1 79.55C38.44 79.63 38.7 79.96 39.04 80.03C39.38 80.1 39.73 80.05 40.07 80.12C40.41 80.19 40.74 80.21 41.08 80.27C41.42 80.33 41.74 80.43 42.08 80.49C42.42 80.55 42.75 80.61 43.09 80.67C43.43 80.73 43.76 80.84 44.1 80.88C44.44 80.92 44.8 80.82 45.14 80.85C45.48 80.88 45.81 81.09 46.15 81.11C46.49 81.13 46.84 81.19 47.18 81.2C47.52 81.21 47.87 81.04 48.21 81.03C48.55 81.02 48.89 80.91 49.23 80.89C49.57 80.87 49.93 81.09 50.27 81.06C50.61 81.03 50.94 80.83 51.28 80.79C51.62 80.75 51.98 80.85 52.32 80.79C52.66 80.73 53.01 80.7 53.34 80.64C53.67 80.58 53.9801 80.33 54.3101 80.26C54.6401 80.19 55.02 80.26 55.35 80.19C55.68 80.12 55.97 79.84 56.3 79.75C56.63 79.66 56.9901 79.65 57.3101 79.55C57.6301 79.45 57.9701 79.35 58.2901 79.24C58.6101 79.13 58.9701 79.1 59.2901 78.98C59.6101 78.86 59.9001 78.64 60.2201 78.52C60.5401 78.4 60.87 78.28 61.18 78.15C61.49 78.02 61.79 77.81 62.09 77.67C62.39 77.53 62.75 77.45 63.05 77.3C63.35 77.15 63.7001 77.04 63.9901 76.89C64.2801 76.74 64.5601 76.49 64.8601 76.33C65.1701 76.16 65.5401 76.11 65.8301 75.94C66.1401 75.76 66.47 75.64 66.75 75.47C67.06 75.29 67.3001 75.02 67.5801 74.85C67.8901 74.66 68.12 74.39 68.39 74.21C68.7 74 68.95 73.76 69.2 73.58C69.52 73.35 69.79 73.14 70.02 72.97C70.54 72.58 70.45 72.71 70.93 72.55C71.41 72.39 71.2901 72.45 71.9401 72.38C72.2401 72.35 72.56 72.16 72.95 72.08C73.27 72.02 73.6201 72.02 73.9801 71.92C74.3001 71.83 74.62 71.7 74.96 71.57C75.27 71.45 75.6101 71.36 75.9401 71.21C76.2501 71.06 76.64 71.04 76.95 70.86C77.24 70.69 77.46 70.36 77.75 70.15C78.04 69.94 78.29 69.72 78.56 69.48C78.83 69.24 79.02 68.97 79.27 68.72C79.52 68.47 79.7401 68.23 79.9701 67.95C80.1801 67.69 80.4101 67.43 80.6101 67.13C80.8101 66.83 80.9701 66.55 81.1501 66.24C81.3201 65.94 81.45 65.62 81.6 65.3C81.74 64.99 82.01 64.73 82.14 64.39C82.27 64.05 82.35 63.73 82.45 63.38C82.55 63.05 82.7101 62.73 82.8001 62.38C82.8901 62.03 82.93 61.7 82.98 61.37C83.03 61.02 82.91 60.67 82.93 60.35C82.95 60 82.94 59.67 82.93 59.35C82.91 59 82.9301 58.67 82.8601 58.35C82.7901 58.01 82.7201 57.68 82.6201 57.37C82.5101 57.04 82.28 56.79 82.13 56.49C81.98 56.19 81.9101 55.84 81.7201 55.57C81.5301 55.3 81.32 55.03 81.1 54.78C80.88 54.53 80.6201 54.31 80.3701 54.08C80.1201 53.85 79.8 53.72 79.53 53.53C79.26 53.34 79.0101 53.1 78.7301 52.93C78.4301 52.75 78.2001 52.46 77.9101 52.32C77.5901 52.17 77.23 52.16 76.93 52.05C76.58 51.92 76.2601 51.85 75.9701 51.78C75.5601 51.68 75.2501 51.54 75.0101 51.54C74.6501 51.18 74.92 51.18 74.63 50.59C74.5 50.33 74.2601 50.07 74.0501 49.73C73.8901 49.46 73.78 49.13 73.56 48.82C73.38 48.56 73.2101 48.25 72.9801 47.96C72.7801 47.7 72.51 47.48 72.27 47.21C72.05 46.96 71.78 46.75 71.52 46.5C71.29 46.27 71.1301 45.93 70.8601 45.69C70.6101 45.47 70.34 45.24 70.07 45.02C69.81 44.81 69.5001 44.64 69.2201 44.43C68.9501 44.23 68.5801 44.16 68.2901 43.96C68.0001 43.76 67.7701 43.51 67.4701 43.33C67.1701 43.15 66.8201 43.1 66.5101 42.93C66.2001 42.76 66.02 42.4 65.7 42.25C65.38 42.1 65.0401 42.05 64.7201 41.9C64.4001 41.75 64.0701 41.7 63.7401 41.57C63.4101 41.44 63.09 41.37 62.76 41.25C62.43 41.13 62.1201 41.02 61.7901 40.91C61.4601 40.8 61.23 40.42 60.89 40.33C60.55 40.24 60.2001 40.25 59.8601 40.16C59.5201 40.07 59.19 40.05 58.84 39.97C58.49 39.89 58.2001 39.69 57.8601 39.62C57.5201 39.55 57.18 39.51 56.84 39.44C56.5 39.37 56.1601 39.37 55.8101 39.31C55.4601 39.25 55.1401 39.17 54.7901 39.13C54.4401 39.09 54.09 39.18 53.75 39.15C53.41 39.12 53.0701 39.08 52.7201 39.05C52.3701 39.02 52.0501 38.86 51.7001 38.84C51.3501 38.82 51.01 38.84 50.66 38.82C50.31 38.8 49.97 38.81 49.62 38.8C49.27 38.79 48.93 38.87 48.58 38.87C48.23 38.87 47.89 38.87 47.55 38.87C47.21 38.87 46.86 38.82 46.52 38.83C46.18 38.84 45.83 38.97 45.49 38.99C45.15 39.01 44.8 38.99 44.46 39.01C44.12 39.03 43.77 39.09 43.43 39.12C43.09 39.15 42.71 38.95 42.37 38.98C42.03 39.01 41.68 39.09 41.34 39.13C41 39.17 40.66 39.33 40.33 39.38C40 39.43 39.62 39.38 39.29 39.44C38.96 39.5 38.66 39.84 38.33 39.91C38 39.98 37.63 39.97 37.3 40.05C36.97 40.13 36.6 40.14 36.27 40.23C35.94 40.32 35.65 40.59 35.33 40.69C35.01 40.79 34.6 40.7 34.28 40.82C33.96 40.94 33.68 41.21 33.37 41.34C33.06 41.47 32.68 41.5 32.37 41.64C32.06 41.78 31.74 41.94 31.44 42.09C31.14 42.24 30.83 42.44 30.54 42.61C30.25 42.78 29.95 42.99 29.67 43.17C29.39 43.35 29.04 43.48 28.76 43.67C28.47 43.87 28.26 44.17 27.99 44.38C27.71 44.59 27.39 44.75 27.14 44.96C26.87 45.19 26.72 45.53 26.47 45.76C26.21 46 25.82 46.1 25.59 46.34C25.34 46.6 25.08 46.84 24.87 47.09C24.64 47.36 24.62 47.79 24.42 48.05C24.2 48.34 23.99 48.61 23.82 48.88C23.61 49.19 23.36 49.44 23.21 49.71C23.02 50.06 22.82 50.35 22.7 50.61C22.43 51.2 22.62 51.12 22.44 51.6L22.43 51.58Z" stroke="#F9E3DC" stroke-width="1.5" stroke-linecap="round" stroke-linejoin="round"/>
<path d="M37.75 30.87C37.27 30.71 37.31 30.94 36.74 30.68C36.48 30.56 36.16 30.4 35.83 30.22C35.55 30.07 35.34 29.75 35.04 29.56C34.77 29.39 34.53 29.15 34.24 28.95C33.98 28.76 33.74 28.52 33.48 28.3C33.22 28.08 32.87 27.98 32.64 27.73C32.41 27.48 32.08 27.32 31.87 27.05C31.66 26.78 31.7 26.35 31.52 26.06C31.34 25.77 31.18 25.5 31.03 25.19C30.88 24.88 30.69 24.61 30.6 24.28C30.51 23.95 30.53 23.62 30.47 23.28C30.41 22.94 30.38 22.63 30.37 22.29C30.37 21.96 30.23 21.63 30.26 21.28C30.29 20.96 30.49 20.65 30.56 20.3C30.62 19.98 30.7 19.66 30.8 19.33C30.89 19.02 31.01 18.71 31.13 18.39C31.25 18.09 31.37 17.78 31.52 17.46C31.66 17.16 31.67 16.79 31.84 16.48C32.01 16.17 32.23 15.89 32.41 15.61C32.61 15.31 32.75 14.98 32.97 14.72C33.2 14.45 33.6 14.35 33.84 14.11C34.08 13.87 34.27 13.55 34.54 13.34C34.81 13.13 35.14 12.99 35.43 12.81C35.72 12.63 35.99 12.4 36.3 12.25C36.61 12.1 36.88 11.83 37.21 11.71C37.54 11.59 37.9299 11.68 38.2599 11.59C38.5899 11.5 38.9199 11.36 39.2599 11.31C39.5999 11.26 39.95 11.27 40.3 11.24C40.65 11.21 40.99 11.22 41.33 11.22C41.67 11.22 42.0199 11.14 42.37 11.15C42.72 11.16 43.06 11.21 43.4 11.25C43.74 11.29 44.0799 11.37 44.4199 11.42C44.7599 11.47 45.11 11.52 45.45 11.58C45.79 11.64 46.11 11.79 46.45 11.87C46.79 11.95 47.15 11.94 47.48 12.03C47.81 12.12 48.19 12.11 48.52 12.21C48.86 12.32 49.21 12.39 49.52 12.51C49.86 12.63 50.12 12.93 50.43 13.05C50.78 13.18 51.16 13.18 51.45 13.3C51.81 13.46 52.1 13.68 52.37 13.8C52.96 14.07 52.81 14.08 53.29 14.26C53.77 14.44 53.77 14.42 54.26 14.57C54.75 14.72 54.71 14.86 55.2 15.01C55.69 15.16 55.72 15.07 56.21 15.22C56.7 15.37 56.7 15.36 57.19 15.5C57.68 15.64 57.73 15.5 58.22 15.65C58.71 15.8 58.64 16.02 59.13 16.16C59.62 16.3 59.61 16.35 60.1 16.5C60.59 16.65 60.67 16.38 61.16 16.53C61.65 16.68 61.64 16.71 62.13 16.86C62.62 17.01 62.6099 17.03 63.0999 17.18C63.59 17.33 63.5299 17.54 64.0199 17.69C64.5099 17.84 64.5799 17.61 65.07 17.75C65.56 17.89 65.5299 17.99 66.0199 18.14C66.5099 18.29 66.4699 18.42 66.9599 18.57C67.45 18.72 67.5099 18.52 68 18.67C68.49 18.82 68.4899 18.81 68.9899 18.96C69.4899 19.11 69.4799 19.1 69.97 19.25C70.46 19.4 70.4599 19.4 70.9499 19.55C71.4399 19.7 71.3999 19.84 71.8899 19.99C72.38 20.14 72.42 20.03 72.91 20.18C73.4 20.33 73.34 20.62 73.8499 20.7C74.3599 20.78 74.24 20.42 74.86 20.32C75.15 20.28 75.5 20.35 75.8899 20.32C76.2 20.29 76.54 20.15 76.9 20.14C77.22 20.14 77.57 20.16 77.9199 20.17C78.25 20.18 78.57 20.38 78.9199 20.41C79.2699 20.44 79.63 20.21 79.97 20.28C80.31 20.35 80.6399 20.45 80.97 20.54C81.3 20.63 81.58 20.87 81.9 20.99C82.22 21.11 82.56 21.18 82.87 21.34C83.18 21.5 83.44 21.72 83.72 21.91C84 22.1 84.35 22.22 84.61 22.45C84.8699 22.68 85.09 22.94 85.32 23.21C85.5499 23.48 85.66 23.8 85.86 24.1C86.04 24.37 86.24 24.66 86.4 24.97C86.55 25.26 86.56 25.62 86.69 25.95C86.81 26.26 86.9899 26.55 87.0899 26.88C87.1799 27.2 87.2799 27.52 87.3499 27.87C87.4199 28.19 87.5 28.53 87.55 28.88C87.59 29.21 87.6699 29.54 87.6999 29.9C87.7299 30.23 87.7 30.58 87.72 30.93C87.72 31.26 87.67 31.61 87.66 31.96C87.65 32.31 87.6899 32.65 87.6699 32.97C87.6499 33.32 87.58 33.65 87.54 33.97C87.5 34.32 87.3699 34.63 87.3099 34.95C87.2499 35.29 87.2 35.62 87.12 35.94C87.03 36.28 87.1299 36.66 87.0299 36.97C86.9199 37.3 86.67 37.57 86.54 37.87C86.4 38.19 86.2 38.46 86.04 38.75C85.86 39.05 85.75 39.38 85.55 39.64C85.34 39.92 85.1499 40.21 84.9199 40.44C84.6899 40.67 84.3699 40.86 84.11 41.06C83.85 41.26 83.5 41.36 83.22 41.53C82.94 41.7 82.67 41.93 82.37 42.06C82.07 42.19 81.7399 42.3 81.4199 42.4C81.0999 42.5 80.79 42.66 80.4599 42.73C80.1299 42.8 79.78 42.72 79.44 42.75C79.1 42.78 78.78 43 78.44 43.01C78.1 43.02 77.76 42.94 77.43 42.92C77.0999 42.9 76.77 42.74 76.44 42.7C76.11 42.66 75.7699 42.59 75.4499 42.53C75.1299 42.47 74.79 42.38 74.47 42.3C74.13 42.21 73.78 42.2 73.48 42.1C73.15 41.98 72.79 41.94 72.5 41.81C72.1699 41.66 71.9399 41.35 71.68 41.2C71.34 40.99 71.0199 40.85 70.8399 40.65" fill="white"/>
<path d="M37.75 30.87C37.27 30.71 37.31 30.94 36.74 30.68C36.48 30.56 36.16 30.4 35.83 30.22C35.55 30.07 35.34 29.75 35.04 29.56C34.77 29.39 34.53 29.15 34.24 28.95C33.98 28.76 33.74 28.52 33.48 28.3C33.22 28.08 32.87 27.98 32.64 27.73C32.41 27.48 32.08 27.32 31.87 27.05C31.66 26.78 31.7 26.35 31.52 26.06C31.34 25.77 31.18 25.5 31.03 25.19C30.88 24.88 30.69 24.61 30.6 24.28C30.51 23.95 30.53 23.62 30.47 23.28C30.41 22.94 30.38 22.63 30.37 22.29C30.37 21.96 30.23 21.63 30.26 21.28C30.29 20.96 30.49 20.65 30.56 20.3C30.62 19.98 30.7 19.66 30.8 19.33C30.89 19.02 31.01 18.71 31.13 18.39C31.25 18.09 31.37 17.78 31.52 17.46C31.66 17.16 31.67 16.79 31.84 16.48C32.01 16.17 32.23 15.89 32.41 15.61C32.61 15.31 32.75 14.98 32.97 14.72C33.2 14.45 33.6 14.35 33.84 14.11C34.08 13.87 34.27 13.55 34.54 13.34C34.81 13.13 35.14 12.99 35.43 12.81C35.72 12.63 35.99 12.4 36.3 12.25C36.61 12.1 36.88 11.83 37.21 11.71C37.54 11.59 37.9299 11.68 38.2599 11.59C38.5899 11.5 38.9199 11.36 39.2599 11.31C39.5999 11.26 39.95 11.27 40.3 11.24C40.65 11.21 40.99 11.22 41.33 11.22C41.67 11.22 42.02 11.14 42.37 11.15C42.72 11.16 43.06 11.21 43.4 11.25C43.74 11.29 44.0799 11.37 44.4199 11.42C44.7599 11.47 45.11 11.52 45.45 11.58C45.79 11.64 46.11 11.79 46.45 11.87C46.79 11.95 47.15 11.94 47.48 12.03C47.81 12.12 48.19 12.11 48.52 12.21C48.86 12.32 49.21 12.39 49.52 12.51C49.86 12.63 50.12 12.93 50.43 13.05C50.78 13.18 51.16 13.18 51.45 13.3C51.81 13.46 52.1 13.68 52.37 13.8C52.96 14.07 52.81 14.08 53.29 14.26C53.77 14.44 53.77 14.42 54.26 14.57C54.75 14.72 54.71 14.86 55.2 15.01C55.69 15.16 55.72 15.07 56.21 15.22C56.7 15.37 56.7 15.36 57.19 15.5C57.68 15.64 57.73 15.5 58.22 15.65C58.71 15.8 58.64 16.02 59.13 16.16C59.62 16.3 59.61 16.35 60.1 16.5C60.59 16.65 60.67 16.38 61.16 16.53C61.65 16.68 61.64 16.71 62.13 16.86C62.62 17.01 62.6099 17.03 63.0999 17.18C63.5899 17.33 63.5299 17.54 64.0199 17.69C64.5099 17.84 64.58 17.61 65.07 17.75C65.56 17.89 65.5299 17.99 66.0199 18.14C66.5099 18.29 66.4699 18.42 66.9599 18.57C67.4499 18.72 67.51 18.52 68 18.67C68.49 18.82 68.4899 18.81 68.9899 18.96C69.4899 19.11 69.48 19.1 69.97 19.25C70.46 19.4 70.4599 19.4 70.9499 19.55C71.4399 19.7 71.3999 19.84 71.8899 19.99C72.3799 20.14 72.42 20.03 72.91 20.18C73.4 20.33 73.3399 20.62 73.8499 20.7C74.3599 20.78 74.24 20.42 74.86 20.32C75.15 20.28 75.4999 20.35 75.8899 20.32C76.1999 20.29 76.54 20.15 76.9 20.14C77.22 20.14 77.5699 20.16 77.9199 20.17C78.2499 20.18 78.5699 20.38 78.9199 20.41C79.2699 20.44 79.63 20.21 79.97 20.28C80.31 20.35 80.64 20.45 80.97 20.54C81.3 20.63 81.58 20.87 81.9 20.99C82.22 21.11 82.56 21.18 82.87 21.34C83.18 21.5 83.44 21.72 83.72 21.91C84 22.1 84.35 22.22 84.61 22.45C84.87 22.68 85.09 22.94 85.32 23.21C85.55 23.48 85.66 23.8 85.86 24.1C86.04 24.37 86.24 24.66 86.4 24.97C86.55 25.26 86.56 25.62 86.69 25.95C86.81 26.26 86.9899 26.55 87.0899 26.88C87.1799 27.2 87.2799 27.52 87.3499 27.87C87.4199 28.19 87.5 28.53 87.55 28.88C87.59 29.21 87.6699 29.54 87.6999 29.9C87.7299 30.23 87.7 30.58 87.72 30.93C87.72 31.26 87.67 31.61 87.66 31.96C87.65 32.31 87.6899 32.65 87.6699 32.97C87.6499 33.32 87.58 33.65 87.54 33.97C87.5 34.32 87.3699 34.63 87.3099 34.95C87.2499 35.29 87.2 35.62 87.12 35.94C87.03 36.28 87.1299 36.66 87.0299 36.97C86.9199 37.3 86.67 37.57 86.54 37.87C86.4 38.19 86.2 38.46 86.04 38.75C85.86 39.05 85.75 39.38 85.55 39.64C85.34 39.92 85.1499 40.21 84.9199 40.44C84.6899 40.67 84.37 40.86 84.11 41.06C83.85 41.26 83.5 41.36 83.22 41.53C82.94 41.7 82.67 41.93 82.37 42.06C82.07 42.19 81.7399 42.3 81.4199 42.4C81.0999 42.5 80.7899 42.66 80.4599 42.73C80.1299 42.8 79.78 42.72 79.44 42.75C79.1 42.78 78.78 43 78.44 43.01C78.1 43.02 77.76 42.94 77.43 42.92C77.1 42.9 76.77 42.74 76.44 42.7C76.11 42.66 75.7699 42.59 75.4499 42.53C75.1299 42.47 74.79 42.38 74.47 42.3C74.13 42.21 73.78 42.2 73.48 42.1C73.15 41.98 72.79 41.94 72.5 41.81C72.17 41.66 71.94 41.35 71.68 41.2C71.34 40.99 71.0199 40.85 70.8399 40.65" stroke="#E1E3E5" stroke-width="1.5" stroke-linecap="round" stroke-linejoin="round"/>
<path d="M46.63 15.82C46.59 15.32 46.52 15.43 46.54 14.8C46.55 14.51 46.61 14.17 46.65 13.79C46.68 13.48 46.73 13.14 46.79 12.79C46.85 12.48 47.07 12.18 47.16 11.84C47.24 11.53 47.28 11.19 47.4 10.86C47.51 10.55 47.55 10.2 47.69 9.89001C47.83 9.58001 47.96 9.27001 48.13 8.97001C48.3 8.67001 48.65 8.52001 48.85 8.24001C49.05 7.96001 49.14 7.62001 49.37 7.37001C49.6 7.12001 49.89 6.96001 50.15 6.73001C50.41 6.50001 50.67 6.33001 50.95 6.13001C51.23 5.93001 51.38 5.57001 51.68 5.40001C51.96 5.24001 52.32 5.19001 52.64 5.04001C52.94 4.91001 53.27 4.85001 53.6 4.73001C53.91 4.62001 54.24 4.59001 54.58 4.51001C54.9 4.43001 55.22 4.36001 55.56 4.30001C55.88 4.24001 56.19 4.09001 56.54 4.05001C56.86 4.01001 57.2 4.03001 57.55 4.01001C57.88 3.99001 58.21 3.77001 58.55 3.76001C58.88 3.76001 59.22 3.87001 59.56 3.88001C59.9 3.89001 60.22 3.93001 60.57 3.95001C60.92 3.97001 61.22 4.14001 61.56 4.18001C61.9 4.22001 62.25 4.01001 62.6 4.06001C62.95 4.11001 63.21 4.44001 63.55 4.50001C63.89 4.56001 64.25 4.38001 64.59 4.45001C64.93 4.52001 65.2 4.78001 65.54 4.86001C65.88 4.94001 66.28 4.79001 66.61 4.88001C66.95 4.97001 67.25 5.20001 67.58 5.29001C67.92 5.39001 68.25 5.51001 68.57 5.62001C68.91 5.73001 69.25 5.81001 69.57 5.93001C69.9 6.06001 70.26 6.12001 70.57 6.25001C70.9 6.39001 71.18 6.62001 71.48 6.78001C71.8 6.94001 72.17 7.00001 72.46 7.17001C72.77 7.35001 72.95 7.73001 73.22 7.91001C73.52 8.11001 73.81 8.28001 74.08 8.49001C74.36 8.71001 74.74 8.81001 74.99 9.04001C75.25 9.29001 75.37 9.66001 75.59 9.91001C75.82 10.18 76.07 10.42 76.26 10.7C76.46 10.99 76.52 11.36 76.68 11.66C76.84 11.96 77.16 12.21 77.28 12.53C77.4 12.85 77.35 13.24 77.43 13.57C77.51 13.9 77.76 14.22 77.8 14.56C77.84 14.9 77.71 15.26 77.72 15.61C77.73 15.96 77.78 16.31 77.75 16.65C77.72 16.99 77.77 17.36 77.71 17.7C77.65 18.04 77.6 18.4 77.52 18.73C77.44 19.06 77.28 19.4 77.17 19.72C77.06 20.04 76.79 20.33 76.66 20.64C76.53 20.98 76.44 21.32 76.3 21.62C76.14 21.96 76.02 22.28 75.87 22.57C75.68 22.92 75.62 23.29 75.47 23.55C75.14 24.1 75.18 23.98 74.87 24.4" fill="white"/>
<path d="M46.12 15.87C45.88 14.75 46.12 13.65 46.26 12.54C46.36 12.19 46.54 11.93 46.61 11.56C46.82 10.58 47.07 9.47998 47.6 8.57998C47.8 8.25998 48.08 8.10998 48.27 7.89998C48.49 7.59998 48.55 7.21998 48.96 6.81998C49.44 6.35998 49.89 6.08998 50.34 5.70998L50.52 5.56998C50.55 5.53998 50.5501 5.54998 50.5801 5.51998C50.8401 5.11998 51.34 4.66998 51.84 4.54998C53.32 3.94998 55.01 3.64998 56.44 3.29998C56.69 3.27998 57.4801 3.26998 57.5801 3.22998C57.7401 3.19998 58.1 2.98998 58.62 2.99998C59.03 3.01998 59.31 3.09998 59.5 3.10998C60.03 3.16998 60.81 3.13998 61.32 3.33998C61.69 3.47998 61.8101 3.35998 62.2401 3.29998C62.4301 3.26998 62.7901 3.27998 63.0401 3.38998C63.4801 3.59998 63.68 3.75998 63.69 3.73998C63.63 3.74998 63.8701 3.70998 64.2901 3.65998C64.4901 3.63998 64.84 3.67998 65.03 3.76998C65.31 3.86998 65.51 4.03998 65.71 4.09998C65.87 4.13998 66.09 4.06998 66.34 4.07998C66.79 4.01998 67.52 4.44998 67.77 4.54998L69.38 5.07998C70.18 5.31998 71.08 5.58998 71.78 6.09998C72.24 6.27998 73.1201 6.54998 73.4401 7.09998C73.6101 7.31998 73.7501 7.38998 73.9401 7.51998L74.59 7.96998C74.73 8.06998 75.0201 8.14998 75.4001 8.44998C75.7801 8.78998 75.91 9.12998 76.03 9.31998C76.14 9.49998 76.6 10.02 76.7901 10.27C77.0301 10.53 77.18 11.24 77.31 11.42C77.39 11.57 77.6401 11.76 77.8601 12.21C78.09 12.81 77.96 13.09 78.07 13.49C78.26 13.88 78.5101 14.52 78.4001 14.98C78.2401 15.78 78.3701 16.6 78.3001 17.46C78.1801 18.63 77.7601 19.87 77.1201 20.79C76.8401 21.54 76.4601 22.35 76.1101 23.07C76.01 23.32 75.88 23.69 75.71 23.91C75.59 24.14 75.32 24.4 75.17 24.62C74.85 25.01 74.2401 24.54 74.5401 24.13C75.0801 23.51 75.18 23.03 75.4701 22.32C75.7401 21.74 76 21 76.2 20.39C76.36 20.03 76.5501 19.81 76.6201 19.64L76.85 18.93C77.2 17.9 77.16 16.84 77.1 15.75C77.08 15.54 77.1201 15.09 77.1601 14.84C77.1701 14.6 77.17 14.62 77.06 14.36C76.92 14.11 76.7401 13.65 76.7301 13.35C76.6601 12.58 76.75 12.87 76.2 12.17C75.85 11.67 75.9001 11.38 75.6501 11.04C75.3301 10.67 75.16 10.54 74.82 10.04C74.43 9.34998 74.55 9.58998 73.84 9.17998L73.1 8.67998C72.84 8.53998 72.46 8.19998 72.32 8.01998C72.13 7.81998 72.19 7.81998 71.96 7.71998C71.21 7.56998 70.5001 6.89998 69.7201 6.74998C69.2001 6.57998 67.82 6.15998 67.28 5.97998C66.79 5.81998 66.6501 5.62998 66.3601 5.60998C66 5.63998 65.73 5.68998 65.32 5.58998C64.93 5.49998 64.6901 5.24998 64.4001 5.19998C64.2601 5.17998 63.9501 5.34998 63.3301 5.22998C62.7801 5.05998 62.56 4.81998 62.48 4.80998C62.55 4.80998 62.45 4.79998 62.1 4.88998C61.51 5.08998 60.8301 4.68998 60.2401 4.67998C59.85 4.67998 58.87 4.53998 58.6 4.50998C58.55 4.48998 58.39 4.55998 58.02 4.67998C57.32 4.81998 57.19 4.74998 56.64 4.78998C55.21 5.20998 54 5.27998 52.73 5.78998C52.63 5.83998 52.1401 5.94998 52.0601 6.00998C51.8501 6.20998 51.5301 6.63998 51.2201 6.81998C50.8601 7.06998 50.24 7.54998 49.95 7.77998C49.77 7.94998 49.56 8.52998 49.28 8.80998C49.08 9.00998 48.8701 9.14998 48.7401 9.28998C48.6101 9.56998 48.35 10.03 48.26 10.27C48.08 10.81 47.8801 11.73 47.6501 12.33L47.4701 12.71L47.42 12.84C47.42 12.84 47.4 12.9 47.39 12.98L47.32 13.38C47.19 14.17 47.02 14.97 47.18 15.76C47.23 16.41 46.23 16.49 46.16 15.85L46.12 15.87Z" fill="#E1E3E5"/>
<path d="M41.9201 24.41C41.5501 24.75 41.6601 24.64 41.2101 25.11C41.0201 25.32 40.7601 25.53 40.5001 25.82C40.3001 26.05 40.1001 26.31 39.8701 26.59C39.6701 26.83 39.4101 27.05 39.1901 27.33C38.9901 27.58 38.8801 27.91 38.6701 28.19C38.4801 28.45 38.2801 28.72 38.0801 29C37.8901 29.27 37.5501 29.44 37.3601 29.73C37.1801 30 37.0301 30.31 36.8501 30.6C36.6701 30.89 36.5601 31.2 36.3801 31.5C36.2001 31.8 35.8901 31.99 35.7301 32.29C35.5701 32.59 35.5001 32.92 35.3401 33.23C35.1801 33.54 35.0601 33.83 34.9001 34.14C34.7401 34.45 34.6301 34.75 34.4901 35.06C34.3501 35.37 34.2401 35.68 34.1001 35.99C33.9601 36.3 33.8701 36.62 33.7401 36.93C33.6101 37.24 33.4401 37.53 33.3101 37.85C33.1801 38.17 33.0401 38.43 32.9301 38.75C33.2201 39.17 33.2501 38.85 33.9101 38.91C34.1901 38.94 34.5301 38.99 34.9201 39.02C35.2301 39.05 35.5601 39.15 35.9301 39.19C36.2501 39.22 36.5901 39.26 36.9401 39.29C37.2601 39.32 37.6101 39.31 37.9601 39.35C38.2901 39.38 38.6201 39.46 38.9701 39.5C39.3001 39.54 39.6601 39.38 40.0001 39.42C40.3301 39.46 40.6501 39.66 40.9901 39.7C41.3301 39.74 41.6701 39.65 42.0201 39.7C42.3701 39.75 42.6801 39.85 43.0301 39.89C43.3801 39.93 43.7001 39.96 44.0501 40C44.4001 40.04 44.7101 40.13 45.0601 40.18C45.4101 40.23 45.7501 40.16 46.0901 40.21C46.4301 40.26 46.7401 40.43 47.0801 40.48C47.4201 40.53 47.7601 40.51 48.1001 40.56C48.4401 40.61 48.7701 40.63 49.1101 40.68C49.4501 40.73 49.7801 40.76 50.1201 40.81C50.4601 40.86 50.7601 41.08 51.1001 41.14C51.4401 41.2 51.8101 41.01 52.1501 41.07C52.4901 41.13 52.8301 41.14 53.1701 41.2C53.5101 41.26 53.8401 41.34 54.1701 41.4C54.5001 41.46 54.7901 41.79 55.1301 41.85C55.4701 41.91 55.8401 41.74 56.1801 41.8C56.5201 41.86 56.8501 41.95 57.1801 42.01C57.5101 42.07 57.8601 42.09 58.2001 42.15C58.5401 42.21 58.8601 42.32 59.2001 42.39C59.5401 42.46 59.8201 42.75 60.1601 42.82C60.5001 42.89 60.8701 42.76 61.2101 42.84C61.5501 42.92 61.8301 43.22 62.1601 43.29C62.4901 43.36 62.8701 43.28 63.2001 43.36C63.5301 43.44 63.8501 43.6 64.1801 43.68C64.5101 43.76 64.8701 43.77 65.2001 43.85C65.5301 43.93 65.8101 44.21 66.1401 44.3C66.4701 44.39 66.8601 44.27 67.1901 44.36C67.5201 44.45 67.8001 44.71 68.1201 44.81C68.4401 44.91 68.8501 44.79 69.1701 44.89C69.4901 44.99 69.7801 45.22 70.1001 45.33C70.4201 45.44 70.7101 45.66 71.0301 45.78C71.3501 45.9 71.75 45.82 72.0601 45.94C72.3701 46.06 72.6601 46.3 72.9701 46.43C73.2801 46.56 73.5901 46.73 73.8901 46.87C74.1901 47.01 74.5001 47.11 74.8001 47.26C75.2201 46.99 74.8001 46.93 74.8601 46.29C74.8801 46.01 74.9301 45.67 74.9601 45.29C74.9801 44.98 74.8901 44.64 74.9101 44.28C74.9301 43.96 75.0201 43.63 75.0401 43.28C75.0601 42.96 75.0101 42.62 75.0201 42.27C75.03 41.94 75.0501 41.61 75.0601 41.26C75.07 40.91 75.2201 40.6 75.2301 40.26C75.2401 39.92 75.1901 39.59 75.2001 39.25C75.21 38.91 75.3101 38.58 75.3101 38.24C75.3101 37.9 75.34 37.57 75.34 37.23C75.34 36.89 75.34 36.56 75.34 36.22C75.34 35.88 75.1701 35.55 75.1601 35.21C75.1501 34.87 75.2201 34.53 75.2001 34.19C75.18 33.85 75.2001 33.51 75.1701 33.17C75.1401 32.83 75.0601 32.5 75.0301 32.17C75.0001 31.84 74.9201 31.5 74.8801 31.17" fill="white"/>
<path d="M42.26 24.79C41.3 25.71 40.34 26.84 39.53 27.86C39.31 28.35 38.93 28.84 38.64 29.26C38.47 29.55 38.07 29.85 37.89 30.06C37.55 30.63 37.21 31.28 36.9 31.89C36.67 32.24 36.42 32.39 36.27 32.67C36.16 32.94 36.02 33.39 35.86 33.68C35.03 35.42 34.39 37.25 33.62 39.02L33.53 38.34C33.56 38.42 33.65 38.36 33.3 38.24C33 38.24 33.24 38.22 33.38 38.18C33.63 38.13 33.98 38.16 34.24 38.18C35.83 38.39 37.47 38.47 39.06 38.63C39.37 38.59 39.56 38.52 39.91 38.52C40.61 38.52 40.84 38.88 41.48 38.76C42.74 38.75 44.02 39.06 45.27 39.18C45.67 39.18 45.99 39.12 46.5 39.24C47.19 39.45 47.13 39.43 47.72 39.46C48.49 39.49 49.32 39.62 50.09 39.7C50.43 39.7 51.11 40 51.25 40.04H51.2C51.48 39.97 52.14 39.9 52.41 39.98C52.94 40.03 53.58 40.12 54.1 40.23C54.24 40.26 54.23 40.24 54.59 40.34C55.09 40.53 55.28 40.72 55.36 40.74C55.4 40.76 55.34 40.73 55.27 40.72C55.23 40.72 55.26 40.72 55.33 40.72C55.47 40.72 55.83 40.6 56.37 40.69L57.04 40.84C58.06 41.05 59.57 41.17 60.37 41.76C60.28 41.76 60.4 41.77 60.68 41.75C60.99 41.71 61.62 41.81 61.89 41.98C62.21 42.16 62.38 42.28 62.38 42.28C62.31 42.27 62.41 42.3 62.65 42.29C62.84 42.29 63.2 42.3 63.43 42.37C63.65 42.43 64.08 42.6 64.28 42.67C64.74 42.82 65.08 42.75 65.69 43.01C66.06 43.19 66.24 43.32 66.34 43.38C66.67 43.4 67.21 43.35 67.57 43.53C67.93 43.68 68.13 43.84 68.25 43.9C68.39 43.96 68.25 43.94 68.47 43.96C68.64 43.97 69 43.92 69.46 44.08C69.8 44.21 70.02 44.36 70.17 44.45C70.52 44.59 71.02 44.88 71.27 45.01C71.27 45.03 71.45 45.05 71.73 45.07C71.87 45.09 72.06 45.11 72.27 45.19C72.85 45.45 73.28 45.79 73.81 46.02C74.22 46.24 74.65 46.41 75.07 46.61L74.33 46.65C74.33 46.65 74.35 46.59 74.23 46.82C74.17 46.96 74.19 47.12 74.2 47.15C74.2 47.18 74.2 47.15 74.19 47.11C73.95 46.68 74.14 45.77 74.19 45.3C74.15 44.69 74.16 43.93 74.31 43.29C74.31 42.43 74.33 41.01 74.56 40.28L74.55 39.28C74.68 38.48 74.69 37.97 74.72 37.27L74.73 36.26C74.74 36.07 74.6 35.75 74.57 35.27C74.64 34.52 74.61 33.93 74.61 33.25L74.35 31.26C74.27 30.68 75.17 30.56 75.24 31.15L75.58 33.18C75.63 33.72 75.64 34.78 75.62 35.22C75.62 35.42 75.78 35.73 75.82 36.23L75.84 37.25C75.87 37.77 75.79 38.91 75.74 39.29L75.79 40.32C75.52 41.76 75.73 43.02 75.55 44.37C75.54 44.58 75.64 44.91 75.61 45.41L75.53 46.4C75.57 46.71 75.79 46.99 75.61 47.39C75.41 47.78 75.25 47.82 75.15 47.91C74.93 48.11 74.64 48.07 74.41 47.95C73.55 47.63 72.49 47.15 71.71 46.73C71.44 46.7 71.22 46.75 70.71 46.61C70.04 46.33 69.42 46.02 68.86 45.77C68.53 45.77 68.34 45.82 67.97 45.75C67.58 45.71 67.06 45.31 66.86 45.29C66.59 45.29 66.44 45.33 66.11 45.29C65.75 45.29 65.08 44.89 64.92 44.82C64.66 44.75 64.08 44.75 63.68 44.61C63.57 44.57 63.01 44.39 62.93 44.37C62.54 44.35 62.28 44.46 61.63 44.25C61.21 44.08 61.02 43.92 60.93 43.89C60.88 43.87 60.93 43.89 60.95 43.89C60.95 43.89 60.91 43.89 60.83 43.9C60.66 43.9 60.32 43.99 59.79 43.86C59.3 43.71 59.08 43.53 58.96 43.48C58.9 43.45 58.91 43.46 58.93 43.46L58.6 43.38C57.75 43.15 56.8 43.1 55.95 42.89C56.04 42.89 55.95 42.89 55.64 42.94C55.49 42.96 55.29 42.99 55.02 42.96C54.69 42.98 53.87 42.5 53.87 42.49C54.01 42.52 53.77 42.47 53.7 42.46C53.38 42.4 53.03 42.31 52.71 42.27L52.04 42.18C51.85 42.16 52.02 42.18 51.97 42.17C51.69 42.21 51.2 42.31 50.85 42.22C50.57 42.19 49.99 41.92 49.93 41.9C48.89 41.73 47.67 41.64 46.63 41.47C45.91 41.24 45.9 41.2 45.19 41.21C44.13 41.04 43.14 40.9 42.09 40.67C41.81 40.61 41.85 40.61 41.6 40.62C41.4 40.62 41.07 40.67 40.66 40.57C40.3 40.48 40.07 40.36 39.94 40.32C39.88 40.3 39.87 40.3 39.85 40.29C39.83 40.29 39.76 40.29 39.67 40.29L39.29 40.34C39.21 40.34 39.12 40.35 39.02 40.34C37.26 40.11 35.52 39.89 33.77 39.61C33.41 39.57 33.7 39.67 33.01 39.64C32.42 39.49 32 38.93 32.2 38.42C33.05 36.61 33.76 34.74 34.67 32.97C34.73 32.88 34.81 32.67 34.86 32.57C34.99 32.03 35.46 31.47 35.81 31.13C36.29 30.25 36.76 29.22 37.58 28.61C37.94 28.14 38.24 27.75 38.53 27.22C39.26 26.27 39.94 25.58 40.76 24.74C40.98 24.51 41.33 24.16 41.56 23.97C42.06 23.53 42.72 24.26 42.24 24.72L42.26 24.79Z" fill="#E1E3E5"/>
<path d="M37.9 29.45C38.41 29.4 38.27 29.51 38.93 29.48C39.22 29.47 39.55 29.34 39.95 29.33C40.26 29.33 40.6 29.39 40.97 29.39C41.29 29.39 41.63 29.29 41.99 29.29C42.31 29.29 42.65 29.58 43 29.59C43.33 29.59 43.67 29.35 44.03 29.37C44.36 29.38 44.7 29.37 45.05 29.4C45.38 29.42 45.71 29.57 46.06 29.59C46.41 29.61 46.73 29.67 47.08 29.7C47.43 29.73 47.74 29.84 48.09 29.88C48.44 29.92 48.76 29.96 49.1 30C49.44 30.04 49.78 30.01 50.12 30.06C50.46 30.11 50.81 29.98 51.15 30.03C51.49 30.08 51.81 30.21 52.15 30.26C52.49 30.31 52.84 30.23 53.18 30.28C53.52 30.33 53.8 30.69 54.13 30.75C54.46 30.81 54.8 30.87 55.13 30.94C55.46 31.01 55.83 30.9 56.17 30.97C56.51 31.04 56.83 31.14 57.16 31.22C57.49 31.3 57.83 31.34 58.17 31.42C58.51 31.5 58.8 31.72 59.13 31.8C59.46 31.88 59.85 31.77 60.18 31.86C60.51 31.95 60.8 32.17 61.13 32.27C61.46 32.37 61.82 32.37 62.14 32.47C62.46 32.57 62.79 32.68 63.11 32.79C63.43 32.9 63.76 32.99 64.09 33.11C64.42 33.23 64.63 33.61 64.95 33.74C65.27 33.87 65.58 33.99 65.9 34.12C66.22 34.25 66.58 34.25 66.9 34.38C67.22 34.51 67.53 34.65 67.84 34.79C68.15 34.93 68.5 34.98 68.82 35.13C69.14 35.28 69.4 35.49 69.71 35.65C70.02 35.81 70.26 36.07 70.56 36.23C70.86 36.39 71.27 36.35 71.57 36.52C71.87 36.69 72.1 36.97 72.4 37.14C72.7 37.31 73.06 37.37 73.35 37.55C73.64 37.73 73.89 37.98 74.18 38.17C74.47 38.36 74.7 38.62 74.99 38.81" stroke="#E1E3E5" stroke-width="1.5" stroke-linecap="round" stroke-linejoin="round"/>
<path d="M34.43 44.92C33.92 44.88 34.16 45.11 33.64 45.51C33.41 45.69 33.13 45.89 32.82 46.14C32.57 46.33 32.24 46.46 31.95 46.69C31.7 46.89 31.49 47.18 31.2 47.4C30.94 47.6 30.58 47.69 30.3 47.91C30.04 48.11 29.88 48.47 29.6 48.69C29.34 48.89 29.01 49.03 28.73 49.25C28.45 49.47 28.24 49.73 27.96 49.94C27.68 50.15 27.44 50.38 27.17 50.6C26.9 50.82 26.53 50.89 26.26 51.1C25.99 51.31 25.81 51.64 25.54 51.85C25.27 52.06 24.95 52.2 24.67 52.41C24.39 52.62 24.2 52.93 23.93 53.14C23.66 53.35 23.27 53.41 22.99 53.62C22.71 53.83 22.35 53.99 22.07 54.2C21.79 54.59 22.03 54.75 21.79 55.17C21.55 55.59 21.42 55.52 21.19 55.93C20.96 56.34 20.98 56.36 20.74 56.79C20.5 57.22 20.41 57.16 20.17 57.58C19.93 58 20.1 58.1 19.86 58.52C19.62 58.94 19.81 59.15 19.43 59.45C19.02 59.78 19.22 58.97 19.1 58.32C19.04 58.03 19.06 57.67 19 57.27C18.95 56.95 18.79 56.62 18.75 56.24C18.71 55.91 18.64 55.56 18.62 55.19C18.59 54.85 18.54 54.5 18.53 54.13C18.52 53.79 18.77 53.43 18.77 53.07C18.77 52.71 18.54 52.37 18.56 52.01C18.58 51.65 18.84 51.33 18.87 50.98C18.9 50.63 18.87 50.28 18.92 49.93C18.97 49.58 19.08 49.25 19.15 48.9C19.22 48.55 19.29 48.22 19.39 47.88C19.49 47.54 19.57 47.2 19.68 46.87C19.79 46.54 19.8 46.16 19.95 45.84C20.1 45.52 20.43 45.3 20.58 44.99C20.73 44.68 20.77 44.31 20.93 44.01C21.09 43.71 21.29 43.42 21.46 43.12C21.63 42.82 21.77 42.5 21.96 42.21C22.15 41.92 22.35 41.64 22.56 41.37C22.77 41.1 23.05 40.89 23.29 40.63C23.53 40.37 23.77 40.15 24.02 39.91C24.27 39.67 24.43 39.34 24.7 39.12C24.97 38.9 25.31 38.81 25.61 38.62C25.91 38.43 26.14 38.19 26.45 38.02C26.74 37.86 27.1 37.81 27.42 37.66C27.72 37.52 28 37.31 28.33 37.18C28.64 37.06 28.93 36.85 29.27 36.74C29.59 36.64 29.96 36.67 30.3 36.57C30.62 36.48 30.92 36.25 31.27 36.17C31.6 36.09 31.95 36.1 32.3 36.03C32.63 35.97 32.98 35.95 33.33 35.89C33.68 35.83 34.01 35.84 34.36 35.79C34.71 35.74 35.03 35.68 35.38 35.64C35.73 35.6 36.05 35.52 36.41 35.49C36.77 35.46 37.1 35.57 37.45 35.55C37.8 35.53 38.12 35.34 38.48 35.33C38.84 35.32 39.17 35.48 39.52 35.47C39.87 35.46 40.2 35.28 40.56 35.27C40.92 35.26 41.25 35.45 41.6 35.46C41.95 35.47 42.29 35.33 42.63 35.34C42.97 35.35 43.31 35.46 43.66 35.47C44.01 35.48 44.36 35.24 44.7 35.25C45.04 35.26 45.37 35.53 45.72 35.55C46.07 35.57 46.42 35.39 46.77 35.42C47.12 35.45 47.46 35.48 47.8 35.51C48.14 35.54 48.49 35.56 48.83 35.6C49.17 35.64 49.5 35.79 49.84 35.83C50.18 35.87 50.53 35.85 50.88 35.9C51.23 35.95 51.55 36.07 51.89 36.12C52.23 36.17 52.56 36.28 52.9 36.34C53.24 36.4 53.57 36.5 53.91 36.56C54.25 36.62 54.61 36.57 54.95 36.64C55.29 36.71 55.6 36.88 55.94 36.95C56.28 37.02 56.65 36.93 56.99 37.01C57.33 37.09 57.64 37.26 57.98 37.34C58.32 37.42 58.61 37.66 58.94 37.75C59.27 37.84 59.62 37.88 59.95 37.97C60.28 38.06 60.59 38.23 60.92 38.33C61.25 38.43 61.63 38.39 61.95 38.5C62.27 38.61 62.58 38.8 62.9 38.91C63.22 39.02 63.53 39.21 63.85 39.33C64.17 39.45 64.55 39.43 64.87 39.56C65.19 39.69 65.52 39.81 65.83 39.95C66.14 40.09 66.4 40.37 66.71 40.51C67.02 40.65 67.44 40.58 67.75 40.74C68.06 40.9 68.37 41.06 68.67 41.22C68.97 41.38 69.27 41.58 69.56 41.75C69.85 41.92 70.16 42.1 70.45 42.29C70.74 42.48 70.91 42.85 71.18 43.05C71.45 43.25 71.78 43.4 72.05 43.61C72.32 43.82 72.55 44.09 72.8 44.32C73.05 44.55 73.3 44.79 73.54 45.03C73.78 45.27 74.2 45.36 74.43 45.61C74.66 45.86 74.91 46.13 75.11 46.4C75.31 46.67 75.46 47.01 75.64 47.3C75.82 47.59 76 47.9 76.15 48.2C76.3 48.5 76.27 48.9 76.39 49.22C76.51 49.54 76.77 49.82 76.85 50.15C76.93 50.48 76.85 50.85 76.89 51.19C76.93 51.53 77.12 51.94 77.13 52.28C76.65 52.53 76.68 52.2 76.07 52.39C75.79 52.48 75.51 52.62 75.18 52.88C74.94 53.07 74.49 53.13 74.24 53.46C74.05 53.71 73.94 54.08 73.76 54.44C73.61 54.73 73.5 55.08 73.37 55.44C73.26 55.75 73.04 56.06 72.94 56.43C72.85 56.75 72.88 57.14 72.81 57.52C72.37 57.3 72.79 57.13 72.67 56.54C72.62 56.26 72.6 55.93 72.45 55.58C72.33 55.3 72.16 55.02 71.96 54.72C71.79 54.46 71.51 54.29 71.26 54.03C71.05 53.81 70.86 53.54 70.58 53.33C70.33 53.14 70.02 53.04 69.72 52.86C69.45 52.71 69.22 52.45 68.89 52.31C68.6 52.19 68.33 51.95 68 51.84C67.7 51.74 67.34 51.77 67.01 51.69C66.68 51.61 66.35 51.41 66.01 51.32C65.67 51.23 65.33 51.13 64.99 51.04C64.65 50.95 64.28 50.94 63.95 50.84C63.62 50.74 63.29 50.55 62.96 50.46C62.63 50.37 62.22 50.46 61.89 50.35C61.56 50.24 61.27 49.96 60.94 49.85C60.61 49.74 60.21 49.79 59.88 49.66C59.55 49.53 59.21 49.42 58.89 49.28C58.56 49.14 58.32 48.81 58.01 48.66C57.68 48.5 57.3 48.48 57 48.31C56.69 48.13 56.5 47.78 56.21 47.58C55.91 47.38 55.58 47.25 55.32 47.03C55.05 46.8 54.72 46.62 54.49 46.37C54.26 46.12 54.08 45.69 53.89 45.39C53.41 45.38 53.5 45.69 53.16 46.15C52.99 46.38 52.92 46.74 52.75 47.05C52.6 47.32 52.51 47.63 52.39 47.95C52.27 48.27 52.24 48.56 52.2 48.88C52.16 49.2 52.1 49.5 52.16 49.83C52.22 50.13 52.16 50.52 52.35 50.81C52.5 51.07 52.86 51.26 53.12 51.5C52.93 51.97 52.71 51.4 52.06 51.42C51.77 51.42 51.43 51.67 51.03 51.66C50.72 51.66 50.37 51.69 50 51.68C49.68 51.67 49.35 51.42 48.99 51.39C48.66 51.37 48.32 51.41 47.96 51.38C47.63 51.34 47.27 51.44 46.92 51.38C46.57 51.32 46.25 51.26 45.9 51.2C45.55 51.14 45.27 50.87 44.93 50.79C44.59 50.71 44.27 50.63 43.94 50.54C43.61 50.45 43.26 50.44 42.93 50.34C42.6 50.24 42.25 50.21 41.93 50.09C41.61 49.97 41.3 49.83 40.98 49.69C40.66 49.55 40.38 49.36 40.07 49.21C39.76 49.06 39.39 49.03 39.09 48.86C38.79 48.69 38.6 48.34 38.31 48.16C38.02 47.98 37.73 47.81 37.45 47.61C37.17 47.41 36.84 47.28 36.57 47.06C36.3 46.84 36.15 46.51 35.9 46.27C35.65 46.03 35.32 45.89 35.09 45.63C34.86 45.37 34.65 45.16 34.44 44.89L34.43 44.92Z" fill="#DB7856"/>
<path d="M34.43 44.92C33.92 44.88 34.16 45.11 33.64 45.51C33.41 45.69 33.13 45.89 32.82 46.14C32.57 46.33 32.24 46.46 31.95 46.69C31.7 46.89 31.49 47.18 31.2 47.4C30.94 47.6 30.58 47.69 30.3 47.91C30.04 48.11 29.88 48.47 29.6 48.69C29.34 48.89 29.01 49.03 28.73 49.25C28.45 49.47 28.24 49.73 27.96 49.94C27.68 50.15 27.44 50.38 27.17 50.6C26.9 50.82 26.53 50.89 26.26 51.1C25.99 51.31 25.81 51.64 25.54 51.85C25.27 52.06 24.95 52.2 24.67 52.41C24.39 52.62 24.2 52.93 23.93 53.14C23.66 53.35 23.27 53.41 22.99 53.62C22.71 53.83 22.35 53.99 22.07 54.2C21.79 54.59 22.03 54.75 21.79 55.17C21.55 55.59 21.42 55.52 21.19 55.93C20.96 56.34 20.98 56.36 20.74 56.79C20.5 57.22 20.41 57.16 20.17 57.58C19.93 58 20.1 58.1 19.86 58.52C19.62 58.94 19.81 59.15 19.43 59.45C19.02 59.78 19.22 58.97 19.1 58.32C19.04 58.03 19.06 57.67 19 57.27C18.95 56.95 18.79 56.62 18.75 56.24C18.71 55.91 18.64 55.56 18.62 55.19C18.59 54.85 18.54 54.5 18.53 54.13C18.52 53.79 18.77 53.43 18.77 53.07C18.77 52.71 18.54 52.37 18.56 52.01C18.58 51.65 18.84 51.33 18.87 50.98C18.9 50.63 18.87 50.28 18.92 49.93C18.97 49.58 19.08 49.25 19.15 48.9C19.22 48.55 19.29 48.22 19.39 47.88C19.49 47.54 19.57 47.2 19.68 46.87C19.79 46.54 19.8 46.16 19.95 45.84C20.1 45.52 20.43 45.3 20.58 44.99C20.73 44.68 20.77 44.31 20.93 44.01C21.09 43.71 21.29 43.42 21.46 43.12C21.63 42.82 21.77 42.5 21.96 42.21C22.15 41.92 22.35 41.64 22.56 41.37C22.77 41.1 23.05 40.89 23.29 40.63C23.53 40.37 23.77 40.15 24.02 39.91C24.27 39.67 24.43 39.34 24.7 39.12C24.97 38.9 25.31 38.81 25.61 38.62C25.91 38.43 26.14 38.19 26.45 38.02C26.74 37.86 27.1 37.81 27.42 37.66C27.72 37.52 28 37.31 28.33 37.18C28.64 37.06 28.93 36.85 29.27 36.74C29.59 36.64 29.96 36.67 30.3 36.57C30.62 36.48 30.92 36.25 31.27 36.17C31.6 36.09 31.95 36.1 32.3 36.03C32.63 35.97 32.98 35.95 33.33 35.89C33.68 35.83 34.01 35.84 34.36 35.79C34.71 35.74 35.03 35.68 35.38 35.64C35.73 35.6 36.05 35.52 36.41 35.49C36.77 35.46 37.1 35.57 37.45 35.55C37.8 35.53 38.12 35.34 38.48 35.33C38.84 35.32 39.17 35.48 39.52 35.47C39.87 35.46 40.2 35.28 40.56 35.27C40.92 35.26 41.25 35.45 41.6 35.46C41.95 35.47 42.29 35.33 42.63 35.34C42.97 35.35 43.31 35.46 43.66 35.47C44.01 35.48 44.36 35.24 44.7 35.25C45.04 35.26 45.37 35.53 45.72 35.55C46.07 35.57 46.42 35.39 46.77 35.42C47.12 35.45 47.46 35.48 47.8 35.51C48.14 35.54 48.49 35.56 48.83 35.6C49.17 35.64 49.5 35.79 49.84 35.83C50.18 35.87 50.53 35.85 50.88 35.9C51.23 35.95 51.55 36.07 51.89 36.12C52.23 36.17 52.56 36.28 52.9 36.34C53.24 36.4 53.57 36.5 53.91 36.56C54.25 36.62 54.61 36.57 54.95 36.64C55.29 36.71 55.6 36.88 55.94 36.95C56.28 37.02 56.65 36.93 56.99 37.01C57.33 37.09 57.64 37.26 57.98 37.34C58.32 37.42 58.61 37.66 58.94 37.75C59.27 37.84 59.62 37.88 59.95 37.97C60.28 38.06 60.59 38.23 60.92 38.33C61.25 38.43 61.63 38.39 61.95 38.5C62.27 38.61 62.58 38.8 62.9 38.91C63.22 39.02 63.53 39.21 63.85 39.33C64.17 39.45 64.55 39.43 64.87 39.56C65.19 39.69 65.52 39.81 65.83 39.95C66.14 40.09 66.4 40.37 66.71 40.51C67.02 40.65 67.44 40.58 67.75 40.74C68.06 40.9 68.37 41.06 68.67 41.22C68.97 41.38 69.27 41.58 69.56 41.75C69.85 41.92 70.16 42.1 70.45 42.29C70.74 42.48 70.91 42.85 71.18 43.05C71.45 43.25 71.78 43.4 72.05 43.61C72.32 43.82 72.55 44.09 72.8 44.32C73.05 44.55 73.3 44.79 73.54 45.03C73.78 45.27 74.2 45.36 74.43 45.61C74.66 45.86 74.91 46.13 75.11 46.4C75.31 46.67 75.46 47.01 75.64 47.3C75.82 47.59 76 47.9 76.15 48.2C76.3 48.5 76.27 48.9 76.39 49.22C76.51 49.54 76.77 49.82 76.85 50.15C76.93 50.48 76.85 50.85 76.89 51.19C76.93 51.53 77.12 51.94 77.13 52.28C76.65 52.53 76.68 52.2 76.07 52.39C75.79 52.48 75.51 52.62 75.18 52.88C74.94 53.07 74.49 53.13 74.24 53.46C74.05 53.71 73.94 54.08 73.76 54.44C73.61 54.73 73.5 55.08 73.37 55.44C73.26 55.75 73.04 56.06 72.94 56.43C72.85 56.75 72.88 57.14 72.81 57.52C72.37 57.3 72.79 57.13 72.67 56.54C72.62 56.26 72.6 55.93 72.45 55.58C72.33 55.3 72.16 55.02 71.96 54.72C71.79 54.46 71.51 54.29 71.26 54.03C71.05 53.81 70.86 53.54 70.58 53.33C70.33 53.14 70.02 53.04 69.72 52.86C69.45 52.71 69.22 52.45 68.89 52.31C68.6 52.19 68.33 51.95 68 51.84C67.7 51.74 67.34 51.77 67.01 51.69C66.68 51.61 66.35 51.41 66.01 51.32C65.67 51.23 65.33 51.13 64.99 51.04C64.65 50.95 64.28 50.94 63.95 50.84C63.62 50.74 63.29 50.55 62.96 50.46C62.63 50.37 62.22 50.46 61.89 50.35C61.56 50.24 61.27 49.96 60.94 49.85C60.61 49.74 60.21 49.79 59.88 49.66C59.55 49.53 59.21 49.42 58.89 49.28C58.56 49.14 58.32 48.81 58.01 48.66C57.68 48.5 57.3 48.48 57 48.31C56.69 48.13 56.5 47.78 56.21 47.58C55.91 47.38 55.58 47.25 55.32 47.03C55.05 46.8 54.72 46.62 54.49 46.37C54.26 46.12 54.08 45.69 53.89 45.39C53.41 45.38 53.5 45.69 53.16 46.15C52.99 46.38 52.92 46.74 52.75 47.05C52.6 47.32 52.51 47.63 52.39 47.95C52.27 48.27 52.24 48.56 52.2 48.88C52.16 49.2 52.1 49.5 52.16 49.83C52.22 50.13 52.16 50.52 52.35 50.81C52.5 51.07 52.86 51.26 53.12 51.5C52.93 51.97 52.71 51.4 52.06 51.42C51.77 51.42 51.43 51.67 51.03 51.66C50.72 51.66 50.37 51.69 50 51.68C49.68 51.67 49.35 51.42 48.99 51.39C48.66 51.37 48.32 51.41 47.96 51.38C47.63 51.34 47.27 51.44 46.92 51.38C46.57 51.32 46.25 51.26 45.9 51.2C45.55 51.14 45.27 50.87 44.93 50.79C44.59 50.71 44.27 50.63 43.94 50.54C43.61 50.45 43.26 50.44 42.93 50.34C42.6 50.24 42.25 50.21 41.93 50.09C41.61 49.97 41.3 49.83 40.98 49.69C40.66 49.55 40.38 49.36 40.07 49.21C39.76 49.06 39.39 49.03 39.09 48.86C38.79 48.69 38.6 48.34 38.31 48.16C38.02 47.98 37.73 47.81 37.45 47.61C37.17 47.41 36.84 47.28 36.57 47.06C36.3 46.84 36.15 46.51 35.9 46.27C35.65 46.03 35.32 45.89 35.09 45.63C34.86 45.37 34.65 45.16 34.44 44.89L34.43 44.92Z" stroke="#CE5D3E" stroke-width="1.5" stroke-linecap="round" stroke-linejoin="round"/>
<path d="M37.8101 59.38C38.1001 59.81 38.0301 59.76 38.5601 60.14C38.7901 60.31 39.1701 60.37 39.5301 60.53C39.8101 60.66 40.1101 60.84 40.4801 60.94C40.7801 61.03 41.1401 61 41.5101 61.06C41.8301 61.11 42.1601 61.24 42.5301 61.26C42.9001 61.28 43.2501 61.26 43.5701 61.26C43.9501 61.25 44.2801 61.13 44.5901 61.08C44.9701 61.02 45.3101 61 45.6001 60.91C45.9901 60.79 46.2401 60.54 46.4801 60.4C47.0501 60.07 47.0301 60.27 47.3201 59.85" stroke="#7A4541" stroke-width="1.5" stroke-linecap="round" stroke-linejoin="round"/>
<path d="M35.95 80.8C36.3 81.19 35.81 81.07 35.66 81.73C35.6 82.01 35.66 82.38 35.57 82.77C35.5 83.08 35.29 83.39 35.21 83.76C35.14 84.08 35.17 84.44 35.09 84.8C35.03 85.12 35.05 85.48 34.98 85.83C34.92 86.16 34.9 86.51 34.84 86.86C34.78 87.19 34.74 87.54 34.68 87.89C34.62 88.22 34.49 88.55 34.43 88.9C34.37 89.25 34.27 89.57 34.21 89.92C34.15 90.27 34.19 90.62 34.13 90.97C34.07 91.32 33.87 91.68 33.81 92.03C34.29 92.2 34.34 91.95 34.86 91.95C35.38 91.95 35.37 92.12 35.89 92.12C36.41 92.12 36.41 91.92 36.92 91.92C37.43 91.92 37.44 91.89 37.95 91.89C38.46 91.89 38.46 91.95 38.98 91.95C39.5 91.95 39.5 92.08 40.01 92.08C40.52 92.08 40.53 91.92 41.04 91.92C41.55 91.92 41.55 92.04 42.07 92.04C42.59 92.04 42.58 91.86 43.1 91.86C43.62 91.86 43.61 91.86 44.13 91.86C44.65 91.86 44.65 91.98 45.16 91.98C45.67 91.98 45.68 91.85 46.19 91.85C46.7 91.85 46.71 92.1 47.22 92.1C47.73 92.1 47.74 92 48.25 92C48.76 92 48.77 92.12 49.28 92.12C49.79 92.12 49.8 91.89 50.31 91.89C50.82 91.89 50.82 91.89 51.34 91.89C51.86 91.89 51.86 91.89 52.37 91.89C52.88 91.89 52.89 92.01 53.41 92.01C53.93 92.01 53.93 92.01 54.45 92.01C54.97 92.01 55.04 92.25 55.53 92.07C56.02 91.89 55.52 91.58 55.58 90.9C55.61 90.6 55.68 90.25 55.74 89.85C55.78 89.53 55.9 89.18 55.96 88.81C56.01 88.48 56 88.12 56.07 87.75C56.13 87.41 56.22 87.07 56.3 86.71C56.37 86.37 56.39 86.01 56.48 85.65C56.57 85.29 56.61 84.95 56.72 84.6C56.83 84.25 56.86 83.9 56.97 83.55C57.08 83.2 57.37 82.93 57.5 82.59C57.63 82.25 57.66 81.87 57.8 81.54C58.18 81.13 58.15 81.42 58.93 81.57C59.22 81.62 59.55 81.78 59.98 81.93C60.28 82.04 60.62 82.18 61 82.36C61.3 82.51 61.72 82.52 62.08 82.72C62.38 82.89 62.62 83.21 62.96 83.42C63.26 83.61 63.56 83.81 63.88 84.04C64.08 84.5 63.88 84.36 63.75 85.03C63.7 85.3 63.56 85.61 63.49 86C63.44 86.3 63.53 86.64 63.47 87.01C63.43 87.32 63.29 87.63 63.25 87.99C63.21 88.3 63.1 88.63 63.07 88.98C63.04 89.3 63.09 89.64 63.06 89.99C63.03 90.31 62.87 90.63 62.85 90.98C62.83 91.3 62.89 91.64 62.87 91.99C62.85 92.31 62.8 92.65 62.78 92.99C62.76 93.31 62.8 93.65 62.78 93.99C62.77 94.32 62.86 94.65 62.85 95C62.84 95.35 62.58 95.65 62.57 96C62.56 96.35 62.82 96.67 62.81 97.01C62.8 97.35 62.66 97.67 62.66 98.02C62.66 98.37 62.54 98.68 62.54 99.03C62.54 99.38 62.68 99.7 62.68 100.04C62.68 100.38 62.68 100.74 62.68 101.08C62.19 101.24 62.15 101.19 61.64 101.19C61.13 101.19 61.12 101.03 60.61 101.03C60.1 101.03 60.09 100.95 59.58 100.95C59.07 100.95 59.06 101.05 58.55 101.05C58.04 101.05 58.03 101.18 57.51 101.18C56.99 101.18 56.99 100.98 56.47 100.98C55.95 100.98 55.95 101.15 55.43 101.15C54.91 101.15 54.91 101.1 54.39 101.1C53.87 101.1 53.87 100.92 53.35 100.92C52.83 100.92 52.83 100.97 52.31 100.97C51.79 100.97 51.79 100.88 51.27 100.88C50.75 100.88 50.75 101.15 50.23 101.15C49.71 101.15 49.71 100.92 49.19 100.92C48.67 100.92 48.67 101.1 48.15 101.1C47.63 101.1 47.63 101.07 47.11 101.07C46.59 101.07 46.59 101.02 46.07 101.02C45.55 101.02 45.55 100.91 45.03 100.91C44.51 100.91 44.51 101.16 43.99 101.16C43.47 101.16 43.47 100.93 42.95 100.93C42.43 100.93 42.43 101.03 41.91 101.03C41.39 101.03 41.39 101.1 40.87 101.1C40.35 101.1 40.35 101.14 39.83 101.14C39.31 101.14 39.31 101.02 38.79 101.02C38.27 101.02 38.27 100.99 37.76 100.99C37.25 100.99 37.24 100.9 36.72 100.9C36.2 100.9 36.2 100.95 35.68 100.95C35.16 100.95 35.16 101.18 34.64 101.18C34.12 101.18 34.12 101.15 33.6 101.15C33.08 101.15 33.08 100.94 32.56 100.94C32.04 100.94 32.04 101.05 31.52 101.05C31 101.05 31 101.07 30.48 101.07C29.96 101.07 29.96 100.92 29.44 100.92C28.92 100.92 28.92 101.03 28.4 101.03C27.88 101.03 27.88 101.03 27.36 101.03C26.84 101.03 26.84 101.14 26.31 101.14C25.78 101.14 25.77 101.2 25.27 101.02C24.77 100.84 25.4 100.69 25.45 100.04C25.47 99.76 25.5 99.42 25.54 99.03C25.57 98.72 25.39 98.36 25.43 98C25.47 97.68 25.58 97.36 25.63 97C25.67 96.68 25.87 96.37 25.93 96.02C25.98 95.7 25.92 95.35 25.98 95C26.03 94.67 26.11 94.34 26.17 94C26.23 93.66 26.09 93.3 26.15 92.96C26.21 92.62 26.44 92.33 26.51 91.99C26.58 91.65 26.66 91.33 26.74 91C26.82 90.67 26.81 90.32 26.89 89.99C26.97 89.66 27.17 89.36 27.26 89.03C27.35 88.7 27.46 88.39 27.56 88.06C27.66 87.73 27.61 87.37 27.72 87.04C27.83 86.71 28.09 86.45 28.2 86.12C28.31 85.79 28.2 85.4 28.31 85.08C28.42 84.76 28.67 84.49 28.8 84.17C28.93 83.85 29.07 83.56 29.2 83.24C29.56 82.86 29.58 83.15 30.16 82.88C30.43 82.75 30.65 82.39 31.01 82.24C31.3 82.11 31.69 82.14 32.04 82C32.35 81.88 32.6 81.55 32.94 81.43C33.26 81.32 33.65 81.38 33.99 81.27C34.33 81.16 34.61 80.91 34.95 80.82C35.29 80.73 35.6 80.84 35.94 80.77L35.95 80.8Z" fill="#7088F9"/>
<path d="M35.95 80.8C36.3 81.19 35.81 81.07 35.66 81.73C35.6 82.01 35.66 82.38 35.57 82.77C35.5 83.08 35.29 83.39 35.21 83.76C35.14 84.08 35.17 84.44 35.09 84.8C35.03 85.12 35.05 85.48 34.98 85.83C34.92 86.16 34.9 86.51 34.84 86.86C34.78 87.19 34.74 87.54 34.68 87.89C34.62 88.22 34.49 88.55 34.43 88.9C34.37 89.25 34.27 89.57 34.21 89.92C34.15 90.27 34.19 90.62 34.13 90.97C34.07 91.32 33.87 91.68 33.81 92.03C34.29 92.2 34.34 91.95 34.86 91.95C35.38 91.95 35.37 92.12 35.89 92.12C36.41 92.12 36.41 91.92 36.92 91.92C37.43 91.92 37.44 91.89 37.95 91.89C38.46 91.89 38.46 91.95 38.98 91.95C39.5 91.95 39.5 92.08 40.01 92.08C40.52 92.08 40.53 91.92 41.04 91.92C41.55 91.92 41.55 92.04 42.07 92.04C42.59 92.04 42.58 91.86 43.1 91.86C43.62 91.86 43.61 91.86 44.13 91.86C44.65 91.86 44.65 91.98 45.16 91.98C45.67 91.98 45.68 91.85 46.19 91.85C46.7 91.85 46.71 92.1 47.22 92.1C47.73 92.1 47.74 92 48.25 92C48.76 92 48.77 92.12 49.28 92.12C49.79 92.12 49.8 91.89 50.31 91.89C50.82 91.89 50.82 91.89 51.34 91.89C51.86 91.89 51.86 91.89 52.37 91.89C52.88 91.89 52.89 92.01 53.41 92.01C53.93 92.01 53.93 92.01 54.45 92.01C54.97 92.01 55.04 92.25 55.53 92.07C56.02 91.89 55.52 91.58 55.58 90.9C55.61 90.6 55.68 90.25 55.74 89.85C55.78 89.53 55.9 89.18 55.96 88.81C56.01 88.48 56 88.12 56.07 87.75C56.13 87.41 56.22 87.07 56.3 86.71C56.37 86.37 56.39 86.01 56.48 85.65C56.57 85.29 56.61 84.95 56.72 84.6C56.83 84.25 56.86 83.9 56.97 83.55C57.08 83.2 57.37 82.93 57.5 82.59C57.63 82.25 57.66 81.87 57.8 81.54C58.18 81.13 58.15 81.42 58.93 81.57C59.22 81.62 59.55 81.78 59.98 81.93C60.28 82.04 60.62 82.18 61 82.36C61.3 82.51 61.72 82.52 62.08 82.72C62.38 82.89 62.62 83.21 62.96 83.42C63.26 83.61 63.56 83.81 63.88 84.04C64.08 84.5 63.88 84.36 63.75 85.03C63.7 85.3 63.56 85.61 63.49 86C63.44 86.3 63.53 86.64 63.47 87.01C63.43 87.32 63.29 87.63 63.25 87.99C63.21 88.3 63.1 88.63 63.07 88.98C63.04 89.3 63.09 89.64 63.06 89.99C63.03 90.31 62.87 90.63 62.85 90.98C62.83 91.3 62.89 91.64 62.87 91.99C62.85 92.31 62.8 92.65 62.78 92.99C62.76 93.31 62.8 93.65 62.78 93.99C62.77 94.32 62.86 94.65 62.85 95C62.84 95.35 62.58 95.65 62.57 96C62.56 96.35 62.82 96.67 62.81 97.01C62.8 97.35 62.66 97.67 62.66 98.02C62.66 98.37 62.54 98.68 62.54 99.03C62.54 99.38 62.68 99.7 62.68 100.04C62.68 100.38 62.68 100.74 62.68 101.08C62.19 101.24 62.15 101.19 61.64 101.19C61.13 101.19 61.12 101.03 60.61 101.03C60.1 101.03 60.09 100.95 59.58 100.95C59.07 100.95 59.06 101.05 58.55 101.05C58.04 101.05 58.03 101.18 57.51 101.18C56.99 101.18 56.99 100.98 56.47 100.98C55.95 100.98 55.95 101.15 55.43 101.15C54.91 101.15 54.91 101.1 54.39 101.1C53.87 101.1 53.87 100.92 53.35 100.92C52.83 100.92 52.83 100.97 52.31 100.97C51.79 100.97 51.79 100.88 51.27 100.88C50.75 100.88 50.75 101.15 50.23 101.15C49.71 101.15 49.71 100.92 49.19 100.92C48.67 100.92 48.67 101.1 48.15 101.1C47.63 101.1 47.63 101.07 47.11 101.07C46.59 101.07 46.59 101.02 46.07 101.02C45.55 101.02 45.55 100.91 45.03 100.91C44.51 100.91 44.51 101.16 43.99 101.16C43.47 101.16 43.47 100.93 42.95 100.93C42.43 100.93 42.43 101.03 41.91 101.03C41.39 101.03 41.39 101.1 40.87 101.1C40.35 101.1 40.35 101.14 39.83 101.14C39.31 101.14 39.31 101.02 38.79 101.02C38.27 101.02 38.27 100.99 37.76 100.99C37.25 100.99 37.24 100.9 36.72 100.9C36.2 100.9 36.2 100.95 35.68 100.95C35.16 100.95 35.16 101.18 34.64 101.18C34.12 101.18 34.12 101.15 33.6 101.15C33.08 101.15 33.08 100.94 32.56 100.94C32.04 100.94 32.04 101.05 31.52 101.05C31 101.05 31 101.07 30.48 101.07C29.96 101.07 29.96 100.92 29.44 100.92C28.92 100.92 28.92 101.03 28.4 101.03C27.88 101.03 27.88 101.03 27.36 101.03C26.84 101.03 26.84 101.14 26.31 101.14C25.78 101.14 25.77 101.2 25.27 101.02C24.77 100.84 25.4 100.69 25.45 100.04C25.47 99.76 25.5 99.42 25.54 99.03C25.57 98.72 25.39 98.36 25.43 98C25.47 97.68 25.58 97.36 25.63 97C25.67 96.68 25.87 96.37 25.93 96.02C25.98 95.7 25.92 95.35 25.98 95C26.03 94.67 26.11 94.34 26.17 94C26.23 93.66 26.09 93.3 26.15 92.96C26.21 92.62 26.44 92.33 26.51 91.99C26.58 91.65 26.66 91.33 26.74 91C26.82 90.67 26.81 90.32 26.89 89.99C26.97 89.66 27.17 89.36 27.26 89.03C27.35 88.7 27.46 88.39 27.56 88.06C27.66 87.73 27.61 87.37 27.72 87.04C27.83 86.71 28.09 86.45 28.2 86.12C28.31 85.79 28.2 85.4 28.31 85.08C28.42 84.76 28.67 84.49 28.8 84.17C28.93 83.85 29.07 83.56 29.2 83.24C29.56 82.86 29.58 83.15 30.16 82.88C30.43 82.75 30.65 82.39 31.01 82.24C31.3 82.11 31.69 82.14 32.04 82C32.35 81.88 32.6 81.55 32.94 81.43C33.26 81.32 33.65 81.38 33.99 81.27C34.33 81.16 34.61 80.91 34.95 80.82C35.29 80.73 35.6 80.84 35.94 80.77L35.95 80.8Z" stroke="#5D7DF4" stroke-width="1.5" stroke-linecap="round" stroke-linejoin="round"/>
<path opacity="0.8" d="M30.36 63.93C32.7017 63.93 34.6 62.0317 34.6 59.69C34.6 57.3483 32.7017 55.45 30.36 55.45C28.0183 55.45 26.12 57.3483 26.12 59.69C26.12 62.0317 28.0183 63.93 30.36 63.93Z" fill="url(#paint0_radial_5602_25822)"/>
<path opacity="0.8" d="M55.89 65.04C58.2317 65.04 60.13 63.1417 60.13 60.8C60.13 58.4583 58.2317 56.56 55.89 56.56C53.5483 56.56 51.65 58.4583 51.65 60.8C51.65 63.1417 53.5483 65.04 55.89 65.04Z" fill="url(#paint1_radial_5602_25822)"/>
<path d="M52.67 56.92C52.67 57.11 52.64 57.29 52.61 57.46C52.58 57.65 52.54 57.82 52.48 57.99C52.42 58.17 52.37 58.35 52.28 58.5C52.18 58.66 52.05 58.8 51.92 58.92C51.78 59.05 51.63 59.16 51.47 59.24C51.31 59.32 51.11 59.33 50.93 59.33C50.75 59.33 50.58 59.26 50.41 59.19C50.24 59.12 50.08 59.06 49.94 58.93C49.81 58.81 49.66 58.69 49.55 58.54C49.45 58.39 49.4 58.21 49.33 58.03C49.27 57.87 49.22 57.69 49.19 57.5C49.16 57.33 49.14 57.14 49.14 56.96C49.14 56.78 49.17 56.59 49.2 56.42C49.23 56.23 49.26 56.06 49.32 55.89C49.38 55.71 49.41 55.52 49.51 55.37C49.61 55.21 49.79 55.12 49.92 55C50.06 54.87 50.19 54.76 50.35 54.69C50.51 54.62 50.68 54.5 50.87 54.5C51.06 54.5 51.25 54.55 51.42 54.62C51.59 54.69 51.73 54.81 51.88 54.93C52.01 55.05 52.13 55.19 52.24 55.35C52.34 55.5 52.4 55.67 52.47 55.85C52.53 56.01 52.61 56.19 52.65 56.37C52.68 56.54 52.67 56.73 52.68 56.92H52.67Z" fill="#5E381F"/>
<path d="M33.2 56.19C33.21 56 33.2199 55.81 33.2599 55.64C33.2999 55.46 33.43 55.31 33.5 55.15C33.58 54.98 33.65 54.81 33.75 54.67C33.86 54.52 33.9699 54.37 34.0999 54.26C34.2499 54.14 34.4 54.02 34.57 53.97C34.74 53.92 34.9299 53.9 35.1199 53.91C35.3099 53.92 35.4699 54 35.6399 54.08C35.8099 54.16 35.9099 54.29 36.0499 54.43C36.1699 54.56 36.3299 54.66 36.4199 54.83C36.5099 54.98 36.53 55.17 36.59 55.35C36.64 55.52 36.6499 55.7 36.6699 55.88C36.6899 56.06 36.71 56.23 36.7 56.42C36.69 56.61 36.7 56.79 36.66 56.96C36.62 57.14 36.55 57.31 36.47 57.47C36.39 57.64 36.3 57.8 36.2 57.94C36.09 58.09 35.97 58.23 35.84 58.34C35.69 58.46 35.54 58.57 35.38 58.62C35.22 58.67 35.03 58.67 34.84 58.66C34.65 58.65 34.49 58.6 34.33 58.52C34.17 58.44 33.9999 58.37 33.8699 58.23C33.7499 58.1 33.65 57.94 33.56 57.78C33.47 57.63 33.37 57.47 33.32 57.29C33.27 57.12 33.27 56.93 33.25 56.74C33.23 56.56 33.21 56.38 33.22 56.19H33.2Z" fill="#5E381F"/>
</g>
<defs>
<radialGradient id="paint0_radial_5602_25822" cx="0" cy="0" r="1" gradientUnits="userSpaceOnUse" gradientTransform="translate(30.36 59.69) scale(4.24)">
<stop stop-color="#F2C3B6"/>
<stop offset="1" stop-color="#F7A197" stop-opacity="0"/>
</radialGradient>
<radialGradient id="paint1_radial_5602_25822" cx="0" cy="0" r="1" gradientUnits="userSpaceOnUse" gradientTransform="translate(55.89 60.8) scale(0.5)">
<stop stop-color="#F2C3B6"/>
<stop offset="1" stop-color="#F7A197" stop-opacity="0"/>
</radialGradient>
<clipPath id="clip0_5602_25822">
<rect width="100" height="100" fill="white"/>
</clipPath>
</defs>
</svg>
